<svg viewBox="0 0 1920 240" xmlns="http://www.w3.org/2000/svg" preserveAspectRatio="none"><g fill="rgba(255, 255, 255, 1)" fill-rule="nonzero"><path d="M1920 129.751C1760 191.917 1600 223 1440 223c-152.892 0-399.532-31.384-620.475-53.784C687 191 557.108 205.465 470 206c-162-2-318.667-21.333-470-58V0h1920v129.751z" opacity=".203"/><path d="M230 190c160 33.333 320 50 480 50 240 0 776-105 923-115 98-6.667 193.667 1 287 23V0H0v148c45.073 10.416 81.073 18.083 108 23 26.927 4.917 67.594 11.25 122 19z" opacity=".3"/><path d="M0 148c160 38.476 320 57.714 480 57.714 240 0 720-118.71 960-117.235 160 .983 320 20.824 480 59.521V0H0v148z"/></g></svg>