<?xml version="1.0" encoding="UTF-8" standalone="yes"?>
<!-- Created with sK1/UniConvertor (http://sk1project.org/) -->
<svg xmlns="http://www.w3.org/2000/svg" xmlns:xlink="http://www.w3.org/1999/xlink"
  width="1000pt" height="1000pt" viewBox="0 0 1000 1000"
  fill-rule="evenodd">
<g>
<g>
<path style="stroke:none; fill:#000000" d="M 0 500L 0 1000L 500 1000L 1000 1000L 1000 500L 1000 0L 500 0L 0 0L 0 500zM 489.2 11.3C 489.9 12 581.6 65.2 693 129.4C 804.4 193.7 898.3 247.9 901.7 250L 908 253.7L 905.6 255.9C 902.4 258.9 900.8 263 901.2 267.1C 901.4 269.9 902.3 271 906.7 273.8L 911.9 277.2L 911.3 433.8C 910.9 546.6 910.4 590.6 909.6 590.9C 907.2 591.8 902.2 598.1 901.4 601.3L 900.5 604.8L 882 594C 871.8 588.1 838.5 568.9 808 551.3C 777.5 533.7 690 483.1 613.5 439C 537.1 394.9 473 357.9 471.1 356.9C 467 354.7 466 353.4 466 349.7C 466 346.4 470 342 472.9 342C 474.4 342 475.1 341.1 475.6 338.5C 475.9 336.5 476 334.7 475.7 334.4C 475.4 334.1 473.6 334.6 471.7 335.5C 461.4 340.4 444.1 341.5 432.9 338C 424 335.3 417.9 331.1 408.2 321.4C 403.6 316.8 399.7 313 399.4 313C 398.9 313 398.6 367.2 398.5 488L 398.5 572.5L 394.7 595.5C 390.4 620.9 381.3 673.3 380.5 676.7C 380.1 678.5 380.6 679 383.3 679.5C 395.2 682.1 414.2 692.8 420.4 700.3C 426.6 708 428.4 712.7 428.4 721C 428.4 733.2 422.9 741.9 409.5 750.9C 400.6 756.8 388.8 761.5 376 764.3C 364.4 766.8 338.7 767.2 327 765.1C 293.2 759.1 270 741.2 270 721.1C 270 711.3 275.6 701.5 285.7 693.5L 291.5 689L 291.6 654.3C 291.6 617.1 292 613.2 297.7 584.5L 300.3 571.5L 299.2 541.5C 298.5 525 297.3 500.7 296.5 487.5C 295 464.7 294.7 462.9 291.3 452.5C 289.3 446.4 285.5 437.1 282.8 431.7C 272.9 411.8 268.2 396.6 265.5 376.3C 263 357 264 335.6 268.4 314.3L 269.9 307.5L 266.8 305L 263.8 302.4L 267.4 291.6C 276 265.9 286.5 250 294.9 250C 297 250 316.5 237.5 319.4 234.2C 321.1 232.2 321.2 230.8 320.6 216.8C 320.3 208.4 320.4 198.6 320.8 195.1C 321.5 190.3 321.3 187.4 320.2 183.7C 319.4 180.7 318.9 176.2 319.2 172.4C 319.5 166.8 320 165.5 322.7 162.8C 326.9 158.6 332.5 158.2 345.9 160.9C 361.1 164 364.1 163.8 368.9 159.4L 372.9 155.9L 374.4 161.2C 378.5 175.5 378.8 196.2 375 208.3C 373.9 211.7 373.2 214.5 373.3 214.6C 373.4 214.7 376 215.5 379.1 216.4C 386 218.3 391.7 222.4 397 229.2C 404 238 411 254 411 261.1C 411 264.8 422.9 284.8 429.2 291.6C 437.1 300.2 447.9 304 464.6 304L 475.7 304L 476.3 214.7C 476.7 165.7 477 102.9 477 75.2C 477 41.9 477.3 25.1 478 25.5C 480 26.8 481 24.9 479.5 22.7C 476.7 18.7 478.1 12.7 482.3 11C 485.5 9.70001 487.7 9.79999 489.2 11.3zM 116.8 550.5L 142.9 565.5L 143 586.7C 143 598.4 142.7 608 142.3 608C 141.8 608 129.6 601.1 115 592.6L 88.5 577.3L 88.2 568.4C 87.8 557.2 89 534.8 89.9 535.2C 90.3 535.4 102.4 542.2 116.8 550.5zM 127 538C 131.2 540.2 132.4 541.5 131.5 543C 130.8 544.1 121 539.5 121 538.1C 121 537.3 122 536 122.7 536C 122.9 536 124.8 536.9 127 538zM 162.5 576.1C 162.5 580.4 162.2 581.5 160.8 581.8C 159.3 582.1 159 581.4 159 576.7C 159 573.8 159.3 571 159.7 570.6C 161.4 568.9 162.5 571.1 162.5 576.1zM 148.8 574.2C 150.5 575.9 150.3 579 148.5 579C 146.8 579 145.1 576.1 145.7 574.2C 146.3 572.7 147.3 572.7 148.8 574.2zM 163 592.9C 163 597.5 161.2 600.9 159.7 599.3C 158.8 598.5 158.8 589.5 159.7 588.7C 161.7 586.6 163 588.3 163 592.9zM 112.1 592.2C 114.4 593.5 116 595.1 116 596.2C 116 598.5 116.1 598.5 110.6 595.4C 108.1 594 106 592.2 106 591.4C 106 589.4 107.6 589.6 112.1 592.2zM 148.8 592.2C 149.5 592.9 150 594.2 150 595.3C 150 598.3 146.6 596.9 146.2 593.7C 145.8 590.8 146.8 590.2 148.8 592.2zM 124.6 605.1L 128 607.2L 128 718.1L 128 829.1L 125.8 829.9C 124.6 830.3 122.8 830.5 121.8 830.2C 120.1 829.8 120 824.4 120 716.4C 120 654 120.3 603 120.6 603C 121 603 122.8 603.9 124.6 605.1zM 108 846C 108 846.6 109.3 847.8 110.8 848.8L 113.7 850.5L 81.4 893.7C 63.6 917.5 48.4 937 47.7 937C 45.5 937 42.6 933.2 43.7 931.8C 44.2 931.1 58.5 911.3 75.4 887.7C 92.4 864.2 106.6 845 107.1 845C 107.6 845 108 845.5 108 846zM 129.4 848.1L 132.2 850.3L 135 848.1C 136.6 847 138.1 846 138.4 846C 138.6 846 148.9 859.8 161.2 876.7C 198.3 927.6 194.5 921.8 192.5 924C 191.5 925.1 190 926 189.1 925.9C 188.2 925.9 182.8 919.5 177 911.7C 171.2 904 163.7 894 160.2 889.6C 156.8 885.1 149.4 875.4 143.9 868C 128.8 847.9 129.9 847.3 133.7 874.2C 135.6 887 137.5 901.1 138.1 905.5C 139.3 915.3 148.8 984.4 149.5 988.2C 149.8 990.2 149.4 991.2 148 992C 143.2 994.6 142.9 993.7 136.2 950.8C 132.8 928.6 129.7 908.5 129.3 906C 128.7 902.2 128.5 901.9 128 904C 127.6 905.8 126.6 906.6 124.6 906.8C 119.2 907.5 119 906.6 119 884.6C 119 864.7 119.9 847.5 120.8 848.4C 121 848.7 122.2 848.3 123.4 847.5C 126 845.6 126.2 845.6 129.4 848.1z"/>
<path style="stroke:none; fill:#000000" d="M 559 115.2C 559 123.1 558.7 133.1 558.4 137.5L 557.7 145.5L 569 152C 575.2 155.6 580.7 158.6 581.2 158.8C 581.6 159 582 157.4 582 155.3C 582 151.6 581.8 151.4 574.5 147.2L 567 143L 566.8 124.4L 566.5 105.7L 562.8 103.3L 559 101L 559 115.2z"/>
<path style="stroke:none; fill:#000000" d="M 587 141.7L 587.2 165.5L 576 193.5C 569.9 208.9 561.7 229.3 557.9 238.9C 554.1 248.5 551.1 256.4 551.2 256.4C 553.9 258 557.5 258.9 558 258.3C 558.4 257.9 565.8 236.8 574.5 211.5C 583.1 186.2 590.4 165.3 590.6 165.1C 590.9 164.8 596.4 167.7 606.8 173.7L 611 176.2L 611 172.2C 611 168.2 610.9 168.1 603.5 164L 596 159.9L 596 154.4C 596 148.3 595.7 148.3 604.2 153.7C 606.3 154.9 608.2 156 608.5 156C 608.8 156 609 154.3 609 152.2C 609 148.6 608.7 148.3 602.5 144.7L 596 140.9L 596 136C 596 133.2 596.2 131 596.4 131C 596.6 131 599.6 132.6 603 134.5C 606.4 136.4 609.4 138 609.6 138C 609.8 138 610 136.3 610 134.2C 610 130.5 609.9 130.5 599 124.2C 593 120.8 587.8 118 587.5 118C 587.2 118 587 128.7 587 141.7z"/>
<path style="stroke:none; fill:#000000" d="M 617 140.5C 615.4 142.4 615.5 149.9 617.3 154.1C 618 156 621.9 161.3 625.8 166C 633 174.4 634.6 178.4 631.5 179.6C 629.5 180.4 621.7 175.7 618.6 171.8L 616 168.5L 616 173.2C 616 177.4 616.4 178.2 620.2 181.4C 625.7 186.1 631.8 189 636.3 189C 640.6 189 642 187.1 642 181.3C 641.9 175.8 639.1 170.4 632.2 162.5C 625.2 154.5 623.4 150.8 625.6 148.9C 627.5 147.3 630.6 148.7 635.9 153.6L 640 157.2L 640 152.7C 640 148.8 639.6 147.9 636.8 145.8C 628.6 139.6 619.7 137.2 617 140.5z"/>
<path style="stroke:none; fill:#000000" d="M 648.4 159.5C 647.2 161.4 646.9 163.2 647.4 166.7C 648.1 172.1 650.6 176.3 657.6 184.2C 663.4 190.8 665.9 195.5 664.2 197.2C 662.3 199.1 657.6 197 652.3 191.6L 647 186.3L 647 191.1C 647 195.5 647.3 196.1 651.3 199.4C 657.2 204.3 666.4 208.4 669.6 207.6C 674.4 206.4 675.1 198 671.1 190.2C 670 188.1 666.5 183.5 663.2 179.8C 655.2 170.9 654 167 659.4 167C 661.8 167 670.4 173 671.3 175.2C 671.6 175.9 671.9 174.4 671.9 171.8C 672 167.8 671.6 166.8 668.9 164.5C 664.3 160.7 656.5 157 653.1 157C 650.9 157 649.6 157.8 648.4 159.5z"/>
<path style="stroke:none; fill:#000000" d="M 681.7 181C 677.2 186.3 677.1 198.2 681.5 208.6C 685.6 218.6 696.4 228.2 704.8 229.6C 708.2 230.1 709.2 229.8 712.1 227.2L 715.5 224.2L 715.5 213.8C 715.5 204.7 715.2 202.8 712.8 197.8C 707.6 186.5 696.9 178 688.3 178C 685 178 683.7 178.6 681.7 181zM 696.8 188.4C 703.3 191.8 707.2 199.1 707.4 208.5C 707.6 219.5 702.9 222.9 695.7 216.9C 687.2 209.9 684.2 194.8 690.1 188.9C 692.4 186.6 693.2 186.6 696.8 188.4z"/>
<path style="stroke:none; fill:#000000" d="M 724 212.2C 724 220.6 723.7 230.5 723.4 234.1L 722.7 240.7L 726.2 242.8C 728.2 244 730 245 730.4 245C 730.7 245 731 238.2 731 229.8C 731 220.4 731.4 215 731.9 215.5C 732.4 216.1 736.7 225.5 741.4 236.5C 749.5 255.4 750.3 256.6 754 258.7C 756.1 260 758.1 261 758.4 261C 758.8 261 759 251 759 238.7L 759 216.5L 755 214.2L 751.1 212L 750.8 227.2L 750.5 242.5L 748.4 238C 747.3 235.5 743.3 226.3 739.6 217.5C 733.4 202.7 732.6 201.3 729 199.2C 726.8 198 724.9 197 724.6 197C 724.2 197 724 203.9 724 212.2z"/>
<path style="stroke:none; fill:#000000" d="M 784 238C 784 241.7 784.2 242 788 243.1L 792 244.3L 792 258.7L 792 273L 787.9 271L 783.9 268.9L 784.2 272.7C 784.5 276.2 784.9 276.6 793 281.3C 797.7 284 803 287.1 804.8 288.2L 808 290.2L 808 286.3C 808 282.8 807.6 282.1 804 280.1L 800 277.9L 800 258.6L 800 239.4L 792 236.8L 784 234.2L 784 238z"/>
<path style="stroke:none; fill:#000000" d="M 536 296C 533.3 301.3 533.5 302.4 537.2 303.8C 538.9 304.4 540.4 304.9 540.5 304.7C 540.5 304.6 541.3 302.2 542.2 299.4L 543.7 294.2L 541.3 293.1C 538.1 291.6 538.3 291.5 536 296z"/>
<path style="stroke:none; fill:#000000" d="M 294.8 328.1C 294.5 329 293.4 334.3 292.5 340C 291.1 348.2 290.9 353.7 291.3 367.4C 291.6 376.8 292.3 386.1 292.8 388L 293.7 391.5L 294.4 386.5C 296.1 374.3 296.9 360.4 296.9 347C 296.8 332.1 296 325.1 294.8 328.1z"/>
<path style="stroke:none; fill:#000000" d="M 349.6 465.2C 349.2 468.1 347.8 483.1 346.5 498.5C 342.3 544.2 339.8 564.8 333.4 604C 332.6 609.2 328.8 628.1 324.9 645.9C 321.1 663.7 318.1 678.4 318.2 678.6C 318.4 678.7 321.9 678.2 326 677.4C 330.1 676.6 339 675.8 345.8 675.7L 358.1 675.5L 357.3 655.5C 356.9 644.5 356.5 623.3 356.5 608.5C 356.5 583.4 356.7 580.8 358.9 571.2L 361.3 560.9L 357.5 511.7C 355.4 484.6 353.2 461.9 352.7 461.2C 351 458.9 350.1 460 349.6 465.2z"/>
<path style="stroke:none; fill:#000000" d="M 354.9 689.9C 352.7 696.6 352.7 697.2 354.2 700.3C 355.2 702.4 357.7 704.8 360.7 706.5C 363.3 708.1 369 712 373.3 715.2C 383.3 722.8 389.1 725.7 396.5 726.9C 404 728 410.4 727 413.6 724C 418.6 719.2 415.9 713.9 403 703.2C 397.7 698.9 390.5 692.6 387 689.3L 380.5 683.3L 377.5 685.2C 373.4 687.8 360.5 687.4 358.5 684.6C 357.3 683 356.9 683.6 354.9 689.9z"/>
<path style="stroke:none; fill:#000000" d="M 310.7 709.5C 307.7 711.7 300.7 712.2 295.9 710.6C 293.5 709.8 291.5 709.2 291.3 709.4C 291.2 709.5 290.3 712.6 289.3 716.3C 287.7 722.4 287.7 723.3 289 725.8C 289.9 727.3 292.7 729.8 295.3 731.5C 298 733.1 304.1 737.4 308.9 741.1C 321 750.1 326.4 752.3 336.7 752.4C 346.3 752.5 350.3 750.5 350.8 745.2C 351.2 741.1 347.7 737.3 333.1 725.8C 326.7 720.7 319.5 714.7 317 712.4C 313 708.7 312.3 708.3 310.7 709.5z"/>
<path style="stroke:none; fill:#000000" d="M 98.2 550C 98.2 551.9 98.4 552.7 98.7 551.7C 98.9 550.8 98.9 549.2 98.7 548.2C 98.4 547.3 98.2 548.1 98.2 550z"/>
<path style="stroke:none; fill:#000000" d="M 102.2 552.2C 102.4 553.9 103.1 555.5 103.8 555.6C 104.5 555.7 104.6 555.6 104 555.3C 103.5 555.1 103 554.4 103 553.9C 103 553.3 103.6 553.2 104.3 553.6C 105.2 554.2 105.2 554 104.2 552.8C 103.2 551.5 103.2 551.1 104.2 550.8C 105 550.5 104.8 550.1 103.6 549.7C 102.1 549.1 101.9 549.5 102.2 552.2z"/>
<path style="stroke:none; fill:#000000" d="M 106 552.9C 106 553.5 106.4 554.1 106.8 554.4C 107.3 554.7 107.7 554.3 107.7 553.5C 107.7 552.7 107.3 552 106.8 552C 106.4 552 106 552.4 106 552.9z"/>
<path style="stroke:none; fill:#000000" d="M 110 554.9C 110 555.5 110.4 556.1 110.8 556.4C 111.3 556.7 111.7 556.3 111.7 555.5C 111.7 554.7 111.3 554 110.8 554C 110.4 554 110 554.4 110 554.9z"/>
<path style="stroke:none; fill:#000000" d="M 107.5 557C 107.2 557.5 107.4 558 107.9 558C 108.5 558 109 557.5 109 557C 109 556.4 108.8 556 108.6 556C 108.3 556 107.8 556.4 107.5 557z"/>
<path style="stroke:none; fill:#000000" d="M 115 558.2C 115 558.8 115.3 559 115.7 558.7C 116 558.3 117 558.6 117.9 559.3C 119.3 560.4 119.3 560.3 118.1 558.7C 116.6 556.7 115 556.5 115 558.2z"/>
<path style="stroke:none; fill:#000000" d="M 115 560.9C 115 561.5 115.4 562.2 116 562.5C 116.6 562.8 116.7 562.4 116.4 561.6C 115.7 559.8 115 559.5 115 560.9z"/>
<path style="stroke:none; fill:#000000" d="M 121 562.7C 121 564.5 121.2 566 121.4 566C 122.3 566 122.7 562.1 121.9 560.9C 121.3 559.9 121 560.5 121 562.7z"/>
<path style="stroke:none; fill:#000000" d="M 123.7 566.1C 124.1 567.4 124.5 567.9 124.8 567.1C 125 566.4 124.7 565.3 124.2 564.8C 123.4 564 123.3 564.4 123.7 566.1z"/>
<path style="stroke:none; fill:#000000" d="M 129.5 568C 129.5 569.6 130 571.2 130.5 571.4C 131.2 571.6 131.4 570.5 131.2 568.4C 130.7 564.2 129.5 563.9 129.5 568z"/>
</g>
</g>
</svg>