<?xml version="1.0" encoding="UTF-8" standalone="yes"?>
<!-- Created with sK1/UniConvertor (http://sk1project.org/) -->
<svg xmlns="http://www.w3.org/2000/svg" xmlns:xlink="http://www.w3.org/1999/xlink"
  width="2710pt" height="2709pt" viewBox="0 0 2710 2709"
  fill-rule="evenodd">
<g>
<g>
<path style="stroke:none; fill:#000000" d="M 0 1354.5L 0 2709L 1355 2709L 2710 2709L 2710 1354.5L 2710 0L 1355 0L 0 0L 0 1354.5zM 449.4 463.7C 449 464.7 448.4 470.8 448.1 477.2C 447.6 487.7 447.3 489.1 445.1 491.4C 442.1 494.5 438.2 495.7 427 496.6C 416.6 497.4 408.9 500.1 405.6 504.1C 399.6 511.2 395.5 522.9 392 542.5C 390 554 387.4 561.5 384.2 564.3C 383.2 565.2 377.5 567.4 371.6 569.1C 353.8 574.2 348.7 578.6 347.3 590.1C 346.6 596 349.2 601.5 354.7 606.3C 366.9 616.7 367.4 617.4 367.3 622.9C 367.2 628.8 364.2 635.3 354.2 650.5C 344.7 665.1 342 670.3 342 674.4C 342 680.2 345.4 682.7 360 687.5C 371 691.1 374.3 693.6 376.4 700.1C 377.8 704.7 377.9 706 376.6 712.9C 372.5 734.5 372 738.5 372 746C 372 758.6 374.6 762.5 388 769.8C 392.7 772.4 397.7 775.2 399.2 776C 405 779.2 410.8 785 413.3 790.3C 414.8 793.3 416 796 416 796.5C 416 798.7 425.8 810.4 431.2 814.8C 442.8 823.9 450.7 826.9 466.1 828C 477 828.7 484.3 830.1 507 835.4C 515 837.3 516.5 838 516.4 839.6C 516.1 843.5 513 863.1 512 867.2C 511.5 869.6 510.3 875.8 509.4 881C 506.3 899.4 505.9 901.4 504.9 902.1C 504.3 902.4 499.3 904 493.7 905.5C 488.1 907 483.1 908.6 482.5 909C 482 909.4 479.9 910.1 478 910.5C 472.3 911.7 451.1 922.2 441.4 928.6C 436.5 931.8 428.9 938.1 424.4 942.6C 415.3 951.7 419.4 944.2 378 1027C 354.1 1074.7 341.3 1101.1 331.3 1123.5C 328.9 1129 325.8 1135.7 324.5 1138.5C 319.9 1148.5 318 1152.9 318 1153.5C 318 1153.8 317.1 1156 316.1 1158.3C 310 1171.7 302.3 1193 298.9 1205.4C 296.4 1214.8 296.6 1225.4 299.4 1231.5C 307.8 1249.5 331.5 1274.2 365.5 1300.2C 379.7 1311.1 384 1314.2 388.3 1316.9L 392.2 1319.3L 394.6 1316.7C 396.6 1314.5 397.4 1314.3 400.1 1315C 401.8 1315.5 403.7 1316.3 404.3 1316.8C 405 1317.3 407.5 1318.2 410 1318.9C 412.5 1319.6 415 1320.6 415.5 1321C 416.1 1321.4 418.1 1322.1 420 1322.5C 421.9 1322.9 424.8 1323.8 426.5 1324.6C 428.1 1325.3 432.8 1326.8 436.8 1328C 442.9 1329.9 444 1330.6 444 1332.4C 444 1333.6 443.6 1335 443.1 1335.6C 442.6 1336.1 440.3 1340.9 438 1346.3C 433.8 1355.7 433.8 1356.1 435.6 1357.5C 436.6 1358.2 439.8 1359.4 442.5 1360.1C 445.3 1360.8 448.9 1361.9 450.6 1362.6C 458 1365.7 497.6 1374.9 519 1378.5C 554 1384.5 602.3 1386.7 628 1383.5C 667.3 1378.7 684.6 1374 711.7 1360.9C 717.3 1358.2 722.2 1355.5 722.5 1355C 722.9 1354.4 724.8 1353.1 726.8 1352C 728.8 1350.9 731.6 1349.2 732.9 1348.2L 735.3 1346.2L 728.5 1336C 716.6 1318 707.1 1297.7 696 1266.5C 690.6 1251.4 683.7 1224 681.5 1208.5C 677.7 1182.3 681.9 1162 698 1129.5C 709 1107.2 707.6 1108.4 714.7 1115C 760 1157.7 786.4 1177.3 816 1190.2C 827.6 1195.3 833 1196.5 844.6 1196.5C 855.4 1196.5 855.8 1196.4 863.4 1192.7C 872.9 1188 888.3 1175.7 896.6 1166.4C 908.7 1152.6 922.1 1134.3 930.1 1120.6C 932 1117.4 934.4 1113.4 935.4 1111.6C 936.4 1109.9 939.7 1103.9 942.7 1098.3C 948.8 1086.6 948.9 1087.2 940.4 1080C 937.5 1077.5 935 1074.8 935 1074C 935 1073.2 935.9 1070.2 937 1067.3C 938.2 1064.4 940 1059.4 941.1 1056.3C 942.3 1053.1 943.8 1049.1 944.5 1047.5C 945.3 1045.8 946.4 1042.8 947 1040.7C 947.7 1038.5 948.8 1035.6 949.6 1034.2C 950.4 1032.7 951 1030.8 951 1030C 951 1029.2 951.9 1026.7 953 1024.5C 954.1 1022.3 954.9 1020.1 955 1019.6C 955 1018.7 958.9 1008.2 961 1003.5C 961.5 1002.4 962.5 999.5 963.3 997C 964.2 994.5 965.8 990 967 987C 971 977 974.1 968.6 975.2 965C 975.7 963.1 976.7 960.6 977.3 959.5C 978.4 957.5 980.1 953.1 984.4 940.4C 987.7 931 989 915.4 988.9 887.5C 988.9 860.4 987.1 836.4 984.9 833.3C 984.1 832.1 981.2 829.6 978.4 827.7C 975.7 825.9 972.1 822.2 970.3 819.5C 966.6 813.9 965.5 813.2 959.8 812.2C 955.2 811.4 956 812.8 947.4 790.5C 943 779.2 940.7 777.1 935.9 779.5C 928.7 783.3 929.7 800.5 938.1 816.2C 942.7 824.9 943.8 832.2 942 842.1C 941.5 845.1 940.8 849.7 940.4 852.4C 939.7 858.3 935.6 863.2 932.2 862.3C 929.2 861.6 924.3 855.2 918 844C 911.7 832.7 909.4 830 906.4 830C 902.7 830 901.4 835.9 902.9 845.6C 903.5 849.9 904.4 853.8 904.9 854.4C 905.4 855 906.1 856.6 906.5 858C 906.9 859.4 911.9 869.9 917.6 881.5C 923.2 893 928.2 903.8 928.6 905.5C 929.8 910.5 933.1 916.3 936.6 919.5C 938.4 921.2 940.6 924.6 941.4 927.1C 942.9 931.4 942.9 932.4 941.4 938.1C 940.5 941.5 938.6 946.4 937.2 949C 930.1 961.6 926.5 967.6 921.7 974.8C 918.9 979 916.1 983.3 915.5 984.2C 914.1 986.6 902.1 1003.8 895.4 1013C 892.4 1017.1 888.8 1022.2 887.5 1024.2C 886.1 1026.3 884.7 1028 884.4 1028C 884.1 1028 881 1025.5 877.5 1022.5C 874.1 1019.5 870.6 1017 869.8 1017C 868.9 1017 866 1020.3 863.3 1024.2C 857.2 1033.3 846.1 1049.3 839.7 1058.5C 837 1062.3 833.8 1067 832.7 1068.7C 831.5 1070.5 830.1 1071.8 829.5 1071.7C 829 1071.5 824.7 1065.8 820.1 1058.9C 783.5 1004.7 738.7 956.8 699.3 929.8C 694.9 926.7 689.9 923.4 688.3 922.5C 686.8 921.7 683.7 919.8 681.5 918.5C 670.5 911.6 643.2 899.8 635.3 898.5C 633 898.2 630.6 897.3 630 896.5C 629.4 895.8 628.3 892.1 627.4 888.4C 626.6 884.6 625.2 878.3 624.4 874.5C 623.4 869.9 623 864.3 623.2 858C 623.6 849.7 624 847.7 626.9 842.2C 632.6 831 639.7 825.3 658.5 817C 668.9 812.4 681.5 805.8 684.2 803.5C 693.6 795.6 705.7 776.8 710 763.5C 710.7 761.3 711.5 759 711.9 758.5C 714 754.8 717.1 738.1 717.6 727.5C 718.4 710.7 716.4 698.1 710.7 682.5C 709.9 680.3 709.4 678.2 709.6 677.9C 709.8 677.5 711.7 676.9 713.7 676.5C 721.8 675 726.8 670.7 732.8 660C 736.2 653.9 740.8 647.1 748.1 637.3C 750.9 633.7 751.2 632.4 751.2 626.8C 751.2 621.8 750.4 618.4 747 610.2C 744.3 603.5 743 599 743.4 597.5C 743.7 596.2 746 592.8 748.5 589.9C 754.9 582.3 754.7 580.5 746 571.6C 742.1 567.6 738 562.9 737 561.2C 734.2 556.7 731.4 545.3 730.1 533.5C 729 524 726.9 516.1 724.6 513.2C 723 511 714.3 507.1 704 503.8C 693.2 500.4 686.3 497.1 683.7 494.3C 682.4 492.8 672.7 474.3 667.2 462.7C 667 462.3 909.4 462 1205.9 462L 1744.9 462L 1752.2 464.4C 1761.3 467.4 1763.7 468.6 1771 474.4C 1777.6 479.4 1781.7 484.6 1786 493C 1791.7 504.2 1791.4 499.4 1792 599.3L 1792.5 692.2L 1817.5 707.9C 1838.8 721.3 1861.7 736.2 1871 742.7C 1872.4 743.7 1881.4 749.8 1891 756.4C 1908.6 768.4 1937.9 789.6 1945.6 795.7C 1947.9 797.5 1951.8 801.6 1954.3 804.8L 1958.9 810.7L 1954.9 816.6C 1951.5 821.8 1951 823.2 1951 828.3C 1951 832.8 1951.6 835.1 1954 839.3C 1956.3 843.4 1957 845.9 1957 849.9C 1957 856.3 1959.1 861 1962.9 863.3C 1966.7 865.5 1969.8 865.4 1973.7 863C 1978 860.4 1978.6 858.9 1979.4 849.5C 1980 842 1979.8 841.1 1977 835.2C 1974.2 829.2 1974.1 828.7 1975.6 825.9C 1977.9 821.4 1979.5 821.4 1984.5 825.5C 1988.8 829 1989 829.4 1988.3 832.8C 1986.9 839.2 1987.7 844.5 1990.9 850.4C 1993.2 854.5 1994 857.4 1994 860.9C 1994 870.6 1997.6 875 2005.6 875C 2008.4 875 2010 874.2 2012.6 871.6C 2015.7 868.5 2016 867.7 2016 861.9C 2016 854.1 2016.9 852.3 2019.8 853.9C 2022.9 855.5 2024 858.2 2024 863.8C 2024 872.1 2030 876.5 2038.4 874.2C 2043.6 872.8 2043.1 872.5 2063 890.4C 2064.9 892.1 2068 894.8 2069.9 896.3L 2073.4 899.1L 2075.9 895.9C 2080.4 890.1 2083.9 886.6 2084.6 887.3C 2084.9 887.6 2084.8 911.2 2084.2 939.7C 2083.7 968.2 2083.4 991.8 2083.7 992.2C 2083.9 992.7 2084.5 993 2085 993C 2086 993 2101.4 977.8 2110.5 967.9C 2122.5 954.9 2132.8 943.4 2137.5 938C 2152.2 921 2162.5 908.9 2163.9 906.7C 2164.7 905.5 2166.8 902.9 2168.5 901C 2172.1 897 2182.3 883.4 2186.1 877.5C 2189.4 872.4 2191.7 864.6 2192.6 855.2C 2193.4 846.8 2193.7 846.6 2202.7 845.5L 2208.8 844.8L 2214.3 849.3C 2217.4 851.8 2220.5 854.2 2221.2 854.7C 2222.7 855.5 2235.4 871.1 2238 875C 2241.7 880.8 2246.3 885 2248.9 885C 2256.9 885 2267.9 890.8 2274.8 898.6C 2280.2 904.7 2287.2 917.8 2289.5 926C 2289.9 927.4 2290.8 929.4 2291.5 930.5C 2292.1 931.6 2293 934.3 2293.4 936.5C 2293.8 938.7 2294.7 941.4 2295.4 942.5C 2296.1 943.6 2297 946.5 2297.4 949C 2297.8 951.5 2298.7 954.4 2299.4 955.5C 2300.1 956.6 2301 959.7 2301.3 962.3C 2301.7 965 2302.6 968.6 2303.4 970.3C 2304.2 972.1 2305.1 975.5 2305.4 978C 2305.8 980.5 2306.7 984.5 2307.4 987C 2309.2 992.7 2311.6 1003.2 2313.6 1013.4C 2314.4 1017.7 2315.5 1022 2316 1023C 2316.6 1024 2317 1026.1 2317 1027.7C 2317 1029.2 2317.7 1033.4 2318.5 1037C 2319.3 1040.6 2320.7 1047.3 2321.5 1051.9C 2322.3 1056.5 2323.2 1061.1 2323.6 1062.2C 2324.5 1065.2 2329.1 1090.6 2330.1 1098.7C 2330.6 1102.7 2331.7 1107.8 2332.5 1110.2C 2333.3 1112.6 2334 1116.5 2334 1119C 2334 1121.5 2334.8 1126.4 2335.6 1130C 2336.5 1133.6 2337.4 1138.3 2337.6 1140.5C 2339 1153.3 2340.3 1161.1 2341.1 1161.6C 2341.6 1161.9 2342 1164.4 2342 1167.1C 2342 1173.3 2344 1186.2 2345.1 1187.4C 2345.6 1188 2346 1189 2346 1189.7C 2346 1190.4 2348.8 1194.5 2352.3 1198.8C 2355.7 1203 2361.3 1210.4 2364.8 1215C 2380.3 1235.8 2388.5 1247 2393.6 1254.5C 2396.6 1258.9 2403.6 1269 2409.1 1277C 2431.4 1309.4 2462.7 1358.5 2471.8 1375.3C 2473.7 1378.7 2475.8 1382.2 2476.6 1383.1C 2477.4 1383.9 2478 1384.9 2478 1385.3C 2478 1385.6 2480.5 1390.3 2483.7 1395.7C 2486.8 1401.1 2490.4 1407.5 2491.8 1410C 2493.1 1412.5 2495.7 1417.2 2497.5 1420.5C 2512.1 1447.3 2528.8 1480.9 2535.5 1497C 2543.5 1516.2 2548 1527.5 2548 1528.2C 2548 1528.6 2548.8 1530.9 2549.8 1533.3C 2553.5 1541.5 2558.8 1556.8 2561 1565.3C 2561.7 1567.9 2562.7 1570.3 2563.1 1570.6C 2563.6 1570.9 2564 1572.2 2564 1573.5C 2564 1574.8 2564.8 1578.3 2565.9 1581.2C 2566.9 1584.1 2570.1 1595.3 2572.9 1606C 2582.3 1642.5 2589.7 1678.8 2593 1705C 2593.5 1709.1 2594.4 1715.4 2595 1719C 2595.6 1722.6 2596.5 1730 2597 1735.5C 2597.5 1741 2598.5 1750 2599.1 1755.5C 2600.7 1769.1 2600.7 1873.1 2599.1 1885.5C 2598.5 1890.4 2597.6 1899 2597 1904.5C 2596.5 1910 2595.6 1917.2 2595 1920.5C 2594.4 1923.8 2593.5 1929.2 2593 1932.5C 2591.9 1941 2589.2 1955.4 2587.5 1962.7C 2583.9 1978.1 2582.6 1983.2 2579.9 1993.5C 2577.1 2004 2568.7 2031.3 2566.9 2035.5C 2566.5 2036.6 2564 2042.9 2561.4 2049.5C 2558.9 2056.1 2555.7 2063.9 2554.4 2066.8C 2553.1 2069.7 2552 2072.7 2552 2073.5C 2552 2074.2 2551.6 2075.1 2551.1 2075.4C 2550.6 2075.8 2547.7 2081.1 2544.6 2087.3C 2534.3 2108.3 2523 2127.9 2512.1 2143.8C 2510.1 2146.6 2508.1 2149.8 2507.5 2150.8C 2507 2151.8 2505.9 2153.2 2505.2 2154C 2504.5 2154.8 2501 2159.3 2497.5 2164C 2483.4 2182.4 2471.8 2195.7 2455.5 2211.8C 2441.2 2225.9 2434 2232.2 2416 2246.3C 2414.5 2247.5 2408.3 2251.6 2396 2259.5C 2384.6 2266.8 2358.5 2281 2356.4 2281C 2355.7 2281 2354.8 2279.3 2354.4 2277.2C 2353.1 2269.9 2350.6 2263.7 2346.9 2258.7C 2344.8 2256 2342.8 2252.3 2342.4 2250.6C 2342.1 2248.9 2341.3 2246.9 2340.7 2246.2C 2339.2 2244.3 2338.5 2225.8 2339.9 2223.2C 2340.9 2221.4 2342.1 2221 2348.3 2220.8L 2355.5 2220.5L 2355.8 2198.5C 2356.1 2177.4 2355.2 2156.1 2353 2132.5C 2352.4 2126.4 2351.3 2114.1 2350.5 2105C 2347.9 2076.9 2346.1 2059.7 2345.1 2053.5C 2344.5 2050.2 2343.6 2042.5 2343 2036.5C 2342.4 2030.4 2341.5 2023.9 2341 2022C 2340.6 2020.1 2339.9 2014.9 2339.5 2010.5C 2339.2 2006.1 2338.5 2000.2 2338 1997.5C 2337.5 1994.7 2336.4 1987.5 2335.6 1981.5C 2334.8 1975.4 2333.5 1966.4 2332.6 1961.5C 2331.8 1956.5 2330.2 1946.2 2329 1938.5C 2327 1925 2325.4 1915.7 2321.1 1891C 2319.9 1884.7 2318.1 1874.1 2316.9 1867.5C 2315.8 1860.9 2313.2 1847.4 2311.3 1837.5L 2307.8 1819.6L 2309.4 1809C 2310.3 1803.2 2311.9 1793.1 2313 1786.5C 2316.9 1762 2322.3 1716.4 2323.4 1699C 2323.7 1694.3 2324.7 1680.8 2325.6 1669C 2326.8 1652.3 2327.1 1638.4 2326.7 1606.5C 2326.1 1555 2323.6 1525.6 2316.3 1483C 2314 1469 2310.6 1454.2 2309.5 1453.2C 2308.2 1451.9 2307.1 1455.1 2306 1463C 2305.4 1467.6 2304.5 1472.1 2304 1473C 2303.6 1473.8 2302.7 1478.1 2302.1 1482.5C 2301.4 1486.9 2300.5 1491.4 2300 1492.5C 2299.5 1493.6 2298.9 1496.1 2298.5 1498.1C 2298 1501.7 2297.9 1501.8 2292.2 1502.4C 2289.1 1502.8 2280 1504 2272 1505C 2244.8 1508.6 2218.8 1511.2 2218 1510.4C 2217 1509.2 2219.9 1491.5 2223.2 1479.5C 2223.7 1477.3 2224.8 1472.1 2225.5 1468C 2227.1 1459 2230 1444.4 2236 1416.5C 2239.7 1398.7 2241.9 1387.4 2242.5 1383C 2242.8 1380.5 2243.5 1377.6 2244 1376.5C 2244.8 1374.6 2246.3 1367.4 2249.7 1347.5C 2250.6 1342.5 2251.6 1337.6 2252.1 1336.5C 2252.6 1335.4 2253.1 1333.1 2253.2 1331.5C 2253.5 1328.8 2253.2 1328.5 2250.5 1328.1C 2248.9 1328 2244.6 1328.3 2241 1328.9C 2237.4 1329.5 2225.6 1330.7 2214.7 1331.5C 2203.8 1332.3 2194.6 1333.1 2194.2 1333.4C 2193.8 1333.6 2186.5 1334.3 2178 1335C 2169.5 1335.6 2160 1336.5 2157 1337.1C 2154 1337.6 2142.8 1338.7 2132.1 1339.5C 2121.4 1340.4 2112.4 1341.3 2112 1341.5C 2111.6 1341.8 2102 1342.6 2090.6 1343.5C 2079.3 1344.4 2068.9 1345.5 2067.7 1345.9C 2066.4 1346.4 2061.1 1347.2 2056 1347.6C 2049.4 1348.1 2046.2 1348.8 2045 1350C 2044 1351 2041.8 1358.2 2039.6 1367.6C 2037.6 1376.3 2035.5 1384.8 2035 1386.5C 2034.1 1389.4 2033.2 1394.1 2029.6 1416C 2028.7 1421.2 2027.5 1427.5 2027 1430C 2025.7 1435.4 2023.5 1451.1 2021 1472C 2020 1480.5 2018.7 1491.1 2018.1 1495.5C 2017.5 1499.9 2016.6 1508.4 2016.1 1514.5C 2015.5 1520.5 2014.4 1532.9 2013.6 1542C 2010.1 1581 2008.5 1612.2 2005.9 1691C 2004.6 1730.2 2005.2 1810.9 2006.9 1826C 2007.5 1831.2 2008.9 1848.1 2010 1863.5C 2011.2 1878.9 2012.8 1899.1 2013.6 1908.5C 2014.4 1917.8 2015.5 1931.6 2016 1939C 2016.6 1946.4 2017.5 1957.4 2018.1 1963.5C 2019 1973.7 2021.7 2007.6 2024 2039C 2024.6 2046.4 2025.5 2057.2 2026 2063C 2026.6 2068.8 2027.5 2079.6 2028 2087C 2028.6 2094.4 2029.5 2105.4 2030 2111.5C 2030.5 2117.5 2031.6 2132.4 2032.5 2144.5C 2033.3 2156.6 2034.4 2169.6 2034.9 2173.5C 2035.5 2177.3 2036.4 2189 2037.1 2199.5C 2037.7 2209.9 2038.7 2219.1 2039.2 2219.8C 2039.8 2220.4 2040.9 2221 2041.7 2221C 2042.9 2221 2043.1 2222 2042.6 2225.8C 2042.3 2228.4 2041.8 2233.2 2041.4 2236.5C 2041.1 2239.8 2040.2 2245 2039.5 2248C 2038.7 2251 2037.6 2261.4 2036.9 2271C 2036.3 2280.6 2035.5 2289.2 2035 2290C 2034.6 2290.8 2034 2294.8 2033.6 2298.7C 2033.3 2302.7 2032.4 2307.7 2031.6 2309.7C 2030.8 2311.8 2029.7 2316.1 2029 2319.2C 2028.4 2322.4 2027.4 2325.2 2026.9 2325.5C 2026.4 2325.9 2026 2327 2026 2328C 2026 2329.8 2022.9 2340.6 2019 2352.5C 2017.9 2355.8 2017 2359.3 2017 2360.3C 2017 2361.3 2014.9 2364.5 2012.4 2367.5C 2007.3 2373.4 2007.1 2373.4 1991 2375C 1985.8 2375.5 1978.1 2376.4 1974 2377C 1969.9 2377.6 1960.9 2378.5 1954 2379C 1947.1 2379.5 1937.7 2380.4 1933 2381C 1928.3 2381.6 1917.8 2382.5 1909.5 2383C 1901.3 2383.6 1889.6 2384.4 1883.5 2385C 1872.8 2386 1857.9 2386.7 1797.5 2388.9C 1760.2 2390.3 1673.7 2390.3 1636.5 2388.9C 1571.8 2386.5 1560 2386 1548.5 2385C 1541.9 2384.4 1529.3 2383.5 1520.5 2383C 1511.7 2382.5 1500.7 2381.6 1496 2381C 1491.3 2380.4 1481.7 2379.5 1474.5 2379C 1467.4 2378.5 1457.9 2377.6 1453.5 2377C 1449.1 2376.4 1440.8 2375.5 1435 2375C 1429.2 2374.5 1421.6 2373.6 1418 2373C 1414.4 2372.4 1407.5 2371.5 1402.5 2371.1C 1397.6 2370.6 1389 2369.5 1383.5 2368.7C 1378 2367.8 1366.5 2366.2 1358 2365C 1349.5 2363.9 1341.2 2362.7 1339.5 2362.4C 1329.5 2360.7 1324.8 2359.9 1319.5 2359C 1296.7 2355.5 1227.2 2342.6 1219.5 2340.4C 1216.8 2339.6 1212.3 2338.7 1209.5 2338.4C 1206.8 2338.1 1203.6 2337.4 1202.5 2337C 1199 2335.5 1192.6 2334 1189.3 2334C 1187.6 2334 1185.9 2333.6 1185.6 2333.2C 1185.3 2332.7 1181.8 2331.8 1177.8 2331.1C 1173.8 2330.4 1169.6 2329.4 1168.5 2328.9C 1167.4 2328.4 1163.6 2327.3 1160 2326.6C 1156.4 2325.8 1150.8 2324.4 1147.5 2323.5C 1144.2 2322.6 1139.9 2321.5 1138 2321C 1118.5 2316.1 1061.6 2299.5 1050 2295.4C 1047.5 2294.5 1044.4 2293.5 1043 2293.3C 1041.6 2293 1038.6 2292 1036.3 2290.9C 1033.9 2289.9 1031.2 2289 1030.2 2289C 1029.2 2289 1026.7 2288.1 1024.5 2287C 1022.3 2285.9 1019.6 2285 1018.3 2285C 1017.1 2285 1015.9 2284.6 1015.5 2284.1C 1015.2 2283.6 1013.3 2282.6 1011.2 2282C 1002.1 2279.1 976.2 2269.1 952 2259.3C 917.1 2245 886.6 2230.3 848.7 2209.6C 792.8 2179.1 741.8 2140.7 713 2107.5C 678.6 2067.8 660.4 2030.6 654.5 1988C 652.5 1973.3 652.4 1941.8 654.4 1925.2L 655.9 1912.9L 661.7 1903.9C 664.9 1898.9 669.4 1892 671.7 1888.5C 674 1884.9 676.1 1881.2 676.5 1880C 676.8 1878.9 677.7 1877.4 678.3 1876.8C 679.9 1875.1 687.5 1859.7 689.6 1854C 692.9 1844.7 695.5 1826 693.4 1826C 693 1826 690.7 1827.1 688.1 1828.4C 685.6 1829.8 681.3 1831.8 678.5 1833C 675.8 1834.2 671.7 1836 669.5 1837C 646.9 1847.1 619.2 1852.9 594.1 1853C 582.5 1853 561.1 1851.1 559.5 1850C 559 1849.6 556.9 1848.9 555 1848.6C 533.7 1844.4 502.4 1829.1 486 1814.7C 483.5 1812.6 480.6 1810.4 479.5 1809.9C 478.4 1809.4 475.7 1807.9 473.5 1806.5C 471.3 1805.1 467.6 1803.1 465.4 1802C 463.1 1800.9 460.8 1799.4 460.2 1798.7C 459.6 1798 458.6 1791.3 458 1783.9C 457.5 1776.6 456.7 1769.1 456.3 1767.5C 456 1765.8 455.6 1763.1 455.4 1761.5C 454.2 1747.2 452 1726.3 451.1 1721C 450.6 1717.4 449.6 1707.7 449 1699.5C 448.4 1691.2 447.5 1681.8 447 1678.5C 446.5 1675.2 445.3 1664.2 444.4 1654C 443.5 1643.8 442 1626 440.9 1614.5C 438 1581.5 436.6 1563.2 434.1 1521.7C 433.6 1514.7 433 1508.6 432.6 1508.2C 432.2 1507.8 393.3 1507.3 346.2 1507L 260.5 1506.5L 255 1504C 237.7 1496.1 229.4 1487.9 222.4 1472L 219.5 1465.5L 219.2 988.5C 219 645.6 219.2 509.9 220 505.7C 221.3 498.7 224.3 492.3 229.4 485C 233.3 479.4 242.8 470.9 247.1 469C 248.4 468.5 250.2 467.6 251 467.1C 251.8 466.7 255.2 465.4 258.5 464.3C 264.3 462.3 267.2 462.3 357.4 462.1C 445.4 462 450.2 462.1 449.4 463.7zM 454.3 1123C 455.7 1127.7 457.8 1134.9 459 1139C 460.2 1143.1 461.7 1148.3 462.5 1150.5C 463.3 1152.7 464.6 1157 465.4 1160C 466.2 1163 469 1172.5 471.5 1181C 480.8 1212.1 480.2 1208.7 478.4 1219.7C 477.6 1225.1 476 1234.2 475 1240C 473.9 1245.8 472.1 1256.6 470.9 1264C 469.7 1271.4 468.4 1277.9 467.9 1278.4C 467.1 1279.3 461.9 1275.2 449.5 1263.7L 442.5 1257.2L 444.8 1254.1C 446 1252.5 447 1250.8 447 1250.5C 447 1250.2 436.2 1239.2 423 1226C 408.8 1211.8 399 1201.3 399 1200.2C 399 1199.1 402.6 1192.3 407 1185C 411.4 1177.7 415 1171.5 415 1171.3C 415 1171.1 415.8 1169.7 416.9 1168.2C 418.6 1165.8 431.6 1144 436 1136.4C 437 1134.6 440.1 1129.5 442.9 1125C 445.7 1120.5 448 1116.5 448 1116.1C 448 1114.8 450.4 1113 451.1 1113.7C 451.4 1114.2 452.9 1118.3 454.3 1123zM 2153.3 1570.2C 2153.9 1574.4 2156 1587.5 2160.1 1612.5C 2161.2 1619.1 2162.7 1629.2 2163.5 1635C 2164.3 1640.8 2165.3 1646.6 2165.6 1648C 2165.9 1649.4 2167.1 1656 2168.1 1662.7C 2169.1 1669.5 2170.9 1680.7 2172.1 1687.7C 2173.2 1694.8 2174.7 1704.8 2175.5 1710C 2176.2 1715.2 2177.5 1723.5 2178.4 1728.5C 2182.1 1750.3 2185.7 1773.1 2188 1789.5C 2188.6 1793.3 2189.5 1799 2190.1 1802C 2191 1807.1 2192.9 1818.5 2196.6 1841.5C 2197.4 1846.4 2198.3 1851.2 2198.6 1852C 2198.9 1852.8 2200 1858.4 2201.1 1864.5C 2202.1 1870.5 2203.9 1880.4 2205 1886.5C 2206.2 1892.5 2208 1902.4 2209.1 1908.5C 2212.6 1927.3 2214.8 1939.3 2215.9 1945C 2216.5 1948 2217.9 1955.7 2219 1962C 2220.2 1968.3 2222 1978.2 2223.1 1984C 2227.8 2008.4 2231.2 2026.9 2233.5 2040.4C 2234.3 2044.7 2235.4 2050.3 2236 2052.9C 2236.6 2055.4 2238.7 2066.5 2240.7 2077.5C 2242.6 2088.5 2245.1 2102 2246.1 2107.5C 2247.2 2113 2248.9 2122.4 2250 2128.5C 2251.1 2134.5 2252.9 2144.2 2254 2150C 2257.4 2167.9 2259.8 2181.2 2261 2188C 2261.6 2191.6 2263 2198.8 2264 2204C 2265 2209.2 2266.1 2215.2 2266.5 2217.3L 2267.1 2221L 2272.6 2221C 2276 2221 2278.2 2221.5 2278.5 2222.2C 2280.6 2227.5 2283.2 2271.1 2282.1 2280C 2280.2 2294.2 2275.7 2312.6 2273.6 2314.6C 2273 2315.2 2267.8 2317.1 2262 2318.9C 2256.2 2320.8 2249.7 2322.9 2247.5 2323.7C 2245.3 2324.5 2240.6 2326 2237 2327C 2233.4 2327.9 2227.1 2329.7 2223 2330.9C 2218.9 2332.2 2214.4 2333.4 2213 2333.7C 2211.6 2333.9 2207.6 2335 2204 2336C 2195.5 2338.4 2186.9 2340.5 2173.5 2343.5C 2167.5 2344.8 2154.2 2347.7 2144 2350C 2133.8 2352.2 2122.9 2354.3 2119.8 2354.7C 2112.9 2355.4 2113.1 2356.4 2116 2338C 2118.1 2324.5 2122 2296.1 2122 2294.5C 2122 2293.9 2124 2290.4 2126.4 2286.6C 2131.5 2278.6 2132.6 2273.4 2130.9 2265.2C 2129.1 2256.3 2124.5 2248.2 2117.4 2241.4C 2111.3 2235.6 2111.1 2235.3 2112 2231.9C 2112.5 2230 2113.3 2226.9 2113.7 2225C 2114.5 2221.6 2114.8 2221.5 2120 2221C 2124.8 2220.6 2125.6 2220.2 2126.2 2218C 2127.2 2214.1 2130 2178 2131.1 2152.5C 2131.6 2139.8 2132.5 2120.5 2133 2109.5C 2134.2 2083.4 2134.2 1997.8 2133 1973.5C 2132.5 1963 2131.6 1945 2131 1933.5C 2130.5 1921.9 2129.4 1906.6 2128.6 1899.5C 2127.8 1892.3 2126.8 1882.7 2126.5 1878C 2126.2 1873.3 2125.2 1865.4 2124.5 1860.5C 2120 1831.7 2119.8 1825.5 2122.3 1803C 2125.3 1777.1 2127.1 1762.4 2128.5 1751.5C 2129.3 1745.4 2130.4 1735.8 2131 1730C 2131.5 1724.2 2132.4 1716.3 2132.9 1712.5C 2133.4 1708.6 2134.3 1701.2 2134.9 1696C 2135.5 1690.8 2136.6 1680.6 2137.5 1673.5C 2138.3 1666.3 2139.9 1652.6 2141 1643C 2142.1 1633.4 2143.9 1618.1 2145 1609C 2146.1 1599.9 2147.4 1588 2148.1 1582.5C 2150 1565.5 2152 1560.7 2153.3 1570.2zM 2103.3 2340.7C 2103 2349.4 2102.3 2357 2101.9 2357.6C 2101.4 2358.2 2099.1 2359 2096.7 2359.3C 2094.4 2359.7 2091 2360.2 2089.1 2360.6L 2085.7 2361.3L 2086.3 2357.1C 2087.1 2350.5 2100.3 2325 2102.9 2325C 2103.4 2325 2103.5 2331.7 2103.3 2340.7z"/>
<path style="stroke:none; fill:#000000" d="M 1414.4 915.5C 1413.5 917.8 1415.5 919.6 1424.8 924.7C 1434.5 930 1441.6 932 1451 932C 1463.2 932.1 1473.1 935.1 1481.5 941.5C 1485.7 944.6 1493.7 952.6 1495.6 955.6C 1497.6 958.5 1496.1 961 1492.5 961C 1490.5 961 1479.2 955.7 1478 954.1C 1476.1 951.7 1459.9 944.3 1453.8 942.9C 1448.8 941.9 1447.8 941.9 1445.6 943.4C 1441.9 945.7 1442.4 947.7 1447.5 952.6C 1452.9 957.8 1459.2 961.9 1477.5 972.2C 1485.2 976.6 1492.3 981.1 1493.3 982.3C 1494.3 983.5 1498 988.8 1501.5 994C 1505.1 999.2 1508.6 1004.3 1509.3 1005.3C 1510.7 1007 1521.7 1012 1524.2 1012C 1524.9 1012 1526.8 1012.7 1528.3 1013.5C 1529.8 1014.3 1532.8 1015.2 1534.8 1015.6C 1536.8 1015.9 1539.9 1016.8 1541.5 1017.6C 1543.2 1018.3 1547.2 1019.6 1550.5 1020.4C 1553.8 1021.3 1559.7 1022.9 1563.5 1024.1C 1574 1027.2 1584.3 1030 1585.8 1030C 1587.2 1030 1587.5 1011.8 1586.4 995L 1585.7 985.5L 1575.7 983.8L 1565.6 982.2L 1555.6 971.9C 1550 966.2 1541.9 957.7 1537.6 953C 1523.1 937.4 1514.4 928.5 1511.3 925.9C 1507 922.3 1497.4 920.4 1474 918.5C 1463.3 917.7 1448.2 916.3 1440.5 915.6C 1421.3 913.6 1415.1 913.6 1414.4 915.5z"/>
</g>
</g>
</svg>