<?xml version="1.0" encoding="UTF-8" standalone="yes"?>
<!-- Created with sK1/UniConvertor (http://sk1project.org/) -->
<svg xmlns="http://www.w3.org/2000/svg" xmlns:xlink="http://www.w3.org/1999/xlink"
  width="907pt" height="1000pt" viewBox="0 0 907 1000"
  fill-rule="evenodd">
<g>
<g>
<path style="stroke:none; fill:#000000" d="M 0 500L 0 1000L 453.5 1000L 907 1000L 907 500L 907 0L 610.8 0C 434 0 315.1 0.400024 316 1C 316.8 1.5 414.9 58.1 534 126.8C 725.4 237.3 750.8 252.3 753.4 255.9L 756.4 260L 756.1 401.1C 756 478.8 755.6 542.9 755.3 543.6C 754.7 545.2 746.7 550 744.6 550C 743.7 550 698.2 524.1 643.4 492.5C 588.7 460.9 543.7 435 543.4 435C 543.2 435 543 437.4 543 440.4L 543 445.7L 554.3 452.2C 661.2 513.9 696.1 534.3 730.9 555.2C 753.6 568.9 772.8 580.4 773.5 580.6C 774.5 581 774.6 580.3 773.9 577.3C 773.4 575.2 773 570.2 773 566.2L 773 558.8L 776.8 561.1C 778.8 562.3 783.6 565.5 787.3 568.2C 791 570.9 794.5 572.8 795.1 572.5C 795.6 572.1 796 570.2 796 568.2C 796.1 559.2 801.1 547 808 539L 811.8 534.5L 814.5 537C 821.4 543.5 827.1 555.8 828.5 567.2C 828.9 570.4 829.5 573 829.7 573C 830 573 833 570.9 836.3 568.4C 841.8 564.3 849 560 850.5 560C 851.6 560 851 575.8 849.7 580.1C 848.6 583.7 848.6 585 849.7 587C 851.5 590.4 851.4 592 848.4 608C 847 615.7 846 622.7 846.2 623.5C 846.4 624.3 859.8 633 876 642.8L 905.5 660.6L 905.8 728.1L 906 795.6L 852.9 826.5C 800.6 856.8 799.8 857.3 797.2 855.8C 795.7 855 747.5 828 690 796C 632.5 763.9 536.5 709.4 476.7 674.8C 416.8 640.3 367.2 612 366.5 612C 365.8 612 365 611.6 364.8 611C 364.7 610.5 315.5 581.7 255.5 547.1L 146.5 484.2L 146.5 412L 146.5 339.7L 199.5 308.9C 245.2 282.4 252.7 278.3 254.5 279.2C 257.4 280.8 506.9 424.8 510.7 427.2L 514 429.2L 514 423.3L 513.9 417.5L 475.7 395.6C 441.1 375.7 403.6 354.1 331.2 312.2C 308.8 299.2 305.5 297 303.4 293.4L 301 289.3L 301 149.4C 301 72.4999 301.3 8.49988 301.6 7.19989C 302 5.8999 303.9 4.09991 306.1 2.8999C 308.3 1.79993 310 0.69989 310 0.499878C 310 0.19989 240.3 -0.00012207 155 -0.00012207L 3.05176e-05 -0.00012207L 0 500zM 125.9 513.2C 126.6 515.6 127.4 522.5 127.7 528.7C 128.2 538.5 128 540.8 126.1 546.7C 124.9 550.4 122.6 555.3 121.1 557.5C 118.4 561.5 118.3 561.5 112.2 561.3L 106.1 561.2L 105.2 566.3C 104.7 569.6 104.7 572 105.4 572.8C 107.2 575.3 113.5 577.3 121.3 578C 128.3 578.6 129.4 579 132.5 582C 136.5 585.9 138.8 591.4 143.7 609.4C 146.3 618.9 147 622.8 146.2 624.4C 145 627.1 150.1 648.2 152.8 652C 157.5 658.4 163.6 659.1 176.8 654.6C 190.1 650.1 195.8 646.2 198.9 639.5C 200.7 635.6 200.9 634.6 199.8 633.2C 198.7 631.9 198.7 631.7 200.2 632.2C 201.2 632.6 202.1 632.3 202.4 631.4C 202.7 630.6 202.5 630 202 630C 201.4 630 201 629.1 201 628C 201 626.2 202.5 625.5 205.2 625.9C 205.6 625.9 206.9 624.2 208 622C 210.6 616.9 216 613.8 216 617.5C 216 618.3 215.6 619 215 619C 214.5 619 214 619.7 214 620.5C 214 621.3 214.5 622 215.1 622C 215.8 622 216 623 215.6 624.5C 215.1 626.3 215.4 627 216.5 627C 217.3 627 218 627.4 218 628C 218 628.5 216.9 629 215.6 629C 213.8 629 213.1 629.7 212.6 632.2C 212.3 633.9 212.1 635.4 212.2 635.6C 212.4 635.7 217 633.8 222.4 631.4C 227.9 629 232.6 627.3 232.9 627.5C 233.4 628 229.7 636.5 227 641.2C 224.8 644.8 210.1 658 201.3 664C 185.9 674.7 171.1 679.4 155.2 678.8C 149.9 678.6 144.7 678 143.8 677.6C 142.1 676.8 142 677.9 142 691.9C 142 700.1 141.6 714.7 141 724.2C 140.5 733.7 139.1 760.2 138 783C 135.3 839 134.3 851.5 131 872C 129.4 881.6 126.5 901.9 124.5 917C 122.5 932.1 120.7 945 120.5 945.7C 119.9 947.6 112.5 949.1 105.7 948.8L 99.5 948.5L 99.2 944.8C 99 942.7 98.8 941 98.6 941C 96.9 941 85.5 945.1 78 948.5C 72.8 950.8 66.8 953 64.7 953.4C 60.5 954.2 54.5 952.6 53.7 950.6C 53.3 949.6 54 949.6 57.2 950.7C 62.5 952.5 67.6 951.4 79.1 946.1C 83.9 943.9 90.3 941.4 93.3 940.5C 97.4 939.3 98.9 938.4 99.4 936.7C 99.7 935.5 100 924.6 100 912.5C 100 900.4 100.5 880 101 867.2C 102 844 101.9 840.8 98.4 788C 97.9 781.3 97.4 778.3 96.9 779.5C 96.4 780.6 95.1 790 94 800.5C 92.8 810.9 90.5 826.7 88.9 835.5C 85.7 853.1 81.2 885.5 78.4 910.9C 76.3 930 76.2 930.2 65.7 930.3C 57.7 930.3 55.2 929.5 54.4 926.3C 54 924.9 53.7 907.7 53.6 888.1C 53.5 851.1 53.8 846.8 58.2 829.5C 59.9 822.8 60.1 819.6 59.6 810C 59.3 803.7 58.5 789.7 58 779C 57.4 768.3 55.8 751.8 54.4 742.5C 51.6 723.9 51 707.3 52.8 699.5C 53.4 696.7 54.2 690.1 54.5 684.8L 55.1 675.1L 48.8 670.5C 40.9 664.8 31.3 655.4 29.3 651.5C 27.3 647.7 28 634.6 31 620.5C 32.2 615 33.3 607.8 33.6 604.5C 34.2 596.9 38.6 577.2 41.3 570C 43.6 563.8 47.4 559.4 51.5 558.4C 53 558 59.7 558.3 66.2 559.1C 74.3 560.1 78.4 560.2 78.8 559.5C 79.1 559 79.7 556.7 80 554.5L 80.5 550.5L 87.5 549.9C 91.4 549.6 96.2 548.8 98.3 548.1L 102 546.8L 102 540.4C 102 536.8 101.5 531.9 100.9 529.5C 99.5 524 100.4 518.8 103.3 515.4C 105.9 512.4 114.8 509.1 120.6 509C 124.6 509 124.8 509.1 125.9 513.2zM 245.5 598C 245.8 598.5 245.4 599 244.6 599C 243.8 599 242.8 598.5 242.5 598C 242.2 597.4 242.6 597 243.4 597C 244.2 597 245.2 597.4 245.5 598zM 242 600C 242 600.5 241.3 601 240.5 601C 239.7 601 239 600.5 239 600C 239 599.4 239.7 599 240.5 599C 241.3 599 242 599.4 242 600zM 238 603C 238 603.5 237.3 604 236.5 604C 235.7 604 235 603.5 235 603C 235 602.4 235.7 602 236.5 602C 237.3 602 238 602.4 238 603zM 257 605.2C 257 605.8 256.3 605.9 255.4 605.6C 254.5 605.3 253.6 605 253.4 605C 253.1 605 253.1 604.6 253.5 604C 254.2 602.9 257 603.8 257 605.2zM 234 605C 234 605.5 233.3 606 232.5 606C 231.7 606 231 605.5 231 605C 231 604.4 231.7 604 232.5 604C 233.3 604 234 604.4 234 605zM 243.5 606C 243.2 606.5 242.2 607 241.4 607C 240.6 607 240 606.5 240 606C 240 605.4 240.9 605 242.1 605C 243.2 605 243.8 605.4 243.5 606zM 253 607C 253 607.5 252.3 608 251.5 608C 250.7 608 250 607.5 250 607C 250 606.4 250.7 606 251.5 606C 252.3 606 253 606.4 253 607zM 229 608C 229 608.5 228.6 609 228 609C 227.5 609 227 608.5 227 608C 227 607.4 227.5 607 228 607C 228.6 607 229 607.4 229 608zM 239 608C 239 608.5 238.3 609 237.4 609C 236.6 609 236.2 608.5 236.5 608C 236.8 607.4 237.5 607 238.1 607C 238.6 607 239 607.4 239 608zM 249 609C 249 609.5 248.3 610 247.5 610C 246.7 610 246 609.5 246 609C 246 608.4 246.7 608 247.5 608C 248.3 608 249 608.4 249 609zM 222.5 611C 222.8 611.5 222.6 612 222.1 612C 221.5 612 221 611.5 221 611C 221 610.4 221.2 610 221.4 610C 221.7 610 222.2 610.4 222.5 611zM 235 611C 235 611.5 234.3 612 233.5 612C 232.7 612 232 611.5 232 611C 232 610.4 232.7 610 233.5 610C 234.3 610 235 610.4 235 611zM 244.5 612C 244.2 612.5 243.5 613 242.9 613C 242.4 613 242 612.5 242 612C 242 611.4 242.7 611 243.6 611C 244.4 611 244.8 611.4 244.5 612zM 219.4 613.5C 219.8 614.5 219.3 615 218 615C 216 615 215.4 613.9 216.7 612.7C 217.7 611.6 218.7 611.9 219.4 613.5zM 231.5 613C 231.8 613.5 231.5 614 230.6 614C 229.8 614 229 614.4 228.8 615C 228.6 615.6 228 615.6 227 615C 225.7 614.2 225.8 614 227.3 614C 228.2 614 229 613.5 229 613C 229 612.4 229.4 612 229.9 612C 230.5 612 231.2 612.4 231.5 613zM 241 614C 241 614.5 240.3 615 239.5 615C 238.7 615 238 614.5 238 614C 238 613.4 238.7 613 239.5 613C 240.3 613 241 613.4 241 614zM 236.5 616C 236.8 616.5 236.7 617 236.1 617C 235.6 617 234.8 616.5 234.5 616C 234.2 615.4 234.3 615 234.9 615C 235.4 615 236.2 615.4 236.5 616zM 223.1 617C 225.8 618.5 225.5 620 222.5 620C 221.1 620 219.6 619.2 219 618C 218.1 616.4 218.2 616 219.5 616C 220.4 616 222 616.5 223.1 617zM 234 618C 234 618.5 233.8 619 233.6 619C 233.3 619 232.8 618.5 232.5 618C 232.2 617.4 232.4 617 232.9 617C 233.5 617 234 617.4 234 618zM 218.6 620.3C 218.9 621.2 220.2 621.5 222 621.2C 225.4 620.7 226 622.4 223.1 624C 220.2 625.5 218 625.3 218.6 623.5C 219 622.7 218.5 621.8 217.6 621.4C 216.7 621.1 216 620.4 216 619.9C 216 618.5 218 618.8 218.6 620.3zM 231 620C 231 620.5 230.1 621 229 621C 227.9 621 227 620.5 227 620C 227 619.4 227.9 619 229 619C 230.1 619 231 619.4 231 620zM 206 621.3C 206 622.1 205.3 622.7 204.5 622.7C 203.7 622.7 203 622.1 203 621.3C 203 620.6 203.7 620 204.5 620C 205.3 620 206 620.6 206 621.3zM 202 624C 202 625.2 197.2 626.5 196.2 625.6C 195.4 624.7 198 623 200.3 623C 201.2 623 202 623.4 202 624zM 193.5 628C 193.8 628.5 193.4 629 192.5 629C 191.6 629 191.2 628.5 191.5 628C 191.8 627.4 192.3 627 192.5 627C 192.7 627 193.2 627.4 193.5 628zM 198 630.6C 198 630.8 197.3 631 196.5 631C 195.7 631 195 630.6 195 630C 195 629.5 195.7 629.3 196.5 629.6C 197.3 630 198 630.4 198 630.6zM 152.7 955.6C 149.1 958.9 146.1 960.5 140.7 962.1C 136.7 963.3 129.1 966.2 123.7 968.6C 118.3 971.1 111.9 973.3 109.5 973.7C 104.8 974.3 99.5 972.8 98.6 970.5C 98.3 969.5 98.9 969.6 101.2 970.7C 105.7 973 112.4 971.9 122.5 967.2C 127.5 965 135.3 961.9 139.9 960.4C 146.1 958.5 149.5 956.7 152.4 953.9C 154.7 951.9 156.7 950.4 157 950.7C 157.3 951 155.3 953.2 152.7 955.6z"/>
<path style="stroke:none; fill:#000000" d="M 49 640.9C 49 641.5 49.4 642.2 50 642.5C 50.6 642.8 50.7 642.4 50.4 641.6C 49.7 639.8 49 639.5 49 640.9z"/>
<path style="stroke:none; fill:#000000" d="M 308.8 151.9C 308.7 225.7 308.6 286.9 308.6 288.1C 308.5 289.8 343.9 310.6 524 414.6L 739.5 539L 740.1 402.8C 740.4 327.8 740.7 266.4 740.6 266.4C 740.3 265.9 312.2 18.9999 310.7 18.4999C 309.1 17.7999 309 24.9 308.8 151.9zM 479.6 171.5C 492.4 177.8 491.9 194 478.5 207.5C 472.1 213.8 464.2 218 458.4 218C 453.2 218 451 216 451 211.5C 451 206.9 455.1 203.6 459.8 204.5C 465.5 205.6 473.5 202.5 479 197.1C 483.6 192.7 484 192 484 187.6C 484 178.7 477.4 175.6 464.2 178.4C 448.2 181.7 430.2 192.7 413.9 209.1C 397.1 225.9 387.5 241.9 386.3 255.1C 385.6 261.8 386.9 264.7 391.5 266.6C 395.7 268.3 399.7 267.6 407.5 263.7C 414.8 260.1 419.3 256.7 428.7 247.8L 435.9 240.9L 439.7 242.5C 446.8 245.5 446.9 246.2 441.4 252.7C 432.7 262.9 409.7 285.4 402.5 290.8C 393.1 297.7 383.9 302.2 379.7 301.8C 376.8 301.5 376.5 301.2 376.5 298C 376.5 294.3 377.4 293.7 385.3 292.5C 390.4 291.7 400 284.2 408.2 274.5C 411.9 270.1 415 266.2 415 265.8C 415 265.4 411.8 266.6 407.8 268.5C 398.7 272.9 390 273.4 385.5 269.8C 366.4 254.8 398.9 194.1 435.9 175.6C 448.2 169.4 454.3 168 465.9 168.5C 472.4 168.8 475.6 169.5 479.6 171.5zM 579.8 227.6C 582.7 229.6 582.7 234.6 579.8 237.8L 577.5 240.3L 586.5 239.7C 591.5 239.3 598 238.3 601 237.4C 610.2 234.7 613.2 234.5 614.7 236.6C 615.4 237.6 616 239.4 616 240.7C 616 242.6 616.5 243 619 243C 622.4 243 625.7 245.8 626.6 249.5C 629.2 260 615.9 283 607.2 283C 600.7 283 600.1 277.4 606.2 273C 608.4 271.4 610.9 270 611.5 270C 612.2 270 614.6 268 616.9 265.5C 624.5 257.2 621.4 253.2 611.2 258.4C 591.9 268.2 545.5 315.4 525.9 345.3C 519.4 355.2 518.6 357.1 519.5 360.7C 520 362.8 520.5 363.1 522.8 362.5C 534.9 359.6 562.1 330.8 580.5 301.5C 585.5 293.5 586 292.2 585.5 288.5C 584.9 283.9 586.6 279.7 589.3 279.2C 592.4 278.6 594 280.9 594 285.9C 594 290.3 594.2 290.7 597.3 291.7C 603.4 293.9 612.3 294.1 622.7 292.6C 640.1 289.9 645 290.8 651.9 297.6L 656.2 302L 655.9 309.7C 655.4 319.3 651.5 328.1 644 336.4C 641.2 339.3 639 342.1 639 342.4C 639 342.7 642 343 645.8 343C 651.1 343 653.4 342.5 656.9 340.5C 662.1 337.5 664 337.3 664 339.9C 664 345.8 647.1 350.9 637.1 348C 634.1 347.2 633.2 347.5 627.8 351.1C 617.6 358.1 609.4 361.4 601.5 361.8C 595.5 362.1 594 361.9 591.1 359.8C 585.4 355.9 583.8 351.8 584.3 342.3C 584.6 335 585.1 333.1 589 325.3C 592.4 318.4 595 314.8 601.5 308.4L 609.7 300.2L 602.5 299.1C 598.5 298.5 594.6 297.8 593.8 297.5C 592.7 297.1 591.3 299.1 588.3 305.2C 575.8 331.1 536.8 368 521.9 368C 515 368 511.8 360 514.5 349.5C 517.3 338.8 521.8 330.4 531.9 317.1L 534.4 313.8L 528 317.7C 519 323.1 516.6 324 511.5 324C 508.3 324 506.4 323.3 504.3 321.6C 500 317.9 500.5 312.4 506.6 297.5C 507.3 295.8 507.2 295.7 505.8 296.7C 502.9 299.1 489.7 304 481.8 305.6C 463.4 309.3 452.1 301.6 452 285.4C 452 266.6 467.8 244.7 488.5 234.9C 498.4 230.1 509.2 231.2 514.9 237.4C 520.3 243.2 518.4 257.5 511.1 266.8C 502.6 277.5 488 281.4 472 277.2L 464.5 275.2L 462.3 279.8C 459.8 284.9 459.3 291.5 461.1 295.4C 463.4 300.5 476.6 302.8 487 300C 492.7 298.5 504.1 292.7 510.5 288.2C 513.3 286.2 524.6 275.6 535.7 264.6L 555.9 244.6L 550.7 241.5C 541.1 235.8 543.9 232.2 554.6 236.5L 561.3 239.2L 566.9 233.7C 571.9 228.8 575.5 226.1 577 226C 577.3 226 578.6 226.7 579.8 227.6zM 440 232.5C 449.1 236.8 451.2 237.4 457.7 237.5C 465.8 237.7 467 238.2 465.4 240.8C 463.8 243.2 453.8 243.5 442.2 241.4C 435.7 240.2 430.5 239.9 425.2 240.4C 419 240.9 417.3 240.7 415.8 239.3C 413.1 236.9 413.6 233.3 417 229.8C 419.8 227.1 420.6 226.8 424.9 227.2C 427.7 227.5 433.9 229.6 440 232.5z"/>
<path style="stroke:none; fill:#000000" d="M 501.1 241.5C 495.2 244.1 484.7 252.2 476.3 260.7C 471.7 265.3 468 269.5 468 270C 468 270.6 470.7 271 474 271C 485.1 271 499.5 263.9 508 254.3C 512.6 249 513.6 245.6 511.5 242.4C 509.7 239.6 506.2 239.3 501.1 241.5z"/>
<path style="stroke:none; fill:#000000" d="M 550.9 265.3C 514 300.1 501.3 316.5 509.4 318.6C 518.1 320.7 535.8 308.8 564 281.6C 573.6 272.3 585.3 261.5 589.8 257.6L 598.2 250.5L 584.8 250C 577.5 249.7 571 249.1 570.3 248.7C 569.7 248.3 561.8 255 550.9 265.3z"/>
<path style="stroke:none; fill:#000000" d="M 629.7 303.5C 622.3 307.3 614.4 313.8 605 323.7C 595.8 333.3 590 342.8 590 348.1C 590 352.1 590.7 353.3 593.7 354.9C 598.7 357.5 605.3 355.8 615.1 349.4C 624.3 343.3 624.7 342.8 621.8 339C 620 336.5 619.5 334.6 619.5 329.7C 619.6 321.6 623.1 313.9 630.1 306.5C 633 303.5 635.1 301 634.9 301C 634.7 301 632.3 302.2 629.7 303.5z"/>
<path style="stroke:none; fill:#000000" d="M 641.2 303.7C 637.3 305.6 629.6 313.9 626.9 319.2C 624 324.8 623.4 331 625.4 334.8C 626.3 336.6 627.4 338 627.9 338C 629.4 338 641.8 324.1 646 317.6C 653.9 305.5 651.5 298.6 641.2 303.7z"/>
<path style="stroke:none; fill:#000000" d="M 223.6 415.1C 221 417.1 220 422.1 221.8 424.6C 222.2 425.2 230.5 430.2 240.2 435.8C 259 446.6 261.2 447.3 267.5 444.3C 270.2 443 271 442 271 440C 271 436.9 267.3 434.6 264.9 436.1C 262 437.9 258.8 436.8 245.2 429C 232.1 421.5 231.3 420.8 231.8 418.3C 232.1 416.5 231.7 415.3 230.5 414.3C 228 412.5 226.7 412.6 223.6 415.1z"/>
<path style="stroke:none; fill:#000000" d="M 778 591.9C 778 597.8 783.9 603.6 793.6 607.2C 802.5 610.4 820.9 610.4 830.4 607.1C 839.3 604.1 846 598 846 593L 846 589.6L 842.6 593.6C 829.6 608.8 795.8 608.9 781.8 593.7C 778.4 590.1 778 589.9 778 591.9z"/>
<path style="stroke:none; fill:#000000" d="M 442.6 605.1C 439.5 607.6 439 612.8 441.8 615.2C 442.7 616 450.7 620.9 459.5 626C 477.4 636.3 481.3 637.5 486.8 634.1C 490.7 631.6 491.2 627.8 487.7 626.3C 486.2 625.6 484.8 625.5 483.9 626.1C 481 627.9 478 626.8 464.4 619C 451.2 611.4 450.5 610.9 450.8 608.1C 451 606 450.6 604.8 449.1 604.1C 446.4 602.6 445.7 602.7 442.6 605.1z"/>
<path style="stroke:none; fill:#000000" d="M 657.3 662.7C 655.5 663.9 655 665.2 655 668.5L 655 672.7L 672.8 682.9C 682.5 688.5 691.8 693.4 693.3 693.7C 695 694 697.7 693.5 700 692.5C 703.3 691 704 690.2 704 687.9C 704 684.4 701 682.4 698.1 684C 697 684.5 695.5 685 694.7 685C 693.9 685 686.9 681.3 679.1 676.9C 665.5 669 665 668.6 665 665.5C 665 660.9 661.6 659.7 657.3 662.7z"/>
</g>
</g>
</svg>