<?xml version="1.0" encoding="UTF-8" standalone="yes"?>
<!-- Created with sK1/UniConvertor (http://sk1project.org/) -->
<svg xmlns="http://www.w3.org/2000/svg" xmlns:xlink="http://www.w3.org/1999/xlink"
  width="2709pt" height="2709pt" viewBox="0 0 2709 2709"
  fill-rule="evenodd">
<g>
<g>
<path style="stroke:none; fill:#000000" d="M 0 1354.5L 0 2709L 1354.5 2709L 2709 2709L 2709 1354.5L 2709 0L 1354.5 0L 0 0L 0 1354.5zM 1822 423.2C 1822 423.9 1821.3 425.7 1820.5 427.3C 1818 432.1 1814 448.6 1813 458.2C 1812.5 463.3 1811.2 472.7 1810.1 479C 1809 485.3 1808.1 493 1808.1 496C 1808.1 502 1811 521.3 1813.5 532.4C 1814.4 536.2 1814.9 540 1814.8 540.9C 1814.5 542.4 1798.5 542.5 1644 543L 1473.5 543.5L 1466.1 546.2C 1458.3 549.1 1447.5 554.7 1442.8 558.3C 1427.7 569.9 1415.7 589 1411.8 607.8C 1411 612 1410.6 659.2 1410.3 784.9L 1409.9 956.2L 1407.7 955.4C 1406.5 955 1390.9 954.4 1373 954.1C 1342 953.5 1340.2 953.4 1333.5 951.1C 1329.7 949.8 1325.8 948.1 1325 947.5C 1324.2 946.8 1321.8 945.7 1319.8 944.9C 1312.4 942.3 1309 947.1 1310.3 958.3C 1311.3 966 1314.9 969.9 1327.5 976.5C 1335.9 980.9 1341.4 984 1342.3 984.9C 1343.9 986.5 1341.3 988.9 1336.6 990C 1334.4 990.6 1329.6 991.9 1326 993C 1322.4 994 1316.3 995.8 1312.4 996.9C 1308.5 998.1 1304.5 999 1303.4 999C 1302.3 999 1299 999.7 1296 1000.5C 1293 1001.4 1283.3 1002.7 1274.5 1003.4C 1251.9 1005.4 1230.9 1007.9 1228 1009C 1226.6 1009.5 1223.3 1010.4 1220.5 1011C 1214.6 1012.3 1210.4 1015.9 1209 1020.8C 1207.4 1026.7 1210.8 1030 1218.5 1030C 1220.3 1030 1222.5 1030.7 1223.3 1031.5C 1224.1 1032.3 1227 1034.1 1229.7 1035.5C 1234.1 1037.9 1235.1 1038.1 1242.3 1037.5C 1249.6 1036.8 1250.3 1036.9 1252.6 1039.1C 1255 1041.3 1256 1041.5 1266.8 1041.6C 1275.3 1041.7 1279.7 1042.2 1283 1043.4C 1290.3 1046.2 1313.6 1047.5 1332.5 1046.2C 1341.3 1045.6 1350.1 1044.6 1352 1044C 1362.4 1040.9 1407.8 1039.3 1409.5 1042C 1409.8 1042.5 1410 1096.1 1410 1161.2C 1410 1290.1 1410.2 1295.9 1415.5 1310.8C 1426.1 1340.6 1452.6 1362 1484 1366C 1490 1366.7 1627.6 1366.9 1954.5 1366.5C 2208.6 1366.2 2419.1 1365.7 2422.2 1365.5C 2434.2 1364.5 2450.9 1357.2 2462.9 1347.7C 2471.1 1341.1 2479.4 1330.6 2484.7 1320C 2489.9 1309.6 2491.8 1303.2 2493 1292.6C 2494.3 1281.7 2494.3 622 2493 612.3C 2491.8 603 2489.7 596.4 2484.9 586.4C 2475.8 567.7 2459.8 554.2 2437 545.9L 2430.5 543.5L 2294.1 543L 2157.7 542.5L 2155.7 539.7C 2153.9 537.4 2153.8 536.6 2154.7 533.7C 2155.4 532 2156.7 526.1 2157.6 520.8C 2159.2 511.8 2159.2 510.8 2157.7 506.8C 2156.5 503.6 2154.7 501.6 2151 499.1C 2144.1 494.4 2141.8 489.3 2143.6 483C 2144.4 480.5 2145 476.2 2145 473.3C 2145 468.9 2144.5 467.5 2141.9 464.5C 2140 462.4 2136.8 460.3 2133.8 459.3C 2131 458.3 2128.1 456.5 2127.2 455.2C 2125.8 453.1 2125.9 452.3 2128 446.3C 2129.3 442.7 2130.3 438.4 2130.4 436.6C 2130.5 433.5 2130.5 433.5 2135.5 433.8C 2138.3 433.9 2144.1 434.7 2148.5 435.5C 2152.9 436.3 2161 437.7 2166.5 438.5C 2172 439.4 2178.8 440.4 2181.5 440.9C 2184.3 441.4 2186.9 441.6 2187.3 441.3C 2187.7 441 2188.6 441.3 2189.3 441.8C 2190 442.4 2197.3 444.2 2205.7 445.9C 2227.9 450.4 2264.3 459.6 2281.5 465C 2287 466.8 2293.8 468.9 2296.5 469.7C 2317.4 476 2343.7 485.9 2367.5 496.3C 2383.8 503.4 2418.5 520.8 2428.4 526.8C 2432.1 529.1 2435.3 531 2435.5 531C 2436.2 531 2458.6 545.5 2466.4 550.9C 2492.8 569.5 2509.6 583.5 2531.5 605.4C 2554.3 628.2 2569.7 646.8 2585.7 671C 2592 680.5 2594.2 683.9 2600.4 694.3C 2613.9 717.1 2629.7 754.2 2638.8 784.5C 2643.8 801 2644.8 804.8 2646 811C 2646.7 814.6 2647.7 817.9 2648.1 818.5C 2648.6 819 2649 821 2649 823C 2649.1 824.9 2649.8 829.4 2650.6 833C 2651.5 836.6 2652.6 842.6 2653 846.5C 2653.5 850.3 2654.4 856.4 2655 860C 2659.6 887.1 2659.6 974.3 2655 1003.5C 2654.4 1007.3 2653.5 1014.1 2653 1018.5C 2652.5 1022.9 2651.4 1029.9 2650.6 1034C 2649.8 1038.1 2649.1 1043.3 2649.1 1045.5C 2649 1047.8 2648.6 1050 2648.1 1050.5C 2647.1 1051.7 2645 1062.2 2645 1066.5C 2645 1068.2 2644.6 1070 2644.1 1070.5C 2643.6 1071.1 2642.5 1074.6 2641.7 1078.5C 2636.3 1104.2 2617.1 1166.9 2609.9 1182.7C 2608.9 1185.1 2608 1187.6 2608 1188.4C 2608 1189.2 2607.6 1190.1 2607.1 1190.4C 2606.7 1190.7 2605.7 1193.1 2605 1195.7C 2604.3 1198.4 2603.3 1201 2602.9 1201.5C 2602.5 1202.1 2599.8 1208 2597 1214.5C 2587.9 1236 2566.4 1280.1 2559 1292.5C 2550.2 1307.1 2526 1359.3 2526 1363.4C 2526 1364.2 2525.6 1365.2 2525 1365.5C 2524.5 1365.8 2523.4 1368.2 2522.6 1370.8C 2521.8 1373.4 2519.7 1379.3 2518 1384C 2515.3 1391.4 2509.1 1411.1 2504.5 1426.5C 2499.8 1442.4 2490.6 1485.5 2489 1498.7C 2488.6 1503 2487.6 1508.7 2487 1511.5C 2486.4 1514.2 2485.5 1520.8 2485 1526C 2484.5 1531.2 2483.6 1538.4 2483 1542C 2482.4 1545.6 2481.5 1554.8 2481 1562.5C 2480.5 1570.2 2479.4 1585.5 2478.6 1596.5C 2476.6 1624.2 2476.6 1718.3 2478.6 1757.5C 2479.5 1773.4 2480.5 1798.1 2481 1812.3C 2482 1845.1 2482.6 1850.4 2485.6 1855.9C 2486.9 1858.3 2488.8 1862.8 2489.7 1865.9C 2491.4 1871.2 2491.5 1889.4 2491.7 2161.9C 2491.9 2326.3 2491.6 2452.8 2491.1 2453.4C 2490.7 2454 2489.7 2456.1 2489.1 2458.1C 2487.6 2462.7 2480.9 2469.9 2474.5 2473.6L 2469.5 2476.5L 2389 2477C 2344.7 2477.3 2210 2477.3 2089.5 2477C 1867.8 2476.5 1847.4 2476.7 1836.4 2480.1C 1834.7 2480.6 1829.6 2481 1824.9 2481.1C 1820.3 2481.1 1810.9 2481.8 1804 2482.6C 1797.1 2483.4 1785 2484.5 1777 2485C 1769 2485.5 1757.6 2486.4 1751.5 2487C 1739.6 2488.3 1736.9 2488.5 1709.5 2490C 1699.6 2490.6 1681.4 2491.7 1669 2492.5C 1536 2500.9 1391.9 2504.8 1250.5 2503.6C 1114.8 2502.6 1034.2 2499.9 906.5 2492C 880.1 2490.4 855.1 2488.9 851 2488.6C 836.6 2487.8 819.5 2485.8 818.3 2484.8C 817.4 2484.1 817.6 2482.8 819.3 2479.7C 821.2 2476 821.5 2473.6 821.8 2460.5C 822.2 2445 821.5 2438 818.1 2422.5C 813 2398.6 808.8 2385.4 802 2371.5C 799.3 2366 796.3 2358.8 795.2 2355.5C 791 2342.6 787.1 2299.5 787 2264.6C 786.9 2245.5 783.7 2235 776.9 2231.4C 774.5 2230.2 774 2229.5 774.6 2227.7C 775.5 2224.5 777.4 2222.8 779.3 2223.6C 780.2 2223.9 781 2224.6 781 2225.1C 781 2227.1 783.8 2225.8 787.1 2222.2C 792.8 2216.1 808.1 2196.1 836.9 2156.6C 841 2151.1 846 2144.2 848 2141.5C 850 2138.7 854.7 2132.2 858.5 2127C 878.4 2099.5 881 2096 881.8 2096C 882.2 2096 884.9 2100.2 887.8 2105.3C 892.6 2113.6 901.5 2128.8 917.7 2156.3C 920.9 2161.6 925.1 2168.7 927 2172C 933.6 2183.3 940.3 2194.5 942.5 2198C 943.7 2199.9 947.8 2206.7 951.5 2213C 955.3 2219.3 960 2227.2 962 2230.5C 964.1 2233.8 968.1 2240.4 971.1 2245.2C 974.1 2250 977.2 2255.2 978 2256.7C 978.8 2258.3 981 2261.7 982.8 2264.3C 984.5 2266.9 986 2269.3 986 2269.6C 986 2269.9 986.8 2271.3 987.9 2272.8C 988.9 2274.3 994.6 2282.9 1000.6 2292C 1013.3 2311.5 1018.5 2318 1021.1 2318C 1022.2 2318 1025.4 2316.8 1028.2 2315.4C 1034.3 2312.3 1034.7 2312.6 1037.7 2322C 1043.3 2339.4 1043.4 2340.3 1041.2 2344.6C 1040.2 2346.7 1038.4 2351.9 1037.4 2356C 1034.7 2366.7 1034.7 2408.1 1037.4 2429C 1039.6 2446.9 1041.8 2460.1 1042.5 2460.8C 1043.6 2462 1055 2460.8 1098 2455C 1106 2453.9 1114.9 2452.8 1117.8 2452.4L 1123 2451.8L 1123 2445.6C 1123 2442.1 1123.2 2439.1 1123.6 2438.8C 1123.9 2438.5 1127.1 2439.3 1130.8 2440.7C 1143.7 2445.4 1148.5 2446.2 1156.9 2445C 1161.1 2444.4 1166.1 2443.4 1168 2442.9C 1169.9 2442.4 1174.7 2441.3 1178.5 2440.6C 1190.1 2438.3 1201 2436 1209.5 2434C 1213.9 2432.9 1221.6 2431.1 1226.5 2430C 1237.5 2427.4 1249.4 2424.4 1258 2422C 1261.6 2421.1 1268.3 2419.2 1273 2418C 1325 2404.3 1359.9 2386.4 1372 2367.3C 1378 2357.9 1375 2348.9 1364.9 2345.8C 1359 2344.1 1330.1 2344.1 1306 2345.9C 1270.3 2348.6 1243.8 2345.4 1214.5 2335C 1199.3 2329.6 1179.4 2317.7 1167.6 2307C 1164 2303.7 1159.1 2300.1 1156.8 2298.9C 1151.6 2296.2 1142.5 2295.9 1138.9 2298.3C 1135.8 2300.3 1135.9 2300.4 1128.5 2289C 1125.9 2284.9 1122.9 2280.3 1121.9 2278.8C 1119.1 2274.8 1119.5 2272.6 1123.2 2270.9C 1127.1 2269.2 1127.6 2267.4 1126 2260.1C 1123.8 2249.5 1113 2208.4 1110.6 2201.5C 1109.8 2199.3 1108 2193.4 1106.6 2188.5C 1101.1 2170 1098.9 2162.7 1091 2137.5C 1089.4 2132.5 1086.1 2121.7 1083.5 2113.5C 1080.9 2105.2 1077.3 2094 1075.6 2088.5C 1073.8 2083 1070.1 2071.7 1067.5 2063.5C 1064.8 2055.2 1061.4 2044.7 1059.8 2040C 1058.2 2035.3 1055.3 2026.8 1053.5 2021C 1051.6 2015.2 1044.2 1993.2 1037 1972C 1029.7 1950.8 1023.1 1931.1 1022.2 1928.1C 1021.1 1924.5 1019.9 1922.5 1018.3 1921.7C 1016 1920.7 1015.7 1919.9 1011.9 1906.5C 1004.1 1878.1 987.9 1828.4 979.5 1806.5C 976.9 1799.9 974.2 1792.9 973.4 1790.8C 970.2 1782.3 958.6 1757.9 952.9 1747.6C 936.9 1719 916.3 1699.6 873.9 1673.2C 867.6 1669.2 862.1 1666 861.8 1666C 861.5 1666 858.3 1664.3 854.9 1662.2C 841.3 1654.1 804.3 1636.8 780 1627.1C 775.9 1625.5 772.5 1623.5 772.5 1622.8C 772.5 1621.7 848.9 1621.4 1202.5 1621L 1632.5 1620.5L 1632.5 1595L 1632.5 1569.5L 1629.4 1563C 1625.7 1555.3 1617.6 1546.1 1611.6 1542.7C 1609.2 1541.3 1604.4 1539.3 1600.9 1538.1L 1594.6 1536L 1159.9 1536L 725.1 1536L 723.6 1533.8C 722.7 1532.6 722 1530.6 722 1529.5C 722 1528.4 721.3 1525.7 720.5 1523.5C 717.8 1515.8 719.4 1507.5 724.7 1502.8C 729.9 1498.1 731.3 1498 798.6 1498L 862 1498L 862 1495.7C 861.9 1494.5 861.5 1491.5 860.9 1489C 859.7 1483.3 856.4 1465.2 854.5 1453.5C 853.1 1444.9 852.2 1440.5 847.9 1421C 846.9 1416.3 845.8 1410.9 845.5 1409C 842.8 1393.6 823.8 1318 819.6 1305.5C 818.8 1303.3 817 1297.4 815.5 1292.5C 812.7 1283.1 811.7 1280.1 805 1260.5C 793.7 1228 776.7 1189.3 766.3 1172.2C 748.1 1142.3 735 1127.3 714.3 1112.5C 698.9 1101.6 672.5 1089.4 653.6 1084.5C 650.3 1083.7 646 1081.9 644.1 1080.5C 642.1 1079.1 637.4 1075.8 633.6 1073.1C 629.8 1070.3 626.3 1068.3 625.9 1068.6C 625.5 1068.8 628.1 1073.8 631.6 1079.8C 636.7 1088.2 638 1091.1 637.6 1093.5C 637.2 1096.2 632.6 1107.6 621 1134.7L 617 1143.8L 617 1267C 617 1390.2 616.9 1393.6 613.9 1387.9C 613.4 1387.1 611.7 1383.1 610 1379C 608.3 1374.9 606.5 1370.6 606 1369.5C 605.5 1368.4 604.2 1365.2 603.2 1362.5C 601.4 1357.8 599.1 1352.2 584 1315.5C 580.6 1307.2 575.4 1294.4 572.4 1287.1C 569.4 1279.7 566.3 1272.2 565.5 1270.6C 564.7 1268.9 563.4 1265.7 562.7 1263.5C 561.2 1259.3 552.8 1238.8 548.3 1228.5C 545 1220.7 543.8 1217.8 541 1210.5C 539.7 1207.2 537.7 1202.2 536.5 1199.5C 535.2 1196.7 532.1 1189.1 529.5 1182.5C 526.9 1176 524.4 1169.9 523.9 1169C 523.4 1168.2 521.9 1164.3 520.4 1160.5C 518.9 1156.6 517 1151.7 516 1149.5C 515.1 1147.3 513.1 1142.6 511.6 1139C 508.6 1131.8 511.8 1134.3 474.2 1110.3C 457.2 1099.4 452.8 1096 453.3 1094.2C 453.6 1093.3 455.5 1086.9 457.4 1080C 463.2 1060.2 469.1 1041.6 470.1 1040.6C 470.6 1040 471.6 1041.3 472.6 1043.6C 473.5 1045.7 475.1 1049.4 476.1 1051.7C 477.1 1054 478 1056.2 478 1056.5C 478 1058.9 481.5 1063.9 483.6 1064.4C 485.1 1064.8 486.2 1066 486.6 1067.8C 487 1069.3 487.6 1070.9 488 1071.5C 488.5 1072 489.7 1074.7 490.8 1077.5C 491.8 1080.2 495.3 1087.9 498.5 1094.5C 503.9 1105.7 504.7 1106.8 510.7 1111.5C 514.3 1114.2 517.7 1117 518.4 1117.5C 519 1118.1 523.8 1121.9 529 1126C 534.2 1130.1 539.3 1134.1 540.2 1134.9C 541.2 1135.8 543 1137.3 544.2 1138.3C 547.8 1141 563.4 1153.4 565 1154.7C 566.3 1155.8 581.2 1167.6 584.7 1170.3C 585.6 1170.9 586.3 1170.4 587 1168.4C 587.6 1166.8 588.5 1164.6 589 1163.5C 590.5 1160.1 595 1148.4 595 1147.7C 595 1147.3 595.9 1145.1 596.9 1142.7C 599.7 1136.5 602.6 1125.8 604.4 1115C 608.2 1091.9 609 1087.5 610 1084.6C 610.5 1082.9 611.6 1077.4 612.5 1072.5C 613.3 1067.5 614.5 1061.1 615.1 1058.1C 615.7 1054.5 615.7 1050.4 615.1 1045.7C 614.6 1041.8 614.3 1038.3 614.6 1037.8C 614.9 1037.4 616.2 1037 617.5 1037C 618.8 1037 620.1 1036.6 620.4 1036.2C 620.7 1035.7 623.5 1034.8 626.7 1034.1C 629.9 1033.4 633 1032.4 633.5 1032C 634.1 1031.6 636.2 1030.7 638.3 1030C 640.5 1029.3 644.9 1027.3 648.2 1025.4C 651.5 1023.5 654.5 1022 654.8 1022C 655.5 1022 660.9 1018.4 669.5 1012.2C 684.8 1001.1 699.8 982.8 707.3 966C 709.6 960.8 713.8 946.2 714.5 940.5C 716.3 927.5 714.8 904.8 711.5 894C 708.9 885.3 703.9 869.5 703.4 868.5C 702.7 866.9 723.3 850.5 762 821.7C 769.4 816.2 777.8 810 780.5 807.9C 783.3 805.8 787.4 802.8 789.6 801.3C 794.4 798 820 779.8 824.8 776.2C 828.7 773.4 841.6 764.5 847 761C 849.1 759.6 854.6 756 859.1 753C 880.3 739 898.2 727.3 902.2 724.9C 904.6 723.4 911.7 719 918 715C 955 691.8 997.8 667.1 1042.5 643C 1053.5 637 1118.4 604.5 1129.5 599.3C 1153 588.3 1159.2 585.5 1180 576.4C 1191.8 571.2 1202.9 566.3 1204.5 565.5C 1206.2 564.8 1210 563.2 1213 562C 1216 560.9 1219.4 559.5 1220.5 559C 1230.3 554.7 1265.3 540.9 1283 534.4C 1288.2 532.4 1297.2 529.1 1303 527C 1315.6 522.3 1342.1 513.2 1347 511.9C 1348.9 511.4 1352.1 510.3 1354 509.5C 1355.9 508.7 1363.6 506.2 1371 503.9C 1378.4 501.7 1388.6 498.5 1393.5 497C 1412.3 491.1 1437.1 484 1454.8 479.4C 1462.3 477.5 1471.9 475 1476 473.9C 1506.3 466 1565.8 453 1596.5 447.6C 1632.4 441.3 1639.7 440.1 1669 436C 1708.4 430.6 1736.9 427.5 1778 424.5C 1789.8 423.6 1800.6 422.8 1802 422.6C 1803.4 422.4 1808.4 422.2 1813.3 422.1C 1819.7 422 1822 422.3 1822 423.2zM 2118.8 437.8C 2119.1 438.7 2118.6 439.1 2117.4 438.8C 2116.5 438.7 2115.5 437.9 2115.2 437.2C 2114.9 436.3 2115.4 435.9 2116.6 436.2C 2117.5 436.3 2118.5 437.1 2118.8 437.8zM 1551.7 565.2C 1557.4 568.1 1564.3 574.9 1567.1 580.6C 1569 584.5 1569.4 587.1 1569.4 594C 1569.4 602.3 1567.8 610 1565.9 610C 1565.4 610 1565 610.5 1565 611.1C 1565 613.3 1560.8 617.9 1555.7 621.4C 1542.9 629.8 1524.3 627.6 1514.1 616.4C 1508.4 610.2 1506 603.6 1506 594.2C 1506 587.1 1506.4 585.2 1508.9 580.2C 1513.4 571.3 1522 564.5 1530.8 563C 1537.4 561.8 1546.8 562.8 1551.7 565.2zM 1632.5 565.2C 1639.1 568.5 1644.6 573.6 1647.6 579.2C 1650.2 584 1650.5 585.4 1650.5 594.5C 1650.5 603.4 1650.2 605 1647.8 609.5C 1641.2 622 1628.5 628 1613.2 625.9C 1602.9 624.4 1595.7 618.8 1589.9 608C 1587.9 604.2 1587.5 602.1 1587.5 594.5C 1587.5 585.1 1588.8 581.3 1594.4 573.7C 1597.5 569.5 1606.5 563.9 1611.8 563C 1618.4 561.8 1627.8 562.8 1632.5 565.2zM 1713.5 565.2C 1719.1 568 1725.7 574.6 1728.8 580.5C 1731.1 584.9 1731.5 586.6 1731.4 594.5C 1731.4 601.1 1731 604.3 1729.7 606.5C 1728.8 608.1 1728 610 1728 610.5C 1728 612.6 1717.4 622 1712.6 624.1C 1708.9 625.7 1705.7 626.2 1699.4 626.3C 1692.3 626.3 1690.3 625.9 1685.6 623.5C 1679.2 620.3 1674.1 615.2 1670.8 609C 1668.8 605.2 1668.5 603 1668.5 594.5C 1668.5 586 1668.8 583.8 1670.8 580C 1675.2 571.5 1684.1 564.5 1692.5 562.9C 1698.5 561.8 1709 562.9 1713.5 565.2zM 1806.7 658C 1807.3 662.7 1808.4 671 1809 676.5C 1810.8 693.1 1813.7 699.7 1830.4 725.4C 1839.1 738.9 1842.3 742.7 1846 744.2C 1849.1 745.4 1876.7 747.9 1887 748C 1892.7 748 1895.9 747.4 1900.5 745.5C 1907.2 742.8 1916.1 742.2 1917.9 744.3C 1918.6 745.2 1918.9 753 1918.8 768.6L 1918.6 791.5L 1915.4 798C 1907.8 813.6 1904 833.3 1905.9 847.5C 1908.5 866.2 1919.7 878.7 1940 885.6C 1948.4 888.5 1967.1 888.2 1976.4 885.2C 1992.4 879.9 2004.1 871.9 2019.4 855.9C 2035.5 839.2 2047.5 819.1 2049.6 805.5L 2050.2 801.3L 2054.3 801.7C 2074.3 803.6 2092.1 806.3 2099.1 808.6C 2101.6 809.4 2105.8 810.5 2108.6 811C 2117.5 812.6 2126.5 815 2129 816.4C 2130.4 817.2 2133.2 818.1 2135.3 818.5C 2137.3 818.9 2140.7 820.1 2142.7 821.1C 2144.8 822.2 2147.2 823 2148.2 823C 2151 823 2179.6 837.2 2188.5 843C 2206.6 854.9 2220.5 869.7 2226.1 883.2C 2226.7 884.7 2227.9 886 2228.6 886C 2230.9 886 2230.2 881.5 2227.5 879C 2226.1 877.7 2225 876.3 2225 876C 2225 875.6 2227.1 874.7 2229.6 874C 2233.2 873 2234.9 872.9 2237.4 873.8C 2243.6 876.1 2245.9 875.2 2247.5 870C 2248.5 866.6 2249.7 866 2255.1 866C 2260.2 866 2261.6 864.9 2262.4 860.5C 2262.7 858.9 2263.6 857 2264.4 856.1C 2265.8 854.8 2266.2 854.9 2268.4 856.9C 2270.4 858.8 2271.3 859.1 2273.7 858.3C 2276.9 857.2 2277.8 853.7 2276.1 848.8C 2275.1 846 2275.3 845.2 2278.7 840.3C 2280.7 837.4 2282.7 835 2283.1 835C 2283.6 835 2284.9 836.8 2286 839C 2288.5 843.9 2291.4 845.6 2294.6 844.1C 2298 842.6 2298.6 838.8 2296.1 834.3C 2295 832.2 2293 828.6 2291.8 826.3L 2289.6 822.1L 2292.3 813.8C 2294.9 805.6 2296.4 799.2 2297.6 791.6L 2298.2 787.6L 2301.5 791.6C 2303.4 793.7 2304.9 796.2 2305 797.1C 2305 798 2303.7 801.1 2302 804.1C 2300.4 807.1 2299 810.7 2299 812.3C 2299 814.9 2303.8 825.7 2308.1 832.7C 2310.6 836.8 2314.3 837.9 2317 835.5C 2319.9 832.9 2319.5 830.5 2315 821.5C 2312.8 817.1 2311 812.9 2311 812.2C 2311 811.5 2312.2 809.1 2313.7 806.7C 2317.8 800.5 2317.6 794 2313.1 787.8L 2309.8 783.2L 2313.4 775.5C 2319.4 762.9 2318.7 759.3 2308.1 747C 2306.4 745.1 2305 742.6 2305 741.6C 2305 740.6 2306.6 735.7 2308.5 730.9C 2313.6 717.9 2313.3 715.2 2305.6 705.5L 2302.7 701.9L 2304 690.7C 2305.7 676.5 2305.6 671.5 2303.5 668.4C 2301.4 665.1 2296.2 662 2292.9 662C 2289.1 662 2287.8 659.9 2288.2 654.3L 2288.5 649.5L 2338 649.5L 2387.5 649.5L 2394.5 651.9C 2414.5 658.8 2431.9 673.1 2439.5 689C 2440.9 692 2442.5 695.2 2443 696.1C 2443.4 697 2444.9 701.5 2446.2 706.1L 2448.5 714.5L 2448.5 996C 2448.5 1269.3 2448.4 1277.7 2446.6 1283.5C 2443.1 1294.7 2435.9 1304.8 2426.5 1311.9C 2423.2 1314.4 2414.5 1317.9 2408 1319.4C 2401.1 1320.9 2392.6 1321.1 2309.2 1320.8C 2249.4 1320.6 2217.9 1320.2 2217.8 1319.5C 2217.7 1318.9 2219.4 1317.8 2221.6 1317C 2237.7 1310.9 2249.1 1292.6 2254.5 1264.5C 2258.9 1241 2259.9 1225.6 2260 1179.6L 2260 1146.8L 2257.8 1147.3C 2252.8 1148.6 2213.4 1153.2 2196.5 1154.5C 2162.4 1157.2 2128.3 1156.1 2116.2 1151.9C 2114.4 1151.3 2112.7 1151 2112.4 1151.3C 2112.1 1151.5 2112.4 1158.2 2112.9 1166.1C 2113.5 1174 2114.2 1188.6 2114.6 1198.5L 2115.3 1216.5L 2099.9 1221.8C 2091.4 1224.8 2081.8 1228 2078.5 1228.9C 2075.2 1229.9 2066 1232.8 2058 1235.2C 2003.4 1252.2 1942 1265.2 1897 1269.4C 1879.8 1271 1875.6 1270.4 1834 1260.5C 1823.3 1257.9 1811.6 1255.2 1808 1254.5C 1804.4 1253.7 1800 1252.7 1798.2 1252.1C 1792.7 1250.4 1780.2 1249.5 1764 1249.5C 1750 1249.6 1747.8 1249.8 1741 1252.2C 1733.6 1254.7 1720.3 1260.9 1712.5 1265.5C 1710.3 1266.8 1706.9 1268.7 1705 1269.7C 1700.4 1272.2 1696.9 1274.3 1695.6 1275.3C 1695 1275.8 1693.2 1277 1691.5 1278C 1689.9 1279.1 1687.6 1280.5 1686.5 1281.2C 1680.3 1285.2 1667.8 1295.1 1663.8 1299.3C 1655.3 1308.1 1655.1 1314.2 1663.2 1317.1C 1665.4 1317.9 1667.2 1319 1667.3 1319.5C 1667.4 1320.1 1637.9 1320.6 1586 1320.8C 1512.4 1321.1 1503.8 1320.9 1497 1319.4C 1478.9 1315.3 1465.9 1304.1 1458.9 1286.5L 1456.5 1280.5L 1456.2 1187.7C 1456 1135.2 1456.3 1094.3 1456.8 1093.4C 1457.5 1092.1 1459.2 1093.5 1465.6 1100.6C 1469.9 1105.4 1474.6 1110.5 1476 1112C 1477.4 1113.4 1482.3 1118.9 1487 1124C 1491.7 1129.1 1496.6 1134.5 1497.8 1135.9C 1519.6 1159.8 1568.7 1209.5 1581.4 1220.5C 1598.4 1235.1 1612 1244.9 1618.5 1247C 1623.6 1248.7 1630.4 1247.8 1637.4 1244.6C 1648.3 1239.6 1668.7 1225 1685.5 1210.1C 1712.4 1186.3 1719.5 1179.6 1757.1 1141.7L 1787.7 1110.8L 1788.4 1088.6C 1788.8 1076.3 1788.8 1065.6 1788.4 1064.7C 1788.1 1063.7 1786.7 1062.7 1785.4 1062.4C 1784.1 1062.1 1782.6 1061.2 1782 1060.5C 1781.4 1059.7 1779.4 1058.8 1777.7 1058.4C 1775.9 1058.1 1773.4 1056.9 1772.1 1055.9C 1770.8 1054.8 1768.9 1054 1768 1054C 1767 1054 1765.7 1053.3 1765 1052.5C 1764.3 1051.7 1763.2 1051 1762.6 1051C 1762 1051 1759.3 1049.9 1756.5 1048.5C 1753.8 1047.2 1751 1046 1750.4 1046C 1749.8 1046 1748.7 1045.4 1748.1 1044.6C 1747.5 1043.9 1744.9 1042.7 1742.5 1042C 1740 1041.3 1738 1040.3 1738 1039.9C 1738 1039.4 1737.6 1039 1737 1039C 1736.5 1039 1733.1 1037.6 1729.7 1036C 1726.2 1034.3 1722.8 1033 1722.2 1033C 1721.5 1033 1721 1032.6 1721 1032C 1721 1031.5 1719.8 1030.7 1718.3 1030.4C 1716.7 1030 1713.5 1028.6 1711.1 1027.3C 1708.7 1026.1 1706.1 1025 1705.5 1025C 1704.8 1025 1703.7 1024.3 1703 1023.5C 1700.8 1020.9 1699.2 1021.8 1691.7 1029.7C 1675 1047.5 1666.1 1056.9 1660.1 1063.5C 1656.6 1067.4 1650.5 1073.9 1646.6 1078C 1642.6 1082.1 1636.1 1089.1 1632 1093.5C 1619.7 1106.9 1609.8 1117 1609 1117C 1608.3 1117 1601 1111.9 1595.5 1107.6C 1594.4 1106.7 1591.9 1104.9 1590 1103.5C 1586 1100.6 1585.2 1099.9 1570.5 1088.9C 1564.5 1084.3 1557.2 1078.8 1554.3 1076.6C 1551.4 1074.3 1546.3 1070.5 1542.9 1068C 1539.5 1065.5 1534.8 1061.9 1532.5 1060C 1530.3 1058.1 1527.1 1055.6 1525.6 1054.5C 1524 1053.4 1517.1 1048 1510.1 1042.5C 1503.2 1037 1496.4 1031.8 1495 1030.9C 1493.6 1030 1491.4 1028.2 1490 1026.8C 1488.6 1025.5 1485.5 1022.9 1483 1021C 1480.5 1019.1 1478.3 1017.3 1478 1017C 1477.7 1016.7 1473.7 1013.3 1469 1009.5C 1464.3 1005.7 1459.5 1001.5 1458.2 1000.1L 1455.9 997.6L 1456.3 854.6C 1456.6 711.5 1456.6 711.5 1458.8 704.5C 1465.2 683.6 1479.2 666.5 1497.9 657.1C 1502.9 654.5 1515.1 650.4 1519.5 649.7C 1521.2 649.5 1586.2 649.3 1664 649.4L 1805.5 649.5L 1806.7 658L 1806.7 658zM 2277 657.3C 2277.5 665 2277.6 665.2 2281.7 669.1C 2284.6 671.8 2286.8 673 2288.8 673C 2293.1 673 2294.4 675.1 2293.7 681.2C 2293.3 684 2292.7 686.7 2292.2 687.2C 2291.7 687.7 2288.9 687.2 2285.7 686C 2281.1 684.3 2279.8 683.2 2278 679.7C 2276.8 677.4 2274.3 674.2 2272.4 672.7C 2270.5 671.1 2267.8 667.7 2266.3 665.2C 2264.8 662.6 2262.8 659.4 2261.8 658.1C 2260 655.7 2259.4 651 2260.7 649.6C 2261.1 649.2 2264.8 649.1 2269 649.2L 2276.5 649.5L 2277 657.3zM 2287.9 699.3C 2289.3 701.1 2292.2 716.4 2291.8 719.8C 2291.5 722.1 2291.2 721.8 2289.8 717.5C 2288.9 714.7 2287.2 709.9 2286.1 706.8C 2284.9 703.6 2284 700.4 2284 699.5C 2284 697.6 2286.4 697.5 2287.9 699.3zM 2306 763.5C 2306 764.2 2304.6 767.6 2302.9 771.1C 2300.1 776.7 2299.6 777.2 2298.9 775.3C 2298.3 773.5 2297.6 760.2 2298 755C 2298.1 753.2 2306 761.5 2306 763.5zM 288 1169C 288 1169.6 287.3 1171.7 286.5 1173.7C 282.9 1182.2 278.9 1200.3 276.1 1220.6C 275.1 1227.9 274 1234.2 273.7 1234.7C 273.4 1235.2 272.3 1247.3 271.3 1261.6C 268.2 1306.1 269.1 1394.6 273 1434C 275.2 1456.1 277.1 1471.8 277.9 1475C 278.4 1476.9 279.4 1482.1 280 1486.5C 281.6 1496.8 284.4 1504.8 289.4 1513.4C 293.7 1520.6 302.2 1529.2 307.7 1531.8C 309.5 1532.7 311 1533.7 311 1534C 311 1534.7 258.1 1536 229.3 1536C 212.7 1536 211.9 1536.1 204.6 1538.9C 191.3 1544 183.1 1551.6 177.6 1563.7L 174.6 1570.5L 174.2 1594.8C 173.9 1609.8 174.2 1619.6 174.8 1620.2C 175.4 1620.8 215.9 1621.2 284.6 1621.3L 393.5 1621.5L 394 1701C 394.4 1758.8 394.8 1781 395.7 1782.5C 397.7 1786 414.2 1801.4 422 1807.1C 426.1 1810.2 432.4 1814.2 435.9 1816.1C 439.5 1818 443 1820.1 443.8 1820.7C 444.5 1821.4 445.6 1822 446.1 1822C 446.7 1822 450.6 1823.6 454.8 1825.6C 473.4 1834.4 499.9 1841.5 534 1847C 540.3 1848 548 1849.3 551 1849.8C 554 1850.4 560.8 1851.1 566 1851.5C 571.2 1851.9 576.9 1852.6 578.5 1853.1C 581.6 1854 622.8 1856.7 653 1858C 662.6 1858.4 687.2 1858.8 707.7 1858.9L 744.8 1859L 748.6 1865.7C 750.6 1869.5 753 1873.4 754 1874.5C 754.9 1875.6 759.4 1883 763.9 1891L 772.2 1905.5L 769.9 1912.5C 768.7 1916.3 767.4 1919.9 767 1920.5C 766.6 1921 764.8 1925.8 763 1931C 761.2 1936.2 758.3 1944.3 756.5 1949C 754.7 1953.7 751.9 1961.5 750.2 1966.5C 748.5 1971.4 745.9 1978.6 744.5 1982.5C 737.9 1999.9 721.8 2045.8 719.5 2054C 718.8 2056.5 717.5 2060.3 716.7 2062.5C 714.9 2067.4 710.9 2079.8 706.5 2094.5C 700 2116.4 700 2116.2 695.4 2135.5C 694.6 2138.8 693.7 2144.6 693.4 2148.5L 692.8 2155.5L 700.4 2161.4C 709.7 2168.6 710.6 2169.6 709.2 2171.3C 708.2 2172.5 699 2177.4 693 2180C 691.6 2180.5 688.1 2182.4 685.2 2184L 679.8 2187.1L 677.3 2184.4C 675 2181.9 674.4 2181.8 668.2 2182.2C 664.5 2182.5 659.5 2183.6 657 2184.7C 654.5 2185.8 651.7 2187 650.7 2187.4C 647.8 2188.4 638 2194.9 632 2199.9C 621 2209 610.4 2222 608 2229.4C 605.6 2236.8 607 2240.8 624.8 2276C 630 2286.2 635.1 2295.9 636.2 2297.7L 638.1 2300.9L 649.3 2301.2L 660.5 2301.5L 664 2312C 668.2 2324.3 669 2326.5 673.8 2338C 675.7 2342.6 678.2 2350.1 679.2 2354.5C 680.9 2361.8 682 2368.2 686.5 2396.2C 690 2418.7 695.1 2430.8 705.3 2440.7C 716.7 2451.9 738.1 2467.6 754.2 2476.4L 760.3 2479.8L 755.6 2480.5C 753 2480.9 750.4 2480.8 749.7 2480.3C 749.1 2479.7 741.8 2478.8 733.5 2478.1C 716.8 2476.8 716.5 2476.7 699 2474.6C 683.7 2472.7 654 2469.2 648.5 2468.6C 635 2467.3 560.7 2456.7 532.5 2452.1C 519.3 2449.9 506.7 2447.9 504.5 2447.7C 502.3 2447.4 498.5 2446.7 496 2446C 493.5 2445.4 488.6 2444.5 485 2444C 481.4 2443.5 475.6 2442.5 472 2441.6C 468.4 2440.8 463.9 2440.1 461.9 2440C 459.9 2440 458 2439.7 457.6 2439.3C 456.6 2438.2 446.2 2436.1 441.8 2436.1C 439.8 2436 437.9 2435.6 437.6 2435.2C 437.3 2434.7 433.8 2433.8 429.8 2433.1C 425.8 2432.4 421.4 2431.4 420 2431C 418.6 2430.5 414.8 2429.6 411.5 2429C 408.2 2428.4 404.2 2427.5 402.5 2427C 400.9 2426.6 397 2425.6 394 2425C 391 2424.3 387.4 2423.4 386 2423C 378.5 2420.6 373.7 2419.8 370.8 2420.5C 362.2 2422.3 358.1 2422.2 352.4 2420C 346.3 2417.7 341.3 2414.6 339.2 2411.8C 338.5 2410.9 335.4 2409.4 332.2 2408.5C 329.1 2407.6 324.5 2406.2 322 2405.3C 319.5 2404.5 316.4 2403.5 315 2403.3C 313.6 2403 310.6 2402 308.3 2400.9C 305.9 2399.9 303.2 2399 302.2 2399C 301.2 2399 300 2398.6 299.5 2398.1C 298.9 2397.6 296.7 2396.7 294.5 2396C 290.2 2394.7 279.3 2390.6 274.5 2388.5C 272.9 2387.7 268.6 2385.9 265 2384.5C 227.3 2368.9 181.9 2338.1 152.9 2308.3C 144.7 2299.9 127.7 2280 123 2273.4C 107 2250.7 98.4 2236.8 88.7 2217.5C 78.8 2197.8 67.8 2170.4 63 2153.5C 61.8 2149.1 60.2 2143.5 59.4 2141C 51.9 2116.4 44.7 2076.5 40.8 2037.5C 39.1 2020 39 1932.3 40.8 1911C 45.6 1852.3 57.5 1781.8 71.4 1730.5C 83.7 1684.9 98.7 1637.5 109.6 1609.5C 120.1 1582.9 134.1 1550.5 141.6 1535.9C 144 1531.2 146 1526.7 146 1525.9C 146 1525 146.9 1523.5 148 1522.5C 149.1 1521.5 150 1520.3 150 1519.9C 150 1518.8 170.2 1481.2 180 1464C 190.4 1445.7 208.1 1416.3 213.2 1408.8C 215.3 1405.7 217 1402.9 217 1402.6C 217 1401.9 232.3 1378.2 234.9 1374.8C 237.5 1371.6 237.6 1364.4 235.4 1355C 234.5 1351.4 233.4 1344.2 232.9 1339C 232.4 1333.8 231.5 1327 230.9 1324C 227.9 1309.4 227.7 1251.1 230.6 1242.2C 231.4 1239.9 232.3 1235.5 232.6 1232.4C 233 1229.4 234.1 1225.2 235.1 1223.2C 236.2 1221.2 237 1218.8 237 1217.8C 237 1216.8 237.9 1214.3 239 1212.3C 240.1 1210.2 241 1208 241 1207.4C 241 1206.8 242.5 1203.8 244.3 1200.6C 246 1197.5 248.2 1193.7 249 1192.2C 251.3 1188 257.6 1180.1 260.2 1178.1C 264.2 1175 269.2 1172.7 277.5 1170.4C 286.9 1167.8 288 1167.7 288 1169zM 1870.5 1317.6L 1882.5 1319.8L 1845 1319.8L 1807.5 1319.8L 1822.5 1317.8C 1853.7 1313.8 1850.8 1313.8 1870.5 1317.6z"/>
<path style="stroke:none; fill:#000000" d="M 844.2 1650C 844.4 1650.7 848.4 1653.2 853 1655.6C 868.1 1663.6 887.9 1675.8 900.5 1684.9C 918.8 1698.1 939.7 1717.8 946.7 1728.5C 948.1 1730.7 950.6 1734.3 952.1 1736.6C 955.2 1741.1 968.5 1766.9 971.4 1774C 972.5 1776.5 974.4 1780.8 975.7 1783.7C 976.9 1786.5 978 1789.2 978 1789.7C 978.1 1790.1 978.9 1792.3 980 1794.5C 981.1 1796.7 981.9 1798.9 982 1799.4C 982 1800 983.8 1804.9 985.9 1810.4C 991 1823.4 996.3 1838.7 1003.8 1862.5C 1009.6 1880.5 1010.7 1884.4 1014.5 1898.5C 1015.4 1901.8 1016.5 1905.4 1016.9 1906.5C 1017.4 1907.6 1018.1 1909.3 1018.4 1910.2C 1019.4 1913.5 1020.6 1912.1 1022.2 1905.7C 1023.1 1902.3 1026.4 1890.7 1029.4 1880C 1042.3 1835.1 1043.6 1829.5 1046.1 1805.5C 1048 1787.5 1045.4 1764.3 1039.6 1747.2C 1028.4 1714.3 1002.1 1691.8 963.5 1682.1C 959.6 1681.1 951.1 1678.9 938.5 1675.5C 935.2 1674.6 929.8 1673.1 926.5 1672.1C 923.2 1671 918 1669.5 915 1668.7C 912 1667.9 905.5 1666 900.5 1664.6C 895.6 1663.2 888.4 1661.1 884.5 1660C 880.7 1658.9 874.2 1657.1 870.3 1656C 866.3 1654.9 860 1653.1 856.3 1652.1C 845.8 1649.1 843.8 1648.8 844.2 1650z"/>
</g>
</g>
</svg>