<?xml version="1.0" encoding="UTF-8" standalone="yes"?>
<!-- Created with sK1/UniConvertor (http://sk1project.org/) -->
<svg xmlns="http://www.w3.org/2000/svg" xmlns:xlink="http://www.w3.org/1999/xlink"
  width="2520pt" height="2520pt" viewBox="0 0 2520 2520"
  fill-rule="evenodd">
<g>
<g>
<path style="stroke:none; fill:#000000" d="M 0 1260L 0 2520L 1260 2520L 2520 2520L 2520 1260L 2520 0L 1260 0L 0 0L 0 1260zM 870.5 485C 915.4 487.2 928.9 488.1 941.9 489.5C 949.4 490.3 961.8 491.7 969.5 492.5C 998.2 495.7 1036.6 501.3 1058 505.6C 1062.1 506.4 1073.6 508.6 1083.5 510.6C 1093.4 512.5 1106.2 515.2 1112 516.6C 1117.8 517.9 1127.5 520.2 1133.5 521.6C 1147.2 524.8 1195.1 537.6 1200.5 539.4C 1202.7 540.2 1209.2 542.2 1215 544C 1254.6 556 1308.4 575.4 1349.5 592.5C 1365.2 599 1365.2 599 1341.8 599C 1318.2 599 1311.9 600 1300.6 605.7C 1291.3 610.4 1280.7 621 1276.4 630C 1269.8 643.7 1270 639.9 1270 755.9C 1270 813.7 1269.6 861 1269.2 861C 1268.8 861 1267.6 859.5 1266.5 857.7C 1263.7 852.8 1253.3 842.4 1247.4 838.5C 1221.7 821.4 1191.7 808.7 1170.9 806.2C 1153.5 804 1137.7 810.4 1132.9 821.3C 1128.6 831.5 1124.2 844.7 1123 851.5C 1122.3 855.3 1120.4 862.3 1118.7 867C 1115.9 874.9 1115.6 876.8 1115 894.5C 1114.4 912.9 1114.3 913.7 1111.3 920C 1103.1 937.7 1100.6 948 1099.4 970C 1098.8 979.8 1099 981.1 1101.8 989.5C 1106 1002.1 1108.8 1007.8 1111.3 1009.4C 1112.5 1010.2 1117.9 1012 1123.2 1013.5C 1130.6 1015.5 1134.6 1016.1 1139.7 1015.9L 1146.5 1015.5L 1146.2 1020C 1146 1022.5 1145 1027.1 1143.9 1030.2C 1141.5 1037.4 1141.5 1038.2 1144.1 1045.7C 1148.2 1057.9 1157.7 1065 1172.8 1067.2C 1190.3 1069.6 1207.4 1062.1 1208.6 1051.4C 1208.8 1048.8 1213.5 1028.9 1216.1 1019.5C 1217.1 1015.6 1219.3 1007.3 1221 1001C 1227.4 977.5 1226.3 979.8 1235.4 970.6C 1244.9 961.2 1248.9 954.4 1249.7 946.3C 1250.1 943 1251.2 939.5 1252.6 937.4C 1253.9 935.5 1255 933.6 1255 933.3C 1255 933 1257.4 929.1 1260.4 924.6C 1263.3 920.2 1266.3 914.8 1267.1 912.7C 1267.8 910.7 1268.8 909 1269.2 909C 1269.7 909 1270 947.4 1269.9 994.2L 1269.9 1079.5L 1272.9 1081.6C 1277.4 1084.8 1282 1088.8 1282 1089.5C 1282 1089.9 1282.9 1091.5 1284.1 1093.2C 1286.5 1096.5 1290.8 1107.5 1292.1 1113.5C 1297.1 1137.2 1297.9 1144 1298.9 1173C 1299.8 1196.4 1299.7 1211.2 1298.5 1245C 1297.6 1268.4 1296.7 1288.8 1296.5 1290.5C 1294.8 1302.2 1293.9 1311.6 1293 1325.3C 1292.4 1334 1291.3 1343.6 1290.4 1346.8C 1289.5 1349.9 1288.4 1354.3 1287.8 1356.5C 1287.3 1358.7 1286.5 1361.3 1285.9 1362.2C 1284.4 1365 1271 1405.7 1271 1407.5C 1271 1408.3 1270.2 1410.2 1269.3 1411.6C 1267.9 1413.7 1267.9 1414.7 1268.8 1417.4C 1269.7 1419.8 1270 1458.6 1270 1570.7L 1270 1720.7L 1277.8 1722.4C 1294.7 1726.1 1298.2 1732.9 1297.6 1761C 1297.4 1770 1296.5 1779.9 1295.3 1787C 1294.1 1793.3 1292.9 1802.1 1292.6 1806.5C 1292.2 1810.9 1291.2 1817.9 1290.4 1822C 1289.5 1826.1 1288.2 1834 1287.5 1839.5C 1284.3 1861.9 1279 1881 1272.9 1891.7L 1269.9 1896.9L 1270.3 1985.2C 1270.6 2073.3 1270.6 2073.5 1272.8 2080.1C 1279 2098.6 1294.9 2113.1 1313.4 2117.4C 1319.4 2118.8 1353.7 2119 1637.3 2119C 1978.4 2119 1959.5 2119.2 1971.1 2114.1C 1986 2107.5 1998.2 2092.7 2002.5 2076.3C 2003.8 2071.3 2004 2010.9 2004 1573.3C 2004 1276 2004.4 1075.9 2004.9 1075.6C 2006.4 1074.6 2035.5 1108.7 2064.1 1144.6C 2079.6 1164.2 2104.6 1196.6 2108 1201.6C 2108.8 1202.8 2116.4 1213.4 2124.9 1225.2C 2185 1308.8 2245.7 1414 2269.6 1476C 2272.1 1482.3 2274.5 1488.4 2275 1489.5C 2278.8 1497.8 2290.7 1535.4 2296.5 1557.5C 2298.6 1565.2 2300.8 1573.7 2301.6 1576.5C 2302.3 1579.2 2303.6 1584.9 2304.5 1589C 2305.4 1593.1 2306.8 1599.4 2307.6 1603C 2309.2 1609.5 2309.9 1613.5 2313.8 1636.5C 2320.1 1673.8 2323.8 1712.9 2324.6 1751.5C 2325.3 1781.3 2324.4 1802.2 2321 1835.3C 2319.2 1853.8 2318.2 1860.8 2314.4 1882C 2308.6 1914.6 2296 1958.2 2284.4 1985.5C 2258.9 2045.6 2228.6 2090.8 2185.4 2133.6C 2165.2 2153.5 2140.6 2172.2 2119.5 2183.5C 2115.7 2185.6 2112.1 2187.6 2111.5 2188C 2111 2188.5 2104.2 2191.9 2096.5 2195.8C 2065.1 2211.5 2031 2224.8 1990 2237.3C 1964.7 2245 1952.4 2248.3 1928 2254C 1918.9 2256.2 1908.6 2258.6 1905 2259.4C 1862.1 2269.5 1774.4 2283.5 1726 2288C 1720.8 2288.5 1709.8 2289.6 1701.5 2290.4C 1693.3 2291.2 1676.2 2292.6 1663.5 2293.5C 1650.9 2294.3 1634 2295.5 1626 2296C 1561.8 2300.5 1424.8 2300.6 1356.5 2296.1C 1291.4 2291.8 1262 2289.4 1233.5 2286C 1224.7 2284.9 1213 2283.6 1207.5 2283C 1171.3 2279 1081.6 2265.1 1059.1 2259.9C 1056.6 2259.3 1049 2257.8 1042.1 2256.5C 1011.2 2250.5 963.5 2239.2 926.5 2228.9C 918.3 2226.7 910.2 2224.5 908.5 2224C 906.9 2223.6 903.3 2222.6 900.5 2221.7C 897.8 2220.8 890.8 2218.7 885 2216.9C 871.4 2212.8 831.2 2199.5 823.5 2196.5C 820.2 2195.3 813 2192.6 807.5 2190.5C 802 2188.5 793.9 2185.3 789.5 2183.5C 785.1 2181.7 776.3 2178.1 770 2175.6C 708.2 2150.3 644.9 2115.4 600.7 2082.2C 593.1 2076.4 586.5 2072.2 586.1 2072.6C 585.6 2073.1 584.5 2076.6 583.6 2080.5C 578.8 2099.9 561.5 2116.8 542.2 2120.9C 535.7 2122.3 482.6 2122.4 462 2121C 448 2120.1 447.2 2119.9 439.5 2116.2C 432.4 2112.7 422.2 2105.1 421.1 2102.6C 420.9 2102.1 419.7 2100.7 418.4 2099.5C 417.1 2098.3 416 2097 416 2096.7C 416 2096.4 414.7 2093.9 413.2 2091.3C 409.6 2085.3 405.6 2068.5 404.5 2055C 404.2 2051.4 403.1 2042.2 402 2034.5C 396.4 1994.3 394.8 1982.4 393.5 1970.8C 392.7 1963.9 391.6 1956.3 391.1 1954C 390.3 1950.5 390.5 1949.1 392.1 1946C 393.2 1943.9 395.3 1941.7 396.8 1941.2C 398.3 1940.6 408.3 1939.8 419 1939.4C 429.7 1939 441 1938.6 444 1938.5C 447 1938.3 459.9 1938.2 472.6 1938.1L 495.7 1938L 498.4 1934.1L 501.1 1930.2L 498 1924C 496.2 1920.5 493.3 1913.6 491.4 1908.6C 489.4 1903.6 487.5 1899.2 487.1 1898.7C 486.7 1898.3 485 1898.7 483.3 1899.5C 477.7 1902.3 469 1903.3 454.5 1902.7C 424.9 1901.5 395.1 1893.3 388 1884.3C 384.1 1879.4 385.8 1875.7 393.5 1872.3C 399.8 1869.5 432.5 1869.9 448 1872.9C 462.7 1875.8 469.1 1877.6 476.5 1881.1C 479.7 1882.6 482.6 1883.7 482.8 1883.5C 483 1883.3 482.2 1878.8 481 1873.3C 479.8 1867.9 478 1857.9 477.1 1851C 475.8 1841 475.1 1838.6 474 1838.9C 470.1 1840 457.2 1840.1 451.7 1839.1C 426.1 1834.2 397.7 1820.8 388.8 1809.2C 382.2 1800.8 387.6 1794 400.9 1794C 410.9 1794 433.4 1799.1 444 1803.8C 455.1 1808.7 460.7 1811.6 466.7 1815.6C 471.7 1818.9 473.6 1819.7 474.2 1818.8C 474.6 1818.1 475 1813.9 475 1809.5C 475 1805.1 475.7 1797 476.5 1791.5C 477.3 1786 478 1779.9 478 1778C 478 1774.6 477.8 1774.4 470.7 1771.8C 461.2 1768.1 452.2 1761.3 436.9 1746.1C 417.8 1727 407 1710.9 407 1701.5C 407 1690 416 1690.1 434 1701.8C 443.9 1708.3 468.3 1732 475 1741.8C 477.3 1745.2 479.7 1748 480.1 1748C 480.6 1748 481 1740.2 481 1730.6C 481 1716.4 480.7 1713 479.5 1712C 477.3 1710.2 475 1701.5 475 1695.1C 475.1 1670.2 488 1629.4 500 1615.7C 509.5 1604.9 516.8 1608.8 517.8 1625.3C 519.4 1652.2 501.6 1706 489 1712.5C 486.2 1714 486 1714.4 486 1720.3C 486 1723.7 485.7 1733 485.4 1741L 484.8 1755.5L 491.1 1748.5C 512.8 1724.6 541.2 1705.3 556.2 1704.2C 564.1 1703.6 566.4 1705.5 565.8 1712.1C 564.4 1725.8 531.4 1758.5 505.5 1771.6C 498.2 1775.3 495 1776.3 489.7 1776.7C 483.9 1777.2 482.9 1777.6 482.6 1779.4C 481 1787.2 479 1806.8 479 1813.7L 479 1822L 484.9 1817.2C 500.6 1804.6 524.1 1794.9 542.5 1793.3C 548.7 1792.8 551.2 1792 557.2 1788.6L 564.5 1784.5L 570.7 1772C 577.8 1757.9 581.3 1748.1 583.5 1736.7C 586.5 1721 584.7 1701.7 579.3 1691.9C 576.3 1686.2 572.9 1683.3 561.7 1676.5C 550.9 1670 550.3 1668.8 552.4 1659.7C 559.9 1628.8 562 1613.8 562 1592.5C 562 1563.3 557.9 1545.6 545.5 1520.5C 526.1 1481.2 484.1 1443.6 425.5 1413C 386.5 1392.6 363.5 1377.7 335.7 1354.6C 324.7 1345.4 293.1 1313.8 285.1 1304C 267.6 1282.2 254.3 1263.3 243.1 1244.1C 213 1192.3 195 1141.1 185.1 1079.5C 171.8 995.9 181.8 907.4 213.7 826.5C 250.1 734.2 315.2 654.5 401.5 596.5C 466 553.2 542.8 521.7 629 503.1C 643.1 500 674.2 494.7 690.5 492.6C 726.8 487.9 725.9 488 783 484.7C 796.5 483.9 852.3 484.1 870.5 485zM 1910.7 743C 1914.6 744.5 1919.8 750.4 1920.5 754.3C 1920.9 756.1 1921 765.3 1920.8 774.7C 1920.5 793.4 1920.1 794.6 1913.6 799.4C 1910.9 801.5 1909.9 801.5 1829.7 801.8C 1776.2 802 1747.3 801.7 1745 801.1C 1740.2 799.7 1736.5 795.5 1735.1 789.8C 1733.6 783.7 1733.7 758.9 1735.2 753.6C 1736.6 748.7 1739.4 745.2 1743.5 743.4C 1747.4 741.7 1906.1 741.3 1910.7 743zM 1559.1 763.9C 1562.3 767.1 1563 768.5 1563 771.7C 1563 775.6 1560.7 779.7 1557 782.7C 1555.9 783.7 1535.9 783.9 1471.2 784L 1387 784L 1383.2 780.6C 1379.8 777.5 1379.5 776.7 1379.5 772C 1379.5 767.3 1379.8 766.5 1383.2 763.4L 1387 760L 1471.1 760L 1555.2 760L 1559.1 763.9zM 1570.1 855C 1572 855.5 1574.9 857.4 1576.6 859.1L 1579.5 862.1L 1579.5 886L 1579.5 909.8L 1577 912.5C 1571.8 918.2 1576.2 918 1471.1 918C 1406.7 918 1373.2 917.7 1371.4 917C 1369.9 916.4 1367.3 914.6 1365.6 912.9L 1362.5 909.9L 1362.5 886L 1362.5 862.1L 1365.5 859C 1367.1 857.3 1369.8 855.5 1371.5 855.1C 1375.8 853.8 1565.6 853.8 1570.1 855zM 1879.7 954.2C 1885.1 956.9 1889.5 961.2 1892.1 966.2C 1894 969.8 1894 977.6 1894 1339.8L 1894 1709.6L 1891.1 1714.2C 1887.8 1719.4 1883.3 1723 1877.2 1725.3C 1873.3 1726.9 1853.9 1727 1636.9 1727L 1400.9 1727L 1395.7 1724.5C 1388.8 1721.3 1385.7 1718.3 1382.3 1711.9L 1379.5 1706.5L 1379.5 1339L 1379.5 971.5L 1382.2 966.5C 1385.4 960.5 1387.9 958 1394.4 954.6L 1399.3 952L 1637.3 952L 1875.3 952L 1879.7 954.2zM 1877.3 1796.4C 1882.6 1798.3 1887.3 1802.2 1890.9 1807.7L 1894.1 1812.4L 1893.8 1865.5L 1893.5 1918.6L 1889.9 1923.5C 1887.4 1927.1 1884.7 1929.4 1880.4 1931.5L 1874.5 1934.5L 1637.5 1934.5C 1410.4 1934.5 1400.3 1934.4 1396 1932.7C 1390.3 1930.4 1385.5 1925.8 1382.2 1919.5L 1379.5 1914.5L 1379.5 1865.5C 1379.5 1819 1379.6 1816.2 1381.5 1812C 1385.1 1803.6 1391.6 1797.5 1398.5 1795.7C 1399.6 1795.5 1506.9 1795.2 1637 1795.2C 1832.2 1795.1 1874.2 1795.3 1877.3 1796.4z"/>
<path style="stroke:none; fill:#000000" d="M 1054.1 1186.1C 1045.4 1195.2 1034.8 1220.6 1028.1 1248.7C 1027 1253.2 1025.9 1257.3 1025.7 1257.7C 1025.2 1258.5 1019.6 1286.2 1016.1 1305.5C 1013.9 1317.7 1012.2 1329.6 1011.5 1338.2C 1011.3 1341.3 1011 1344.2 1010.9 1344.7C 1010.4 1347.3 1011.8 1347.8 1023.1 1348.9C 1029.8 1349.6 1035.3 1350 1035.5 1349.8C 1035.8 1349.4 1037.5 1335.5 1040 1311C 1044.3 1270.2 1047.5 1243.6 1049.6 1230C 1053.1 1207.1 1055.1 1195.2 1056.1 1190.8C 1057.5 1184.4 1057 1183.1 1054.1 1186.1zM 1027 1345C 1027 1345.5 1026.1 1346 1025 1346C 1023.9 1346 1023 1345.5 1023 1345C 1023 1344.4 1023.9 1344 1025 1344C 1026.1 1344 1027 1344.4 1027 1345z"/>
<path style="stroke:none; fill:#000000" d="M 999.5 1402.7C 999.2 1404.3 998.1 1408.6 997 1412.5C 996 1416.3 994.6 1422 994 1425C 992.2 1433.5 989.7 1441.4 988.6 1442.6C 988 1443.2 981 1445.5 973 1447.6C 965 1449.6 958.2 1451.6 957.9 1451.9C 957.5 1452.2 957.9 1456.5 958.6 1461.5C 959.9 1469.7 959.8 1471.9 957.9 1486C 956.8 1494.5 955.4 1504.5 954.9 1508.3C 954.4 1512 953.6 1515.9 953 1516.9C 952.2 1518.4 930.9 1574.4 925.6 1589C 924 1593.2 914.7 1618 905.7 1641.5C 897.9 1662.3 896.6 1667.3 896.7 1677.5C 896.9 1695.1 902.7 1708.8 915.5 1721.6C 927.1 1733.3 934.2 1736.4 961.5 1741.9C 967 1743.1 979.2 1745.6 988.5 1747.6C 997.9 1749.5 1009.6 1752 1014.5 1753C 1019.5 1754.1 1031.2 1756.5 1040.5 1758.5C 1049.9 1760.5 1060.8 1762.7 1064.9 1763.5C 1069 1764.3 1072.7 1765.5 1073.1 1766.1C 1073.4 1766.7 1074 1772.2 1074.4 1778.4C 1074.8 1784.5 1075.5 1794.4 1076 1800.5C 1076.6 1806.5 1077.5 1818.5 1078 1827C 1078.5 1835.5 1079.4 1848.1 1080 1855C 1080.5 1861.9 1081.9 1880.3 1083 1896C 1086.8 1949.2 1086.2 1945.7 1097.2 1975.2C 1097.7 1976.8 1099.3 1978.3 1101.1 1978.9C 1104.4 1980 1104.4 1980.4 1103 1988.3L 1101.9 1993.9L 1106.6 2002.1C 1112.8 2012.8 1115.9 2020.6 1116 2025.2C 1116 2031.6 1121 2032.6 1131.1 2028.5C 1138.5 2025.5 1145.6 2019.9 1147.8 2015.4C 1148.6 2013.5 1149.7 2012 1150.1 2012C 1150.5 2012 1151.2 2009.9 1151.5 2007.2C 1151.9 2004.6 1153.1 2001.2 1154.3 1999.5L 1156.4 1996.6L 1154.1 1990.5C 1150.6 1981.2 1150.5 1980.3 1152.8 1979.6C 1153.9 1979.2 1155.3 1977.7 1155.8 1976.2C 1157.6 1971.6 1164.9 1947.7 1165.9 1943C 1166.4 1940.5 1167.6 1904.7 1168.5 1863.5C 1169.7 1809.3 1170.5 1788.2 1171.3 1787.3C 1172.2 1786.4 1173.7 1786.4 1177.3 1787.2C 1183.3 1788.4 1201.7 1786.6 1204.1 1784.4C 1204.9 1783.6 1206.3 1783 1207.1 1783C 1207.9 1783 1210.3 1781.9 1212.5 1780.5C 1217.2 1777.6 1219.6 1777.4 1224.9 1779.6C 1228.6 1781.1 1229.1 1781 1233.9 1779C 1240 1776.3 1245.4 1770.6 1247.1 1765C 1248.2 1761.5 1248.1 1760.1 1246.6 1755.3C 1245.1 1750.6 1243.3 1748.1 1235.6 1740.3C 1230.6 1735.1 1225.6 1730.7 1224.4 1730.4C 1223.3 1730.1 1222 1728.6 1221.4 1727C 1220.9 1725.3 1217 1721.1 1211.7 1716.7C 1204 1710.1 1201.6 1708.7 1190.7 1704.5C 1184 1701.9 1178.1 1699.4 1177.6 1698.9C 1176.2 1697.7 1179.4 1652.5 1181.6 1640.3C 1181.8 1639.1 1184.4 1636.3 1187.2 1634C 1197.8 1625.7 1206.1 1616.7 1209.6 1609.7C 1215.3 1598.5 1216 1594.1 1216 1569.4C 1216 1550.4 1216.3 1546.1 1218 1539C 1220.4 1529.7 1220 1528.6 1214.2 1527.5C 1212.2 1527.1 1210 1526.4 1209.4 1525.9C 1208.7 1525.4 1205 1524.1 1201.2 1523C 1197.3 1521.9 1192.3 1520.1 1190.2 1519L 1186.3 1516.9L 1188.2 1508.7C 1189.3 1504.2 1191 1497.3 1192 1493.5C 1194.9 1483 1199 1466.3 1200.5 1459C 1201.2 1455.4 1202.3 1451.4 1202.8 1450C 1203.5 1448.3 1203.4 1446.7 1202.5 1445C 1201.8 1443.6 1201 1440 1200.6 1437C 1200.2 1434 1199.5 1430.9 1199.1 1430.1C 1198.4 1429.1 1191.5 1428.8 1164.9 1428.5C 1146.5 1428.4 1126.1 1427.7 1119.5 1427.1C 1106.1 1425.8 1085.1 1422.1 1071.5 1418.5C 1054.1 1414.1 1038.4 1409.8 1030.5 1407.5C 1000.9 1398.7 1000.3 1398.6 999.5 1402.7zM 1068 1543.2C 1068 1545.6 1068.5 1556 1069 1566.5C 1069.5 1576.9 1070.4 1599.1 1071 1615.8C 1071.5 1632.5 1072.3 1652.6 1072.7 1660.6C 1073.4 1677.5 1074.7 1676.4 1059.3 1672.5C 1053.9 1671.2 1041.6 1668.2 1032 1665.9C 1022.4 1663.6 1014.2 1661.5 1013.8 1661.1C 1013.4 1660.8 1016.9 1651.7 1021.6 1641C 1034.4 1611.7 1053.5 1568.2 1060.3 1552.7C 1063.6 1545.2 1066.7 1539 1067.2 1539C 1067.6 1539 1068 1540.9 1068 1543.2z"/>
<path style="stroke:none; fill:#000000" d="M 510 1836.3C 499.9 1839.8 497.4 1840.3 489.3 1840.3C 484.2 1840.3 480 1840.7 480 1841.2C 480 1845.4 485.6 1876.6 486.7 1878.3C 487 1878.7 490.9 1875.6 495.3 1871.3C 499.8 1867 507.4 1861 512.1 1858L 520.8 1852.5L 521.4 1845.5C 521.8 1841.7 522.3 1837 522.7 1835.2C 523 1833.5 522.8 1832.1 522.4 1832.1C 521.9 1832.2 516.3 1834.1 510 1836.3z"/>
<path style="stroke:none; fill:#000000" d="M 518.5 1891.2C 513.6 1893.8 499.6 1898 495.7 1898C 493 1898 492.9 1898.2 493.5 1901.2C 494.8 1907.4 502.8 1924.5 504.4 1924.5C 505.7 1924.5 513.8 1914.4 521.7 1902.9C 523.4 1900.4 525 1896.5 525.4 1893.7C 526 1889.6 525.9 1889 524.3 1889C 523.3 1889.1 520.7 1890 518.5 1891.2z"/>
<path style="stroke:none; fill:#000000" d="M 1648.1 1144.9C 1636.1 1151.3 1640.8 1170 1654.3 1170C 1664.9 1170 1671.2 1159.5 1666.2 1150.1C 1662.7 1143.6 1654.8 1141.3 1648.1 1144.9z"/>
<path style="stroke:none; fill:#000000" d="M 1607.5 1146.2C 1602 1149.4 1599.1 1156.7 1600.9 1162.3C 1604.4 1172.8 1618.7 1175 1624.7 1166.1C 1627.3 1162.3 1627.7 1156 1625.7 1152C 1622.8 1146.2 1612.9 1143.1 1607.5 1146.2z"/>
<path style="stroke:none; fill:#000000" d="M 1668.9 1180.3C 1660 1186.2 1660.3 1197.5 1669.3 1203C 1675.3 1206.7 1683.6 1204.7 1687.5 1198.6C 1689.7 1195.2 1689.8 1187.8 1687.6 1184.5C 1683.4 1178.1 1675 1176.2 1668.9 1180.3z"/>
<path style="stroke:none; fill:#000000" d="M 1587.7 1182.1C 1576.3 1190.7 1583.4 1208.7 1597.5 1206.6C 1603.5 1205.6 1609 1199.4 1609 1193.5C 1609 1189.8 1605.4 1183.7 1602 1181.7C 1598.1 1179.3 1591.2 1179.6 1587.7 1182.1z"/>
<path style="stroke:none; fill:#000000" d="M 1651.3 1214.5C 1641.9 1218.5 1641.7 1233.7 1650.9 1238.5C 1662.8 1244.6 1675.5 1231.8 1669.2 1220.1C 1665.8 1213.9 1658.2 1211.5 1651.3 1214.5z"/>
<path style="stroke:none; fill:#000000" d="M 1608.9 1217.3C 1600.2 1223.2 1602.4 1237.7 1612.5 1241C 1621.6 1244 1630 1237.5 1630 1227.6C 1630 1223.3 1629.6 1222.3 1626.1 1218.9C 1622.6 1215.4 1621.7 1215 1617.3 1215C 1613.7 1215 1611.3 1215.7 1608.9 1217.3z"/>
<path style="stroke:none; fill:#000000" d="M 1667.8 1459.5C 1665.3 1460.9 1663.5 1464.7 1662.8 1470C 1662.6 1471.7 1661.8 1472.6 1660.3 1472.8C 1657.3 1473.2 1657.4 1474.8 1660.5 1476L 1663 1477L 1663 1492.5C 1663 1505.6 1663.2 1508 1664.5 1508C 1665.8 1508 1666 1505.7 1666 1493.2C 1666 1485.1 1666.4 1478 1666.8 1477.3C 1667.2 1476.7 1669.5 1476 1671.9 1475.8C 1678.3 1475.4 1678.5 1473 1672.2 1473C 1666.6 1473 1665.9 1472.2 1667.1 1467.2C 1668 1463.1 1670.6 1461 1674.5 1461.1C 1679.2 1461.3 1679.6 1461 1677.6 1459.5C 1675.1 1457.6 1671.3 1457.6 1667.8 1459.5z"/>
<path style="stroke:none; fill:#000000" d="M 1558.5 1461.9C 1544.8 1468.3 1540.5 1487.5 1550.1 1499.6C 1557.7 1509.2 1569.5 1511.3 1578.8 1504.6C 1582.8 1501.8 1584 1502 1584 1505.6C 1584 1507.2 1584.5 1508 1585.3 1507.7C 1586.1 1507.5 1586.5 1504.3 1586.5 1496.4L 1586.5 1485.5L 1580.1 1485.5C 1571.9 1485.5 1570.3 1487.7 1578.2 1488.2L 1583.5 1488.5L 1583.8 1492.1C 1584.4 1499 1576.8 1505 1567.6 1505C 1559.5 1505 1554.2 1501.7 1550.9 1494.5C 1548.7 1489.7 1548.4 1479.3 1550.4 1474.7C 1552.6 1469.7 1557.3 1465.3 1561.9 1464C 1568.6 1462.2 1577.7 1464.8 1580 1469C 1581.3 1471.4 1584 1471.7 1584 1469.4C 1584 1468.6 1582.7 1466.6 1581.2 1465C 1576.1 1460 1565.7 1458.5 1558.5 1461.9z"/>
<path style="stroke:none; fill:#000000" d="M 1638.8 1466.7C 1638.5 1471.8 1638.2 1472.5 1636.3 1472.8C 1633.3 1473.2 1633.4 1474.8 1636.5 1476L 1639 1477L 1639 1491.5L 1639 1506L 1642.4 1507.7C 1645 1508.9 1646.7 1509.1 1649.1 1508.4C 1654.3 1506.9 1653.9 1505 1648.6 1505C 1644.5 1505 1643.8 1504.7 1643 1502.4C 1641.8 1499.4 1641.7 1479.1 1642.8 1477.3C 1643.2 1476.7 1645.1 1476 1646.9 1475.8C 1651.9 1475.3 1652.2 1473 1647.2 1473C 1642.6 1473 1642 1472.1 1642 1465.4C 1642 1462.2 1641.6 1461 1640.5 1461C 1639.5 1461 1639 1462.5 1638.8 1466.7z"/>
<path style="stroke:none; fill:#000000" d="M 1602.2 1476C 1596.7 1480 1594.7 1484.1 1594.7 1491.3C 1594.9 1504 1605.6 1511.6 1618.1 1507.9C 1622.9 1506.4 1626.9 1502.5 1625.2 1500.8C 1624.3 1499.9 1623.6 1500.3 1622.1 1502.2C 1619.7 1505.2 1613 1507.2 1609.2 1506C 1603.9 1504.4 1602.9 1503.7 1600.4 1499.4C 1596.2 1492.3 1596.7 1492 1614 1492L 1629 1492L 1629 1488.8C 1629 1484.5 1624.8 1477.6 1620.5 1475.1C 1614.9 1471.8 1607.4 1472.2 1602.2 1476zM 1617.4 1476.5C 1621.1 1478.3 1624.6 1482.5 1625.6 1486.4L 1626.2 1489L 1612 1489L 1597.8 1489L 1598.4 1486.2C 1599.4 1482.2 1602.2 1478.7 1606.1 1476.8C 1610.3 1474.6 1613.2 1474.5 1617.4 1476.5z"/>
<path style="stroke:none; fill:#000000" d="M 1688.3 1475.3C 1682 1479.6 1680.5 1482.6 1680.5 1491C 1680.5 1497.7 1680.8 1498.9 1683.3 1502.2C 1690.4 1511.4 1704.4 1511 1711 1501.4C 1717 1492.8 1714.2 1480.3 1705.3 1475C 1700.6 1472.2 1692.6 1472.4 1688.3 1475.3zM 1703.7 1478C 1707.5 1480.3 1711 1486.6 1711 1491.3C 1711 1493.2 1709.8 1496.5 1708.1 1499.3C 1698.6 1514.2 1677.6 1501 1684.8 1484.7C 1688.4 1476.7 1696.7 1473.7 1703.7 1478z"/>
</g>
</g>
</svg>