<?xml version="1.0" encoding="UTF-8" standalone="yes"?>
<!-- Created with sK1/UniConvertor (http://sk1project.org/) -->
<svg xmlns="http://www.w3.org/2000/svg" xmlns:xlink="http://www.w3.org/1999/xlink"
  width="2160pt" height="2160pt" viewBox="0 0 2160 2160"
  fill-rule="evenodd">
<g>
<g>
<path style="stroke:none; fill:#000000" d="M 0 1080L 0 2160L 1080 2160L 2160 2160L 2160 1080L 2160 0L 1080 0L 0 0L 0 1080zM 831 409.6C 914.8 415.1 996.5 428.7 1071.5 449.6C 1100 457.6 1104.1 458.8 1138 470.1C 1168.7 480.2 1179.2 484.1 1210.5 496.7L 1227.5 503.5L 1294 504L 1360.5 504.5L 1367.2 507.8C 1374.9 511.6 1380.2 517 1383.9 524.9C 1386.5 530.4 1386.5 531 1387 556.7L 1387.5 582.9L 1401.4 591C 1416.4 599.8 1445.4 617.9 1458.9 626.8C 1466.7 632 1467.1 632.5 1464.9 633.3C 1463.6 633.8 1459.1 635.8 1455 637.8C 1445.5 642.3 1435.2 652.2 1431.3 660.6C 1428.7 666.3 1428.7 666.4 1429.3 684.5C 1429.9 702 1432 717 1434.2 719.7C 1435.7 721.5 1437 721.3 1437 719.2C 1437 716.1 1441.7 707.4 1444.6 705.1C 1447.4 702.9 1447.8 702.9 1467 703.5C 1484.6 704.1 1487.2 704 1494.1 702.1C 1503.8 699.6 1513.8 694.7 1526.2 686.4C 1537.9 678.5 1538.8 678.6 1542.1 689C 1544.2 695.4 1544.6 696 1547.1 696C 1548.6 696 1551.1 695.5 1552.6 694.9C 1554.2 694.4 1558.8 693.9 1563 693.9C 1574.7 693.8 1582.7 698 1589.8 707.8C 1594.4 714.4 1598.9 729.2 1599.7 740.5L 1600.3 749.7L 1594.7 753.6C 1591.6 755.7 1588.5 758.7 1587.9 760.2C 1586.7 763.1 1587.3 771.2 1590.4 794.5C 1591.2 800 1591.6 804.8 1591.4 805.2C 1591.1 805.6 1585.2 809.8 1578.2 814.5C 1571.2 819.2 1558.3 828 1549.5 834.1C 1526.2 850.1 1523.4 851.9 1516.4 855.2C 1508.7 858.8 1506.1 858.5 1499.1 852.9C 1491.2 846.6 1484.6 847.9 1480.1 856.7C 1478.6 859.7 1477.1 859.6 1472.2 856C 1469.9 854.3 1467.6 853 1467.1 853C 1466 853 1460 843.5 1460 841.6C 1460 840.9 1459.1 839.5 1458 838.5C 1456.1 836.8 1456.1 836.8 1456.6 843.6C 1457.2 852.1 1457 851 1461.5 865.5C 1464.2 874.5 1466.2 879 1469.6 883.7C 1475.7 892.2 1490 907.2 1494.3 909.5C 1497.7 911.3 1498.3 911.3 1512.2 909.6C 1522.6 908.4 1527.7 907.3 1531 905.6C 1533.5 904.3 1537.3 902.4 1539.5 901.2C 1541.7 900.1 1544.8 898.6 1546.3 897.9C 1552.7 895 1588.4 862.5 1604.6 844.9C 1609.7 839.4 1610.8 837.6 1611.3 833.6C 1611.7 831 1611.6 828.2 1611.1 827.2C 1610.6 826.3 1609.2 819.2 1608.1 811.5C 1606.9 803.8 1605.1 793 1604 787.5C 1603 782 1602.1 775.7 1602.1 773.5C 1602 765.3 1607.6 757.9 1616.7 753.8C 1619.9 752.4 1622.5 749.8 1627.6 743C 1631.3 738 1634.5 734.1 1634.6 734.3C 1634.8 734.5 1634.3 738.9 1632.5 752.5L 1631.9 757.5L 1639.7 764.1C 1663.3 784 1714.4 832.4 1741.7 860.8C 1820.6 942.6 1877.8 1013 1934.9 1098.5C 1989.9 1181 2029.1 1256.5 2048 1316.5C 2059.9 1354.3 2064.2 1371.6 2073 1418.5C 2075.6 1432.4 2079.4 1463.4 2081.1 1484C 2082.7 1502.8 2082.7 1560.6 2081.1 1578C 2072.2 1677.3 2043.4 1755.2 1991.2 1821.4C 1955.4 1866.8 1918.7 1894.7 1861.2 1920.1C 1810.2 1942.7 1740.5 1962.5 1666.5 1975.5C 1606.2 1986.1 1577.2 1989.7 1508 1995.4C 1424.1 2002.4 1315 2003.4 1227 1998C 1179.7 1995 1119.6 1989.5 1085 1984.9C 1065.6 1982.3 1041.7 1978.9 1034 1977.5C 1029.3 1976.7 1018.3 1974.9 1009.5 1973.5C 1000.7 1972.1 991.3 1970.5 988.5 1970C 985.8 1969.4 979.7 1968.3 975 1967.5C 970.3 1966.6 963.6 1965.3 960 1964.5C 893.5 1950.1 880.7 1947 834 1933.6C 795.4 1922.6 738.5 1902.3 703 1886.8C 663.5 1869.6 614.7 1843.2 586.6 1823.9C 580.6 1819.7 575.6 1816.9 574.7 1817.3C 573.9 1817.6 572.9 1819.5 572.6 1821.5C 571.6 1826.7 567.7 1835.2 562.5 1843.6C 556 1854 542.1 1863.6 526 1868.9C 520 1870.9 517.6 1871 473.4 1871C 447.9 1871 426.9 1870.6 426.6 1870.1C 426.3 1869.7 424.8 1869 423.3 1868.7C 418 1867.7 403.5 1860.3 397 1855.4C 388.4 1848.9 386.6 1846.9 382.1 1838C 377.1 1828.2 375.5 1822.8 373.5 1809.5C 372.6 1803.4 371.1 1794.9 370.3 1790.5C 368.6 1781.7 366.8 1768.6 364.5 1748C 361.7 1722.2 358.1 1694 357.5 1692.3C 357.3 1691.6 356.8 1687.3 356.4 1682.6L 355.8 1674.2L 359.6 1670.2L 363.5 1666.1L 404.5 1665.1C 427.1 1664.5 451.9 1664 459.6 1664L 473.7 1664L 476.4 1659.9C 479.5 1655.3 479.4 1654.8 474.5 1644.9C 472.6 1641.3 469.7 1634.1 467.9 1628.9C 466.1 1623.7 464.5 1619.3 464.4 1619.1C 464.2 1618.9 462.1 1619.7 459.6 1620.9C 452.8 1624.2 443.3 1625.3 427 1624.7C 394.3 1623.3 359.9 1613.7 353 1604C 350.3 1600.2 350.5 1596.8 353.5 1594C 365 1583.2 427.8 1588.1 454.9 1602C 457 1603 459 1603.7 459.3 1603.4C 459.5 1603.1 458.9 1599.7 457.9 1595.7C 456.3 1589.3 453.2 1571.4 451.5 1557.7L 450.9 1552.9L 446.2 1553.7C 443.6 1554.1 438.7 1554.4 435.4 1554.4C 411.1 1553.9 370.4 1537.8 356.7 1523.1C 349.2 1515.1 349.2 1509.1 356.5 1505.5C 370.7 1498.6 418.3 1511.3 442.6 1528.6C 446 1531 449 1532.6 449.4 1532.3C 449.7 1531.9 450 1528.3 450 1524.1C 450 1519.9 450.9 1509.5 452 1501C 454.6 1480.6 454.7 1481.3 450.8 1480.5C 431.1 1476.2 392 1439.3 378.3 1412C 371.3 1398.3 372.9 1390.4 382.4 1390.6C 396.9 1390.9 431.6 1419.1 451 1446.3C 453.3 1449.4 455.6 1451.8 456.1 1451.5C 457.4 1450.7 457.3 1413.3 456 1412.5C 454 1411.2 451.8 1405.6 450.9 1399.1C 448.4 1381.6 456.9 1344.5 469.1 1319.4C 477 1303.1 485.5 1295.2 491.8 1298.2C 495.8 1300.1 497.3 1304.4 497.8 1314.7C 498.7 1333.9 493.3 1360.8 483.9 1383.5C 477.9 1398.2 473 1406.2 467 1411.2L 462.6 1414.8L 462.3 1424.7C 462.2 1430.1 461.9 1440.6 461.6 1448L 461.1 1461.5L 464.8 1457C 485.1 1432.4 515.8 1409.4 536.4 1403.5C 546 1400.7 552 1403.2 552 1409.9C 551.9 1417.6 545.8 1427.1 531.5 1441.9C 515.3 1458.6 498.2 1471.6 482.4 1479.2C 475 1482.8 472.3 1483.5 466.3 1483.9L 459.1 1484.2L 458.5 1488.4C 458.2 1490.6 457.3 1497.6 456.5 1503.8C 454.9 1515.9 454.5 1534 455.8 1534C 456.3 1534 457.7 1532.8 459.1 1531.4C 462.2 1528 475.8 1519 483.5 1515.3C 497.3 1508.5 511.7 1504.2 525 1503C 532.7 1502.4 534.3 1501.8 542 1497.4L 550.5 1492.5L 557.2 1479C 564.6 1464.3 570.3 1448.2 572 1438C 572.5 1434.4 573 1427 573 1421.5C 572.9 1396.3 567.7 1384.3 552.6 1375.3C 536.7 1365.8 532.6 1361.2 531.4 1351.5C 531.1 1348.2 530.1 1343.8 529.2 1341.6C 527.4 1337.1 527.3 1333.4 528.4 1313.5C 529.2 1299.4 529.1 1298.1 527.1 1292.8C 524.5 1286 519.3 1281 510.6 1276.9C 504 1273.8 490.4 1270 486 1270C 484.1 1270 480.8 1268 475.4 1263.4C 466.7 1256.2 448.9 1243.2 442.3 1239.3L 438 1236.8L 438 1224.1C 438 1176 419.8 1129.3 394.5 1112.5C 375.5 1099.9 352.3 1093 329.5 1093C 303 1093.1 290.1 1101.9 290 1119.8L 290 1126.2L 285.7 1120.8C 278.9 1112.5 266.9 1095.9 262.5 1088.9C 260.3 1085.4 256.7 1079.6 254.5 1076C 248.5 1066.3 233.7 1036.9 229.2 1025.5C 216 992.2 206.8 958.9 202.9 930C 196.2 880 196.2 850.2 203 800.5C 208.5 760.2 222.7 715.5 242.9 675.2C 280.5 600.2 336.2 540.3 411.6 494.2C 450.3 470.6 498.3 449.7 544.5 436.4C 587 424.2 625.2 417 676.5 411.5C 719.1 407 780 406.2 831 409.6z"/>
<path style="stroke:none; fill:#000000" d="M 474 810L 474 850L 913.8 849.8L 1353.5 849.5L 1353.5 810L 1353.5 770.5L 913.8 770.2L 474 770L 474 810zM 505.3 782.4C 508.9 783.9 514 789.3 514 791.6C 514 792.4 512 794 509.5 795.1L 505 797.1L 502.2 793.9C 499.9 791.3 498.9 790.8 496.7 791.4C 493.9 792.1 492.2 795.8 493.5 798C 493.9 798.7 497.3 801.1 500.9 803.5C 513.4 811.6 517.8 819.1 515 827.4C 512.6 834.7 500.6 838.9 490.3 836.1C 486.1 834.9 478.6 827.8 479.3 825.6C 479.5 825 481.7 823.4 484.2 822L 488.8 819.6L 492.4 822.8C 496.6 826.5 496.8 826.5 499.8 824.4C 503.8 821.6 502.3 819 492.5 812.4C 487.6 809 482.7 804.9 481.8 803.4C 479.4 799.5 479.5 792.3 482 788.2C 485.8 782 497.5 779.1 505.3 782.4zM 559.8 786.7L 560.1 791.9L 548.8 792.2L 537.5 792.5L 537.2 795.4C 537 796.9 537.1 799.3 537.4 800.6C 538 802.7 538.6 802.9 545.8 803.2L 553.5 803.5L 553.5 809L 553.5 814.5L 545.5 815L 537.5 815.5L 537.5 820L 537.5 824.5L 548.5 825L 559.5 825.5L 559.5 831L 559.5 836.5L 542.8 836.8L 526 837L 526 809L 526 781L 542.8 781.2L 559.5 781.5L 559.8 786.7zM 605.7 792.3C 609.2 803.7 618 835.5 618 836.5C 618 837.6 606.1 837 605.3 835.8C 604.9 835.1 603.6 831.8 602.4 828.5L 600.3 822.5L 595 822.2C 592.1 822 589.2 822.4 588.6 823C 588 823.6 586.6 826.9 585.4 830.3L 583.3 836.5L 577.5 836.8C 574.3 837 571.3 836.7 570.8 836.2C 570.2 835.6 571.1 831.2 573 824.9C 574.7 819.2 578.2 807.5 580.6 799C 583 790.5 585.2 782.9 585.5 782.2C 585.8 781.3 588.2 781 594.2 781.2L 602.5 781.5L 605.7 792.3zM 655.8 782.9C 662.4 786.2 665.6 796.6 662.6 804.5C 661 808.6 656.8 813.2 653.9 814.2C 653.1 814.5 654.5 818 657.8 824.3C 660.7 829.6 663 834.7 663 835.5C 663 836.8 661.9 837 656.8 836.8L 650.6 836.5L 647.1 828.2C 645.1 823.7 643.2 820 642.8 820C 642.4 820 642 823.7 641.8 828.2L 641.5 836.5L 636 836.5L 630.5 836.5L 630.2 810C 630.1 795.4 630.2 783 630.5 782.3C 630.8 781.4 633.9 781 641.5 781C 649.9 781 652.8 781.4 655.8 782.9zM 704.6 783.1C 709 785.2 713 790.2 713 793.7C 713 795.6 708.4 799 705.7 799C 704.8 799 702.8 797.6 701.2 796C 698 792.9 694.4 792.2 690.9 794C 687.5 795.9 686 800.4 686 809C 686 820.8 688.7 825 696.1 825C 698.3 825 700.3 824.1 702.2 822.3L 705 819.6L 708.8 821.7C 713.8 824.6 714.1 827.3 709.6 831.5C 704.9 835.9 700.2 837.4 692.4 836.7C 684.5 836.1 679.7 832.9 676.7 826.1C 673.8 819.8 673.6 800.9 676.3 793.9C 680.6 782.7 693.6 777.7 704.6 783.1zM 736 792L 736.5 802.5L 743.9 802.8C 749.2 803 751.6 802.7 752.1 801.8C 752.6 801.1 753 796.1 753 790.7L 753 780.9L 758.3 781.2L 763.5 781.5L 763.5 809L 763.5 836.5L 758.3 836.8L 753.1 837.1L 752.8 826.3L 752.5 815.5L 744.5 815.5L 736.5 815.5L 736 826L 735.5 836.5L 730 836.5L 724.5 836.5L 724.2 810C 724.1 795.4 724.2 782.9 724.5 782.2C 724.8 781.3 726.6 781 730.2 781.2L 735.5 781.5L 736 792zM 830 786.5L 830 791.9L 819.3 792.2L 808.5 792.5L 808.2 797.7L 807.9 803L 815.8 803C 824.5 803 825 803.4 825 810C 825 814.1 823.2 815 815.3 815L 808.1 815L 807.8 825.7L 807.5 836.5L 802 836.5L 796.5 836.5L 796.2 810C 796.1 795.4 796.2 783 796.5 782.3C 796.8 781.3 801.1 781 813.5 781L 830 781L 830 786.5zM 868.5 782.9C 878 787.2 881.6 795.6 880.8 811.9C 880.1 825.4 876.6 831.8 867.8 835.5C 857.4 839.8 845.4 835 841 824.8C 839.4 821 839 818 839 808.5C 839 795.8 839.9 792.3 844.6 787.7C 851.2 781.1 860.5 779.2 868.5 782.9zM 915 782.8C 919.4 785 922 789.5 922.7 796.4C 923.4 803 920.3 810.3 915.9 812.9C 914.3 813.8 913 814.7 913 815C 913 815.3 915.2 820 917.9 825.5C 920.6 831 922.6 835.8 922.4 836.2C 922.1 836.7 919.3 837 916.1 837C 910.4 837 910.2 836.9 909 833.7C 904.9 823.4 902.6 819 901.9 820.2C 901.4 820.9 901 825 901 829.2L 901 837L 895.5 837L 890 837L 890 809L 890 781L 900.8 781C 909 781 912.3 781.4 915 782.8zM 991.4 789.2C 995.8 803.9 1004 833.9 1004 835.5C 1004 836.8 1002.9 837 997.8 836.8L 991.5 836.5L 989 829.5L 986.4 822.5L 980.5 822.5L 974.5 822.5L 972.5 828.5C 969.7 837 969.7 837 962.9 837C 955.6 837 955.6 837.1 960.9 820C 963.1 813.1 966.3 802.3 968 796C 972.5 780 971.6 781 981 781L 988.9 781L 991.4 789.2zM 1027.4 783.2C 1028.2 784.5 1031.8 791.1 1035.4 798L 1042 810.5L 1042 797C 1042 789.6 1042.4 782.9 1042.9 782.2C 1043.4 781.3 1045.4 781 1049.1 781.2L 1054.5 781.5L 1054.5 809L 1054.5 836.5L 1048.6 836.5L 1042.8 836.5L 1035.2 823.3C 1031.1 816 1027.3 810.3 1026.9 810.6C 1026.4 810.9 1026 817 1026 824.1L 1026 837.1L 1020.3 836.8L 1014.5 836.5L 1014.2 808.7L 1014 781L 1020 781C 1025.1 781 1026.2 781.3 1027.4 783.2zM 1120 786.5L 1120 791.9L 1109.3 792.2L 1098.5 792.5L 1098.2 797.7L 1097.9 803L 1105.8 803C 1114.4 803 1115 803.4 1115 809C 1115 814.6 1114.4 815 1105.9 815L 1098 815L 1098 820L 1098 824.9L 1108.8 825.2L 1119.5 825.5L 1119.8 831.2L 1120.1 837L 1103.7 837C 1087.5 837 1087.2 837 1086.6 834.7C 1086.3 833.5 1086 821.9 1086 809C 1086 796.1 1086.3 784.5 1086.6 783.2C 1087.2 781 1087.5 781 1103.6 781L 1120 781L 1120 786.5zM 1146.7 788C 1148.5 791.6 1150.3 794.5 1150.9 794.5C 1151.4 794.5 1153.4 791.6 1155.3 788C 1158.8 781.5 1158.8 781.5 1163.5 781.2C 1171.8 780.6 1171.8 780.8 1165 793.6C 1161.6 800 1158.3 806.1 1157.7 807.1C 1156.8 808.6 1156.9 809.5 1158.2 811.7C 1162.7 819.4 1170 833.4 1170.2 834.9C 1170.4 836.2 1169.4 836.6 1164.8 836.8L 1159.2 837.1L 1155.3 830.1C 1153.2 826.2 1151.1 823.1 1150.7 823.3C 1150.2 823.4 1148.4 826.5 1146.7 830L 1143.5 836.5L 1138.1 836.8C 1135.1 837 1132.3 836.7 1131.8 836.2C 1131.3 835.7 1133.8 830 1138 822.2L 1145.1 809.1L 1142.4 803.8C 1140.9 800.9 1137.8 795 1135.4 790.8C 1133 786.5 1131 782.6 1131 782C 1131 781.3 1133.2 781 1137.3 781.2L 1143.5 781.5L 1146.7 788zM 1206.1 783.3C 1210.7 786.4 1213 791.3 1213 798.2C 1213 809.5 1208.2 815.7 1198.6 816.9L 1193.5 817.5L 1193 827L 1192.5 836.5L 1187 836.5L 1181.5 836.5L 1181.2 810C 1181.1 795.4 1181.2 783 1181.5 782.3C 1181.8 781.4 1184.9 781 1192.3 781C 1201.5 781 1203.1 781.3 1206.1 783.3zM 1256.4 782.6C 1256.7 783.5 1257 785.9 1257 788L 1257 791.9L 1245.8 792.2L 1234.5 792.5L 1234.5 797.5L 1234.5 802.5L 1242.5 803L 1250.5 803.5L 1250.5 809L 1250.5 814.5L 1242.3 814.8L 1234 815.1L 1234 820L 1234 825L 1244.9 825C 1256.8 825 1257 825.1 1257 831.301C 1257 837 1256.8 837.101 1239.4 836.801L 1223.5 836.5L 1223.2 808.7L 1223 781L 1239.4 781C 1253.4 781 1255.9 781.2 1256.4 782.6zM 1291.9 782.8C 1293.8 783.7 1296.2 785.7 1297.3 787.2C 1299.5 790.1 1300.6 798 1299.6 803.3C 1299 806.6 1293.8 813.2 1291 814.2C 1289.8 814.7 1290.6 816.8 1294.8 825C 1298 831.2 1299.7 835.7 1299.2 836.2C 1298.7 836.7 1295.9 837 1292.9 836.8C 1286.9 836.5 1287.1 836.7 1281.7 824.5L 1279.5 819.5L 1279.3 826C 1278.8 837 1278.8 837 1272.5 837L 1267 837L 1267 809L 1267 781L 1277.8 781C 1286 781 1289.3 781.4 1291.9 782.8zM 1347.8 786.7L 1348.1 792L 1343.1 792C 1334.5 792 1335 790.4 1335 815.2L 1335 837.1L 1329.3 836.8L 1323.5 836.5L 1323.2 815C 1323 799.4 1322.6 793.4 1321.7 792.8C 1321.1 792.4 1318.4 792 1315.8 792L 1311 792L 1311 786.5L 1311 781L 1329.3 781.2L 1347.5 781.5L 1347.8 786.7z"/>
<path style="stroke:none; fill:#000000" d="M 1618.3 821.1L 1615.6 825.2L 1618.3 827.2C 1619.8 828.3 1621 829.8 1621 830.6C 1621 831.4 1621.5 832 1622 832C 1623.3 832 1623.3 818.3 1622 817.5C 1621.5 817.2 1619.8 818.8 1618.3 821.1z"/>
<path style="stroke:none; fill:#000000" d="M 1454 831.7C 1454 832.2 1454.5 833.2 1455 834C 1455.8 835.2 1456 835.1 1456 833.2C 1456 832 1455.6 831 1455 831C 1454.5 831 1454 831.3 1454 831.7z"/>
<path style="stroke:none; fill:#000000" d="M 1757.6 953.8C 1757.3 954.3 1758.2 957.1 1759.6 960.1C 1772.1 986.8 1779.3 1020.5 1783.9 1075C 1785.9 1097.4 1786 1101 1785.1 1101C 1784.6 1101 1783.4 1101.7 1782.6 1102.6C 1781.3 1103.9 1781 1106.8 1781 1118.8C 1781 1135 1778.9 1161.7 1776.5 1178C 1770.6 1217.5 1758.7 1235.4 1735.7 1239.2C 1731.1 1240 1723.6 1239.9 1706.5 1238.8C 1687.9 1237.6 1674.4 1237.4 1635.3 1238.1C 1585.1 1238.9 1560.2 1239.1 1509 1239C 1492.2 1238.9 1360.2 1238.9 1215.5 1238.8C 1023.8 1238.8 950.6 1239.1 945.6 1239.9C 933.7 1241.9 926.7 1246.9 921.8 1256.7C 918.6 1263.3 918.6 1263.3 918.5 1279.4L 918.5 1295.5L 933.4 1295.8C 941.6 1295.9 948.9 1296.5 949.5 1297C 950.1 1297.5 961.9 1297.5 979 1297C 1016.5 1295.8 1413.7 1295.7 1412.4 1296.9C 1411.9 1297.4 1408.1 1298.5 1404 1299.4C 1362.1 1308.7 1330.4 1326.6 1314.5 1350C 1312.4 1353 1306.5 1364.3 1301.3 1375C 1289.1 1400.4 1289.7 1399.1 1289.2 1398.5C 1287.7 1397 1304.4 1359.7 1311.5 1348.5C 1323.2 1330.2 1347.7 1313.4 1378 1303C 1393.2 1297.8 1392.8 1297.3 1374.5 1299C 1323.9 1303.8 1303.4 1307.7 1287.5 1315.5C 1268.1 1325.1 1256.1 1340.1 1250.8 1361.6C 1249.1 1368.8 1248.6 1373.3 1248.7 1385C 1248.8 1402 1250.1 1409.6 1258.6 1439.8C 1265 1462.4 1265 1460.5 1259.6 1474.5C 1251.9 1494.3 1236.7 1537.5 1231.5 1554C 1223 1580.7 1215.2 1606.9 1211.3 1622L 1206.6 1639.5L 1206.6 1659.5L 1206.5 1679.5L 1201.6 1687.9C 1191.3 1705.7 1190 1710.6 1194.7 1713.7C 1196.2 1714.7 1198.4 1716.5 1199.6 1717.7C 1202.1 1720.2 1224.4 1731.1 1232.3 1733.7C 1235.1 1734.6 1238.3 1736.2 1239.4 1737.1C 1242.6 1740.1 1252.3 1744.3 1255.9 1744.2C 1257.7 1744.2 1260.8 1744.9 1262.7 1745.7C 1270.1 1748.7 1273.1 1745.7 1284.8 1723.4L 1292.5 1708.6L 1298.3 1705.7C 1305.1 1702.2 1313.6 1694 1316.8 1687.9C 1318 1685.5 1320.6 1680.6 1322.6 1677C 1324.6 1673.4 1331.4 1660.8 1337.8 1649C 1344.2 1637.2 1352.2 1622.3 1355.6 1616C 1359 1609.7 1362.2 1604.4 1362.8 1604.2C 1363.3 1604.1 1366.8 1609 1370.5 1615.2C 1380.3 1631.6 1386.8 1639.7 1395.2 1646C 1408.5 1656 1414.2 1662.5 1419.9 1674.1C 1422.7 1679.9 1426.3 1686.4 1427.9 1688.5C 1430.6 1692.1 1431.3 1692.5 1435.7 1692.7C 1440.1 1692.9 1450.2 1689.9 1455 1686.9C 1459.9 1684 1466.2 1681 1467.6 1681C 1468.5 1681 1469.4 1680.2 1469.7 1679.2C 1470 1678.1 1474 1675.7 1480.8 1672.7C 1486.7 1670.1 1492 1668 1492.6 1668C 1493.1 1668 1495.3 1671.3 1497.3 1675.2C 1500.4 1681.3 1501 1683.5 1501 1688.6C 1501 1696.1 1498.1 1705.8 1494 1712.3C 1487.4 1722.8 1482.5 1724.6 1477.6 1718.4C 1471.7 1711 1449.5 1699.3 1439.8 1698.4C 1433.8 1697.8 1431.6 1699 1428.8 1704.3C 1426.9 1708.1 1426.6 1710.7 1425.8 1733C 1424.9 1760.9 1422.9 1778.9 1420 1787.5C 1418.9 1790.8 1416 1796.4 1413.6 1800C 1401.4 1818.3 1396.5 1835.9 1400.2 1848.2C 1403.4 1859 1420 1867.5 1437.5 1867.3C 1450.4 1867.2 1463.2 1862.4 1476.2 1852.8C 1491.1 1841.8 1494.5 1834.3 1499.4 1801.5C 1503.1 1776.1 1505.3 1771.7 1524.5 1752C 1540.7 1735.3 1544.4 1730.7 1549.3 1720.2C 1551.8 1714.8 1552.5 1711.9 1552.8 1704.9C 1553.3 1694.4 1552.3 1690.9 1546.4 1683C 1540.5 1675.2 1536.7 1673 1527.3 1671.9C 1519.5 1670.9 1516.9 1670 1513.5 1667C 1510.8 1664.7 1504.1 1661.3 1500.8 1660.6C 1498.5 1660.1 1498 1659.4 1498 1657C 1498 1653.4 1493.9 1644 1486.9 1631.8L 1481.8 1622.9L 1482.4 1613.7C 1482.8 1608.6 1482.6 1599.3 1482.1 1592.9C 1481.3 1583.1 1480.4 1579.4 1476.5 1568.4C 1469.2 1548.3 1459.1 1521.1 1456.5 1514.5C 1450.6 1500.1 1437.9 1464.7 1438.2 1463.6C 1439.2 1460 1450.4 1441 1451.5 1441C 1452.3 1441 1457.4 1441.9 1462.9 1442.9C 1494.7 1449.1 1547.1 1452.5 1594 1451.5C 1624.1 1450.9 1632.9 1450.4 1661 1448C 1688.7 1445.7 1719.4 1440.7 1733.5 1436.3C 1753.9 1429.8 1771.2 1417.7 1778.5 1404.5C 1785.2 1392.4 1786.5 1386.5 1786.4 1368C 1786.3 1358.9 1785.5 1343.4 1784.7 1333.5C 1783.8 1323.6 1783 1311.2 1782.8 1306L 1782.5 1296.5L 1830.5 1296.7C 1895.3 1297 1919 1296.8 1941.5 1296.1L 1960.5 1295.5L 1960.5 1280.5C 1960.4 1263.7 1959.2 1258 1953.9 1251.3C 1950.4 1247 1944.1 1242.5 1939 1240.8C 1936.5 1239.9 1914.6 1239.4 1859 1239L 1782.5 1238.5L 1782.8 1231C 1783.3 1221.2 1787.5 1190.8 1790.5 1175.5C 1791.8 1168.9 1794.2 1156.3 1795.9 1147.5C 1797.6 1138.7 1800.3 1124.5 1802 1116C 1810.9 1070 1813.6 1047.1 1812.7 1024.1C 1811.9 1002.1 1807.6 986.1 1798.7 971.7C 1791.2 959.7 1788.2 958 1768.5 954.6C 1758 952.7 1758.3 952.8 1757.6 953.8zM 1520 1674C 1525.2 1678.1 1529 1686 1529 1692.5C 1529 1703.4 1524.4 1713.6 1510 1735C 1494.7 1757.8 1493 1762 1491 1783C 1488 1814 1482.2 1827.3 1465.9 1841C 1450.8 1853.5 1426 1864.5 1426 1858.5C 1426 1857.5 1427 1857 1429.1 1857C 1437.7 1857 1460.2 1843.8 1470.6 1832.8C 1481.5 1821.1 1485.8 1809 1488.5 1782.4C 1490.6 1760.9 1492.5 1756.2 1507 1734.5C 1511.8 1727.4 1517.1 1719 1518.8 1715.9C 1528.8 1698.3 1528.3 1683.4 1517.6 1675.8C 1515.1 1674.1 1513 1672.3 1513 1671.8C 1513 1670.1 1516.4 1671.1 1520 1674z"/>
<path style="stroke:none; fill:#000000" d="M 1405.5 1092.9C 1403.9 1102.2 1397.8 1133 1394.2 1149.5C 1392.2 1158.7 1393 1158.2 1378 1160C 1372.8 1160.7 1368.2 1161.5 1367.9 1161.8C 1367.3 1162.4 1369.5 1172.2 1372 1180.5C 1372.5 1182.1 1374.6 1189.9 1376.6 1197.7L 1380.3 1212L 1422.3 1212L 1464.2 1212L 1469.3 1207.4C 1475.1 1202.2 1480.7 1199.2 1490 1196.2C 1504.2 1191.7 1510.9 1191.5 1525.5 1195C 1533.7 1197 1533.7 1196.9 1532.8 1188.7C 1532.4 1184.8 1531.4 1175 1530.6 1167.1C 1529.7 1159.2 1528.9 1152.5 1528.6 1152.3C 1528.1 1151.8 1488.7 1154.5 1476 1155.9C 1471.9 1156.4 1464.5 1157.6 1459.7 1158.6C 1452.3 1160.1 1450.7 1160.2 1450 1159C 1449.1 1157.5 1448.2 1144.5 1447.2 1116.5L 1446.5 1097.5L 1438 1095.4C 1423.4 1091.8 1418.7 1090.2 1412.8 1086.7L 1407.2 1083.3L 1405.5 1092.9z"/>
<path style="stroke:none; fill:#000000" d="M 1617 1154.9C 1617 1155.4 1617.5 1156.2 1618 1156.5C 1618.6 1156.8 1619 1156.7 1619 1156.1C 1619 1155.6 1618.6 1154.8 1618 1154.5C 1617.5 1154.2 1617 1154.3 1617 1154.9z"/>
<path style="stroke:none; fill:#000000" d="M 1614.6 1180.2C 1613.3 1191 1613.2 1197 1614.4 1197C 1616.6 1197 1620.2 1193.8 1621.5 1190.6C 1623.9 1184.8 1620.8 1176 1616.4 1176C 1615.7 1176 1614.9 1177.8 1614.6 1180.2z"/>
<path style="stroke:none; fill:#000000" d="M 1637.6 1203.4C 1634.4 1208.9 1631.3 1211.1 1622.5 1214.5C 1618.7 1215.9 1615.4 1217.2 1615.2 1217.5C 1614.7 1217.9 1616.7 1218.5 1637.7 1223.4C 1655.2 1227.5 1655 1227.5 1655 1225.5C 1655 1224.7 1654.6 1224 1654.1 1224C 1652.5 1224 1650 1219.1 1649 1214.2C 1648.2 1209.9 1642.4 1199.2 1640.8 1199.1C 1640.5 1199 1639 1201 1637.6 1203.4z"/>
<path style="stroke:none; fill:#000000" d="M 496.5 1548.2C 485.6 1552.7 473.9 1555.2 464.9 1554.9C 460.6 1554.7 456.8 1554.8 456.5 1555.1C 455.4 1556.2 461.9 1595.4 463.6 1598.2C 463.9 1598.7 466.9 1596.1 470.2 1592.5C 476.5 1585.6 487.1 1577.3 495.5 1572.4C 501.7 1568.9 502 1568.5 502 1562.9C 502 1560.4 502.5 1555.8 503.1 1552.6C 503.6 1549.5 504 1546.5 503.8 1546.1C 503.6 1545.7 500.4 1546.6 496.5 1548.2z"/>
<path style="stroke:none; fill:#000000" d="M 499.8 1611.5C 493.7 1614.7 478.8 1619 473.9 1619C 471.7 1619 470 1619.4 470 1620C 470 1621.5 478.6 1643.2 480.6 1646.9C 481.7 1648.7 482.9 1650.2 483.4 1650.2C 484.1 1650.2 493.3 1637.9 504.6 1622.1C 505.5 1620.8 506.4 1618.3 506.5 1616.6C 506.7 1614.9 506.9 1612.6 507.1 1611.5C 507.7 1608.7 505.2 1608.7 499.8 1611.5z"/>
<path style="stroke:none; fill:#000000" d="M 1166.5 1734.9C 1157.6 1739.2 1150.8 1742.1 1114.9 1756.9C 1087.4 1768.2 1086.3 1768.4 1070.5 1765.5C 1066.1 1764.7 1057.4 1764.1 1051.2 1764C 1042 1764 1039.2 1764.4 1036.2 1765.9C 1031.5 1768.3 1028.5 1771.5 1026.4 1776.5C 1016.9 1799.2 1041.2 1813.7 1134 1840.5C 1175.3 1852.4 1193.1 1856 1215 1856.7C 1229.4 1857.2 1230.9 1857.1 1234.6 1855.2C 1240.4 1852.3 1244.7 1846.9 1246.6 1840.4C 1247.5 1837.3 1249 1832.9 1250 1830.7C 1251 1828.4 1252.1 1824 1252.5 1821C 1252.8 1818 1253.8 1812.3 1254.6 1808.3C 1256.6 1798.2 1256.4 1780.8 1254.2 1774.7C 1252.3 1769.2 1248.7 1766.4 1244.9 1767.3C 1243.6 1767.7 1238.5 1771.3 1233.5 1775.5C 1223.7 1783.7 1214.5 1788.8 1208.2 1789.7C 1198 1791.1 1187.2 1783 1183.1 1770.8C 1180.4 1762.9 1180.4 1763 1184 1757.3C 1187.3 1752.2 1187.8 1747.5 1185.5 1744.4C 1184.7 1743.3 1184 1740.3 1184 1737.4C 1184 1733.6 1183.6 1732 1182.4 1731.6C 1178.9 1730.3 1174.1 1731.3 1166.5 1734.9zM 1049.7 1796.9C 1080.9 1812.4 1120.9 1823.2 1157.5 1826.1C 1172.6 1827.3 1178.1 1828.4 1194.5 1833.5C 1204.6 1836.6 1207.9 1837.2 1215.5 1837.2C 1225 1837.2 1232.8 1835.2 1239.7 1830.9C 1242.2 1829.3 1243.4 1829 1244.3 1829.9C 1245.8 1831.4 1244.9 1832.1 1237.3 1836C 1224.2 1842.5 1210.6 1842.4 1189.2 1835.6C 1177.7 1831.9 1173.3 1831 1161.5 1830C 1119.6 1826.5 1084.3 1817.3 1050.3 1801C 1040.9 1796.5 1036 1793.6 1036 1792.6C 1036 1791.7 1036.4 1791 1036.9 1791C 1037.4 1791 1043.2 1793.6 1049.7 1796.9z"/>
</g>
</g>
</svg>