<?xml version="1.0" encoding="UTF-8" standalone="yes"?>
<!-- Created with sK1/UniConvertor (http://sk1project.org/) -->
<svg xmlns="http://www.w3.org/2000/svg" xmlns:xlink="http://www.w3.org/1999/xlink"
  width="660pt" height="1000pt" viewBox="0 0 660 1000"
  fill-rule="evenodd">
<g>
<g>
<path style="stroke:none; fill:#000000" d="M 0 500L 0 1000L 330 1000L 660 1000L 660 500L 660 0L 330 0L 0 0L 0 500zM 358.9 51.7C 386.2 67.4 417.3 85.4999 428 91.7999L 447.5 103.4L 464 104.1C 473.1 104.5 488.2 104.9 497.6 104.9L 514.7 105L 524.1 110.3C 556 128.5 588.2 147.3 592 150C 593.1 150.7 584.3 150.9 562 150.4C 541.4 150 530.8 150.1 531.5 150.7C 532.1 151.3 545.6 159.3 561.5 168.5C 577.5 177.8 593 187.3 596.2 189.7C 605.7 197.1 613.8 207.9 620 221.3C 627.3 237 627 233.5 627 322.9L 627 403L 643.2 403L 659.3 403L 658.7 481.4C 657.9 566.6 658 565.1 652.2 571.8C 649 575.6 611 597.7 606.3 598.6C 604.5 598.9 601.5 599 599.7 598.8L 596.4 598.4L 600.6 606.5C 602.9 610.9 606.3 618.7 608 623.7L 611.2 633L 609 634.8L 606.7 636.6L 608.5 646.6C 613.5 675.6 610.3 701.2 598.8 725C 589.2 745.1 588.2 749.3 586.5 776.5C 583.7 823.4 583.6 834.4 585.8 845C 589.6 863 590.1 871.4 589.8 905L 589.5 937.4L 586.2 938.4C 584.2 939 581.5 939 579.2 938.4C 575 937.4 576.6 942.9 565.9 893C 557.3 852.2 552.6 819.9 548.3 771.2C 547 756.3 546.2 751 545.3 751C 544.6 751 544 751.9 544 753.1C 544 754.2 542.6 771.1 541 790.7C 538 825.9 538 826.5 539.7 832.9C 541.3 838.7 541.5 843.6 541.3 873.5C 541.2 892.2 540.9 910.3 540.5 913.7C 539.9 919.9 539.8 919.9 536.2 920.6C 534 921 531.1 920.8 528.6 919.9L 524.5 918.5L 520.8 897C 518.8 885.2 515.5 865.1 513.5 852.5L 509.8 829.5L 509.9 769.5C 509.9 736.5 509.8 689.5 509.6 665C 509.3 624.3 509.8 608.1 511.6 599.2C 512.2 596.3 512 596 509.7 596C 504.8 596 492.5 592.9 491.8 591.5C 491.3 590.7 487 588.9 482.2 587.4C 471.8 584.3 461.8 579.9 457.4 576.5C 450.6 571.3 439 553.8 427.5 531.3C 423 522.4 421.2 519.8 417.2 516.8C 414.5 514.7 411.5 511.4 410.5 509.4C 408.9 506.1 408.9 505.2 410.2 499.9C 411.2 495.7 411.4 493.7 410.6 493.1C 410 492.6 387.5 479.5 360.5 464C 304.9 431.9 305.3 432.1 298.5 426.9C 290.4 420.8 278 404.1 275.5 396.2L 274.8 393.9L 295.2 394.5C 306.3 394.8 322.1 395.3 330.3 395.6L 345 396.1L 339.9 388.5C 329.3 372.6 320.7 352.5 316.3 333.5C 314.6 326.1 314.5 319.7 314.7 242.5C 314.9 165.8 315.1 159 316.8 152.3C 318.6 145.2 318.6 145.1 316.6 144.6C 315.4 144.3 305.9 144 295.4 144C 275.4 144 270.4 143.5 269.7 141.6C 269.5 141 269.5 131.3 269.8 120L 270.2 99.3998L 273.4 99.6998C 280.1 100.3 422.8 103.2 428 102.8L 433.5 102.5L 424 97.0998C 418.8 94.1998 389.9 77.5998 359.8 60.1998L 305.1 28.6998L 306.6 25.8998C 307.4 24.2998 308.3 22.9998 308.6 22.9998C 309 22.9998 331.6 35.9 358.9 51.7zM 160.8 114.4C 162.3 115.2 164.8 117.2 166.4 118.8C 169.2 121.8 169.3 121.8 172.5 120.3C 175.4 118.9 176 118.9 179.4 120.5C 190.8 125.9 196.2 142.1 190.5 153.6C 187.4 159.9 185.6 161.6 175 168L 166.5 173.1L 160 166.3C 140.6 146 132.4 120 145.3 120C 147.3 120 148 119.7 147.2 119.2C 146.4 118.6 147.4 117.5 150.7 115.7C 156.3 112.6 157.2 112.5 160.8 114.4zM 249.6 205.8C 251.7 207.4 254.8 211 256.3 213.9C 259.1 218.9 259.1 219.2 257.3 220.6C 255.6 222 255.7 222 257.8 221C 265.8 217.1 278 230 278 242.4C 278 249.1 276.7 250.7 267.6 256C 258.1 261.6 253.8 262.5 245.1 261L 238 259.8L 234.1 251.7C 231.9 247.2 229.1 240.6 227.9 237C 225.3 229.4 224.2 216.3 225.9 213.2C 227.4 210.4 239.8 203.1 243.1 203C 244.5 203 247.5 204.3 249.6 205.8zM 157.6 272.2C 159.2 273.5 161.2 275.4 162.1 276.4C 163.5 278.2 164 278.2 166.8 277.1C 170.9 275.4 174.1 276.3 178.5 280.2C 188.9 289.2 190.4 305 182 315.2C 179.2 318.6 163.5 329 161.2 329C 159.5 329 147.9 315.9 142.9 308.3C 140.3 304.2 137.2 298.4 136.1 295.4C 133.9 289.8 133.4 281.6 134.9 279.1C 136.5 276.6 148.4 270.2 151.6 270.1C 153.4 270 155.9 270.9 157.6 272.2zM 207.7 393.6C 213.4 398.2 216.2 404.8 216.9 415C 217.3 420.9 218.1 424.5 219.4 426.4C 221 429 221.1 430.5 220.5 440.6C 219.8 451.9 219.8 452 222.2 452.9C 223.4 453.4 227.8 455 231.7 456.5C 236.5 458.3 239.9 460.2 241.6 462.3C 245.4 466.8 249.8 476.5 250.6 481.9C 250.9 484.4 252.4 490.5 254 495.5C 258.4 509.7 259.4 517.2 258.7 532.2C 258 547.6 256.5 554.6 250.9 568.6L 246.9 578.8L 247.9 586.5C 248.5 590.7 249 600.3 249 607.9C 249 627.9 247.2 641.1 239.8 674.6C 238.8 678.9 239 681.8 240.8 692.6C 242.7 704.2 242.8 705.6 241.4 706.7C 240 707.7 240 709.2 241 718.9C 242.2 731.9 241.5 741.9 237 769.5C 234.3 785.7 230 816.8 230 819.6C 230 821.4 224.6 823.2 220.4 822.8L 216.5 822.5L 216.8 799.5C 217.2 778.1 216.6 766.1 214 734C 212.5 716.1 213.1 717.4 206.6 717.8L 201 718.2L 201.6 735.8C 202.2 751.6 202 755.7 199.6 773.5C 194.8 808.8 194.1 813.3 193.1 814.3C 191.8 815.6 183.4 816.4 182.7 815.3C 182.4 814.8 181.6 808.5 181.1 801.4C 180.5 794.3 179.6 782.4 179 775C 177.2 753.4 170.6 709.3 168.8 707.3C 165.9 704.1 161 647.1 161 617C 161 592.8 163.3 576.7 171.6 543L 176.2 524.6L 175.4 513C 174.8 505.8 174.1 501.5 173.4 501.5C 172.8 501.5 169.6 504.9 166.3 509C 156.5 521.4 151.3 525.3 132.5 534.5C 116 542.6 107 546 102.4 546C 100.7 546 99.3 544.7 97.4 541.5C 96 539 94.4 537.2 93.9 537.5C 92.6 538.4 93.2 543.2 94.7 543.7C 95.4 544 96 545.3 96 546.5C 96 547.8 96.5 549.2 97 549.5C 99 550.7 96.9 552 93 552C 88.4 552 85.8 549.7 83.4 543.4C 81.1 537.3 81.7 535.6 86.5 535.2C 89 535 90.9 534.1 91.8 532.9C 93.8 530 96.3 530.4 95.7 533.6C 95.3 535.9 95.5 536.1 97.9 535.5C 103.3 534.2 113.3 528.9 126.2 520.5C 150.7 504.5 151 504.1 161 481.8C 164.9 473.1 165.2 471.8 164.1 469.6C 162.9 467.5 163.2 466.7 167.7 460.9C 170.3 457.4 174.6 452.3 177.2 449.6C 181.7 444.9 182 444.8 186.7 445.3C 189.3 445.5 192.5 446.1 193.8 446.5C 197.1 447.6 196.5 445.6 193.1 444.3C 188.9 442.8 183.4 434.6 180.9 426.5C 179.1 420.6 178.8 418 179.3 410C 180.4 392.2 182.5 389.8 196.2 390.2C 203 390.5 204.2 390.8 207.7 393.6zM 18.2 410.1C 24.4 413.7 24.5 413.8 23.8 414.5C 23.2 415.1 11 408.3 11 407.5C 11 406.4 13.3 407.2 18.2 410.1zM 23.3 429.3C 24.7 431 29.5 438.3 34 445.5C 38.5 452.6 43.1 459.4 44.1 460.6C 45.5 462.1 73.2 505.2 86.4 526.3C 87.3 527.8 87.1 528.4 85.5 529.6C 84 530.7 83.4 530.8 82.4 529.8C 80.5 527.7 40.9 464.8 39.9 462.3C 39.4 461 34.3 452.5 28.4 443.3C 22.6 434.1 17.5 426 17.2 425.2C 16.3 422.7 20.6 425.6 23.3 429.3zM 196.4 826.4C 196.1 827.3 193.9 829.3 191.6 830.8C 189.4 832.4 184.8 835.6 181.4 837.9C 176.3 841.4 174.3 842.3 169.2 842.7C 162.9 843.3 158 841.6 158 838.8C 158 838.2 158.8 838.4 159.8 839.3C 162.8 842 170.7 841.5 176.7 838.2C 184 834.3 196 825.9 196 824.7C 196 824.1 196.2 823.9 196.5 824.2C 196.8 824.5 196.8 825.5 196.4 826.4zM 232.5 833.9C 231.9 835.8 224.6 841.3 212.9 848.6C 204.5 853.9 193.6 854 190.8 848.7C 189.8 846.6 189.8 846.6 191.6 848.2C 194.4 850.6 199.8 851.2 205.5 849.7C 210.6 848.4 230.7 835 231.7 832.3C 232.5 830.2 233.3 831.6 232.5 833.9zM 544 932.5C 544 933.3 542.1 935.2 539.8 936.7C 537.4 938.2 533 941.3 530 943.6C 520.7 950.6 516.3 952.4 508.8 952.5C 503.1 952.5 501.7 952.2 499.8 950.2L 497.5 948L 501.8 949.7C 505.5 951.1 507 951.2 512.2 950.2C 518.5 949 520.4 947.9 536 936.6C 544.8 930.2 544 930.6 544 932.5zM 592 952.4C 590.5 954.3 572.3 967.3 568.3 969.4C 564.1 971.5 554.3 972.5 550.8 971.1C 549.3 970.6 547.6 969.1 546.9 967.8C 545.7 965.5 545.7 965.5 547.8 967.3C 550.7 970 556.8 970.5 563.1 968.7C 567.9 967.3 584.7 956.7 590.5 951.3C 592.7 949.3 593.9 950.2 592 952.4z"/>
<path style="stroke:none; fill:#000000" d="M 418.5 151.2C 422.4 153.4 444.9 166.5 468.5 180.2C 492.2 193.9 513.9 207 516.8 209.2C 543 228.9 563.7 261.7 572.2 297C 574.1 304.8 574.3 309.4 574.7 353.1L 575.2 400.7L 582.7 401.4C 586.9 401.7 597 402 605.2 402L 620 402L 620.3 343.7C 620.4 311.7 620.5 275.8 620.4 264L 620.4 242.5L 616.8 232.3C 611.4 216.5 601.7 202.4 591.2 194.6C 588.4 192.6 569.7 181.5 549.7 170.1L 513.3 149.3L 467.9 148.1C 442.9 147.5 420 147 417 147L 411.5 147L 418.5 151.2z"/>
<path style="stroke:none; fill:#000000" d="M 366.9 164.7C 362.5 165.4 353.8 171.2 350.4 175.7C 348.6 178 346.1 182.5 344.8 185.7L 342.5 191.5L 342.5 259.5C 342.5 327.2 342.5 327.5 344.8 335.3C 351.3 357.7 361.8 376.8 376.4 392.7L 380.3 397L 390.3 397L 400.4 397L 395.7 394C 379.5 383.7 363.1 359.3 358 337.8C 356 329.3 355.9 326.9 356.2 266.3C 356.5 209.1 356.7 203.1 358.3 198.9C 364 184.1 378.6 178.5 393.5 185.4C 406.4 191.3 497.4 244.6 503.9 250C 516.6 260.7 528.8 280.1 534.2 298C 536.3 305.2 536.4 307.3 536.8 352.6L 537.1 399.7L 541.7 400.4C 544.2 400.7 547.3 401 548.6 401L 551 401L 551 360.1C 551 315.3 550.5 309.7 545.1 293.8C 536.9 269.6 518.8 243.8 501.6 231.6C 496.1 227.7 403.7 174 394.1 169C 386.5 165.1 375.4 163.4 366.9 164.7z"/>
<path style="stroke:none; fill:#000000" d="M 416.2 257.1C 399.8 260.3 390.3 279.2 393 303.3C 396.6 334.5 417.2 369 442.2 385.7C 452.9 392.8 459.7 395.3 470 395.8C 477.8 396.1 478.9 395.9 484 393.3C 494.6 387.7 499.9 377.3 500.8 360.8C 501.3 349.7 500.1 341.4 496 328.6C 484.9 294.1 456.1 262.9 430.1 257.4C 422.8 255.9 422.3 255.9 416.2 257.1zM 439 276.5C 462.6 284.8 484.8 316.8 486.7 345C 487.7 360.4 483.8 370.4 474.5 375.8C 471.2 377.7 469.3 378 463.4 377.8C 441.7 376.9 417.4 351.3 408.9 320.4C 406.5 311.8 406.1 299 407.9 292.5C 409.7 285.8 414.3 279.6 419.1 277.2C 424.4 274.6 432.7 274.3 439 276.5z"/>
<path style="stroke:none; fill:#000000" d="M 496.5 276C 492.4 280.5 497.5 293.5 504.8 297.1C 509.1 299.3 511.7 298.5 513 294.6C 514.8 289.1 510.5 279.5 504.6 275.9C 500.7 273.5 498.8 273.5 496.5 276z"/>
<path style="stroke:none; fill:#000000" d="M 415.3 490.1C 414.5 490.9 416.6 492.9 423.3 497.5C 432.6 503.8 435.2 507 431 507C 429.8 507 426.1 505.4 422.9 503.5C 419.6 501.6 417.2 500.5 417.5 501C 417.9 501.6 420.6 503.5 423.6 505.1C 429.2 508.3 430.7 511 426.7 511C 425.5 511 422.7 510.1 420.7 509.1C 417.7 507.6 417.2 507.5 418.2 508.7C 418.9 509.6 421 510.9 422.8 511.7C 424.5 512.4 426 513.8 426 514.6C 426 515.9 425.3 516.1 422.8 515.6L 419.5 515L 422.5 517.5C 424.2 518.9 431.3 523.5 438.3 527.7C 450.4 534.9 451.5 535.8 459.2 545.4C 463.7 551 468.1 556.8 468.9 558.3C 469.8 559.8 471.4 561.2 472.5 561.4C 473.6 561.6 479.2 562.8 485 563.9C 494.3 565.7 495.6 565.8 496.6 564.5C 498.2 562.3 500.4 562.6 512.6 566.5C 522 569.5 523.9 569.8 526.3 568.7C 529.4 567.3 529.5 567.1 527.6 562.7C 526.4 559.9 521.5 556.8 491.6 539.6C 459.5 521.1 457 519.5 457 517C 457 515.5 456.1 513.2 455.1 511.8C 453 509.1 420 489 417.8 489C 417 489 415.9 489.5 415.3 490.1z"/>
<path style="stroke:none; fill:#000000" d="M 543.5 503.4C 537.4 504.9 534.4 506.4 530.8 509.8C 527 513.3 527 519 530.6 523.7C 534.6 528.9 536.7 529.3 548.9 527.1C 561.4 524.8 564.1 525.2 567.6 529.3C 570.1 532.3 570.2 532.8 569.4 539C 568.5 546 568.5 558.8 569.4 559.7C 570.5 560.8 576.1 557.6 579.1 554.2C 584.1 548.5 586.2 542.6 586.8 532.8C 587.2 524.8 587 523.6 584.6 518.6C 581.3 511.9 574.6 505.7 568.3 503.6C 562.8 501.7 550.7 501.6 543.5 503.4z"/>
<path style="stroke:none; fill:#000000" d="M 622.1 579.6C 622.1 580.7 622.4 581 622.7 580.2C 623 579.5 622.9 578.6 622.6 578.3C 622.3 577.9 622 578.5 622.1 579.6z"/>
<path style="stroke:none; fill:#000000" d="M 586.7 655.6C 585.7 661.3 585.9 668.6 587.2 684.3C 588.6 700.9 589.8 700.4 590.7 683.1C 591.3 671.9 590.1 659.2 588.1 653.6C 587.5 652 587.2 652.4 586.7 655.6z"/>
<path style="stroke:none; fill:#000000" d="M 249.8 226.2C 250.3 226.7 251.4 227 252.1 226.8C 252.9 226.5 252.4 226.1 251.1 225.7C 249.4 225.3 249 225.4 249.8 226.2z"/>
<path style="stroke:none; fill:#000000" d="M 267.1 247.6C 267.1 248.7 267.4 249 267.7 248.2C 268 247.5 267.9 246.6 267.6 246.3C 267.3 245.9 267 246.5 267.1 247.6z"/>
<path style="stroke:none; fill:#000000" d="M 176.2 303C 176.2 304.4 176.4 304.9 176.7 304.2C 176.9 303.6 176.9 302.4 176.7 301.7C 176.4 301.1 176.2 301.6 176.2 303z"/>
<path style="stroke:none; fill:#000000" d="M 176.1 310.6C 176.1 311.7 176.4 312 176.7 311.2C 177 310.5 176.9 309.6 176.6 309.3C 176.3 308.9 176 309.5 176.1 310.6z"/>
<path style="stroke:none; fill:#000000" d="M 229.9 514.1L 224.3 527.5L 231.3 541.5C 239.2 557.4 238.5 557.5 242 540.3L 244.3 529L 242.2 521.3C 241.1 517 239.1 510.6 237.8 507.1L 235.4 500.7L 229.9 514.1z"/>
</g>
</g>
</svg>