<?xml version="1.0" encoding="UTF-8" standalone="yes"?>
<!-- Created with sK1/UniConvertor (http://sk1project.org/) -->
<svg xmlns="http://www.w3.org/2000/svg" xmlns:xlink="http://www.w3.org/1999/xlink"
  width="898pt" height="1000pt" viewBox="0 0 898 1000"
  fill-rule="evenodd">
<g>
<g>
<path style="stroke:none; fill:#000000" d="M 0 500L 0 1000L 449 1000L 898 1000L 897.9 967.7C 897.8 945.1 897.5 937.1 896.9 940.9C 894.4 955.9 879.2 970.8 857.8 979.3C 804.8 1000.5 732 985.1 715.2 949.3L 712.5 943.5L 712.5 909L 712.5 874.5L 715.2 868.7C 727.3 843 772.5 825.8 817.6 829.8C 860.5 833.6 892.8 852.9 896.9 877.2C 897.4 880.3 897.8 698.9 897.9 441.2L 898 0L 662.8 0C 533.5 0 427.9 0.200012 428.1 0.400024C 428.3 0.600037 495.8 39.6 578 87C 660.2 134.5 732.7 176.4 739.2 180.1C 749.9 186.4 751 187.3 753.4 192.2L 756 197.4L 756 306C 756 391.4 755.7 414.9 754.8 416.2C 752.5 419 747.2 422 744.7 422C 743.2 422 695.6 395.1 626.8 355.4C 563.4 318.7 510.5 288.3 509.2 287.7C 507.3 286.8 506.5 287.1 504.2 289.3C 502.7 290.7 496.5 294.2 490.5 297.1C 481 301.6 478.4 302.4 471.9 302.8L 464.3 303.2L 463.6 311.4C 463.3 315.8 462.6 329.4 462 341.5C 461.4 353.6 460.8 365.4 460.6 367.6L 460.3 371.8L 467.4 372.5C 479.4 373.7 496.5 378.5 507.4 383.9C 524.9 392.5 535.3 402.7 539.1 415.3C 541 421.2 541.2 424 540.8 438.8C 540.5 454.5 540.3 455.9 537.7 461.4C 534.5 468.4 534.4 471.1 537.1 479.2C 538.9 484.7 539.1 487.3 538.8 502.5C 538.5 518.8 538.4 519.8 535.6 525.8C 532.8 531.8 532.8 532.3 533.5 541.3C 534 546.3 534.4 558.4 534.4 568C 534.5 585.1 534.4 585.6 531.8 591.4L 529 597.2L 529 621.4C 529 640.6 528.7 646.7 527.4 651C 523.5 664.1 513.6 674.1 495.5 683.2C 462.3 699.9 412 700.1 377.5 683.6C 361.4 675.9 351.8 667.3 346.3 655.4L 343.5 649.5L 343.2 619.2C 342.9 587.4 343.3 582.1 347.2 574.2C 349.1 570.2 349.2 568.9 348.5 558.7C 348 552.5 347.6 540.1 347.6 531C 347.5 515.1 347.6 514.3 350.4 507.7C 353.5 500.2 353.5 497.9 350.5 487C 349.1 481.8 348.8 477.7 349.2 465C 349.6 451 349.9 448.9 352.2 443.5C 354.3 438.7 354.9 435.4 355.3 427.2C 355.8 418.1 356.2 416 359.1 410.2C 367.1 393.9 389.3 380.2 416.6 374.5C 420.9 373.6 424.8 372.4 425.2 371.7C 426.7 369.3 425.5 344.5 423 326.5C 422.4 321.6 422.4 317 423.3 311.1L 424.4 302.8L 418.2 297.3C 412.3 292.1 412 291.6 412 287.3C 412 280.3 416.2 256.9 418.2 252.4C 420.1 248.4 423.4 247.7 432.8 249.6C 434.6 250 435 249.6 435 247.5C 435 245.4 435.5 245 437.8 245C 439.3 245 441.6 244.7 442.9 244.3C 445.1 243.7 445.2 243.4 444.7 237.9C 444.1 230.5 446.1 227.3 452.1 226.4C 455.1 225.9 456.2 225.2 456.6 223.4C 458.2 217.2 453.7 213.5 444.5 213.5C 439 213.5 437.7 213.9 434.4 216.5C 427.5 222.1 426.7 230.6 432.1 239.9C 433.2 241.7 433.9 243.4 433.8 243.6C 433.6 243.7 430.3 242 426.5 239.7C 421.3 236.5 418.9 234.4 417 231L 414.5 226.5L 414.2 117.6C 413.9 -3.40015 413.4 5.89984 420.8 2.09985C 424.5 0.0998535 424.2 0.0998535 212.3 -0.00012207L 0.000228882 -0.00012207L 0 500zM 177 472.7C 179.5 475 180.3 476.6 181 481.7C 181.4 485.1 182.2 488.5 182.6 489.1C 183 489.8 183.2 492.9 183.1 496C 182.9 502.1 183.6 502.9 189.7 503C 192.3 503 195.1 506.7 197.3 513C 198.4 516.2 198.9 516.8 198.9 515.1L 199 512.7L 212.8 513.3C 228.8 513.9 238.3 516.1 250.4 521.9C 259.3 526.2 267.6 533.4 270.9 539.6C 272.1 542 272.9 542.8 273 541.7C 273 538.6 269 531.9 264.2 527.1C 258.3 521.3 246 514.8 235.5 512.1C 226.6 509.7 209.9 507.7 203.2 508.2C 198.9 508.5 198.8 508.5 197 504C 196.1 501.5 194.7 498.2 194.1 496.6L 192.9 493.7L 211.2 494.3C 236.2 495.1 251.5 498.6 269 507.6C 282.9 514.8 291.7 523 296.9 534C 299.4 539.3 299.5 540.1 299.5 558.5C 299.5 577.1 299.4 577.6 296.8 583.4C 294.1 589 294 590 294 604.3C 294 618.4 294.2 619.7 296.7 625.9C 299.4 632.3 299.5 633.1 299.5 650.5C 299.4 666.9 299.2 669 297.2 674.2C 295.2 679.2 295 680.4 296.1 684.2C 297.3 688.6 297.5 719.1 296.3 724C 296 725.4 294.5 729 293 732C 290.9 736.1 290 739.5 289.7 745.1C 289 755.8 285.6 762.6 276.6 771.5C 265.2 782.8 251.3 789.7 229.5 794.8C 219.4 797.2 216.7 797.4 197 797.4C 177.3 797.4 174.6 797.2 164.5 794.8C 144.2 790 129.7 783.1 118.9 773.2C 106.4 761.7 103.6 753.6 104.2 730.1C 104.5 716 104.8 714 107.1 709C 109.6 703.5 109.6 703.5 107.9 698C 106.5 693.8 106.1 688.9 106.1 677.2C 106 663.4 106.3 661.1 108.5 654.5C 110.6 648.1 110.8 646.7 109.7 643.8C 108.9 641.5 108.5 631 108.5 607.5L 108.5 574.5L 111.3 568.6C 113.5 563.8 114 561.4 114 555C 114 539.8 116.8 531.6 125.3 522.4C 132.2 514.8 145.3 506.2 153.9 503.5C 156.1 502.8 156.2 503 155.6 505.6L 154.9 508.5L 156.9 505.5C 160 501 163.1 499.1 167.5 499C 170.7 498.9 171.1 498.7 169.4 498C 168.2 497.5 166.2 495.4 164.9 493.3C 162.9 490.1 162.5 488.2 162.5 481.2C 162.5 474.1 162.8 472.6 164.4 471.4C 167.7 469 173.6 469.6 177 472.7zM 727.6 568.8C 728 570.7 728 575.1 727.7 578.7C 727.3 584.6 727.4 585.2 729.4 586C 731.6 586.8 736.1 591.3 737.6 594.2C 738.1 595.1 743.5 598.3 749.5 601.4C 765.4 609.3 775.4 618.9 779.7 630.2C 781.6 635.2 783.2 660.8 783.4 688.5C 783.5 705.8 783.4 706.7 781 711.5C 779.1 715.3 778.4 718.7 778 725.2L 777.5 733.9L 773.2 729.9C 769.7 726.7 768.5 726.1 767.4 727.1C 766.6 727.8 764.7 728 762.6 727.6C 759.7 727 759.1 727.3 758.5 729C 757.7 731.6 759.2 733.4 766.5 738.5C 770.4 741.2 773.1 742.3 775.9 742.4C 778.1 742.4 779.5 742.7 779.1 743C 778.6 743.3 778.1 749.6 777.8 757.1C 777.5 770 777.3 771 774.2 777.2C 765 795.8 737.9 810.7 705.3 815.1C 694 816.6 664.1 815.7 654.5 813.5C 628.4 807.7 607.4 795.6 598.1 781.2C 592.4 772.3 591.8 767.4 592.2 733.2L 592.5 702.5L 595.4 696.3C 598.2 690.1 598.2 689.8 597.5 679.3C 597 673.3 596.6 660.8 596.6 651.5C 596.5 634.9 596.6 634.4 599.3 628.6C 608 609.9 630 596.6 662.5 590.4C 668.8 589.1 676.7 588.6 689.3 588.6L 707 588.5L 707.2 583C 707.3 580 707.2 575.3 707.1 572.7C 706.7 565.7 707.6 565.1 718.1 565.3L 727 565.5L 727.6 568.8zM 462.5 725.1C 495.2 729.1 523.3 743.8 532.3 761.6C 535.7 768.2 536.1 770.9 536.5 788C 536.7 796 537.2 804.7 537.7 807.5C 538.1 810.2 538.3 819.5 538 828C 537.5 842.3 537.3 843.9 534.8 849L 532.1 854.5L 532.1 879.6C 532.1 902.4 531.9 905.3 530 910.1C 524.7 924.4 508 937.6 486.1 945C 460.3 953.7 425.6 954.2 398.2 946.4C 376.3 940.2 357.6 927.1 350.8 913.2L 347.5 906.5L 347.5 872L 347.5 837.5L 350.4 831.3C 353.1 825.3 353.2 824.7 352.5 815.8C 352 810.7 351.7 798.2 351.6 788L 351.5 769.5L 354.8 762.8C 368 735.9 415.3 719.3 462.5 725.1zM 130.6 847.5C 161.3 852.8 185.5 867.1 193.8 884.8C 196.4 890.4 196.5 890.9 196.5 910.5C 196.5 930.2 196.5 930.6 193.9 935.5C 183.6 954.9 159.4 968.6 126.7 973.4C 77.3 980.8 25 962.1 14 933.1C 11.4 926.4 11 894.9 13.3 888.4C 24.5 857.6 79 838.6 130.6 847.5z"/>
<path style="stroke:none; fill:#000000" d="M 146.7 530.7C 143.7 535.1 140.6 542 141.4 542.7C 141.7 543 142.4 542.2 142.9 540.8C 143.4 539.5 144.9 537.1 146.3 535.4C 148.7 532.5 151 528.7 151 527.6C 151 525.9 149 527.4 146.7 530.7z"/>
<path style="stroke:none; fill:#000000" d="M 202.7 533.6C 201.8 534.6 203.1 537 204.6 537C 205.4 537 206 536.1 206 535C 206 533.1 204.1 532.3 202.7 533.6z"/>
<path style="stroke:none; fill:#000000" d="M 188.3 538.7C 187.6 539 187 540 187 541.1C 187 542.3 187.5 542.7 188.4 542.4C 189.2 542.1 190.8 542.3 191.9 543C 193.6 543.8 194 543.8 194 542.7C 194 540.9 190 538.2 188.3 538.7z"/>
<path style="stroke:none; fill:#000000" d="M 215.1 546.9C 211.7 547.8 214.3 549.7 219.8 550.2C 224.4 550.6 225.6 548.9 222.1 547C 219.9 545.9 218.7 545.9 215.1 546.9z"/>
<path style="stroke:none; fill:#000000" d="M 204.8 549.7C 203.8 549.9 203 551 203 552C 203 553.6 203.4 553.8 205.4 553.1C 207.1 552.4 208.5 552.6 210.8 554.1C 212.6 555.1 214.7 555.7 215.6 555.3C 216.8 554.9 216.1 554 212.6 551.9C 210.1 550.3 207.7 549.1 207.3 549.1C 206.8 549.2 205.7 549.4 204.8 549.7z"/>
<path style="stroke:none; fill:#000000" d="M 233.2 554.4C 230.7 557 230.3 557.9 231.4 558.3C 233 559 237 554.7 237 552.4C 237 550.6 237 550.6 233.2 554.4z"/>
<path style="stroke:none; fill:#000000" d="M 190.3 554.2C 191.7 556.3 194 556.6 194 554.6C 194 553.9 192.9 553 191.6 552.8C 189.5 552.4 189.3 552.5 190.3 554.2z"/>
<path style="stroke:none; fill:#000000" d="M 222.8 561.1C 221.8 561.6 217.3 563 212.8 564.2L 204.6 566.2L 202.8 564C 200.4 561.1 200.5 563.7 202.9 566.9C 204.6 569.1 204.9 569.2 210.6 568C 213.8 567.3 218.6 566 221.2 565C 225.7 563.3 226 563.3 229 565.1C 232.4 567.2 236 566.3 236 563.4C 236 562.3 235.6 562.2 234.2 562.9C 232.8 563.6 231.5 563.4 229.1 561.9C 225.5 559.7 225.2 559.7 222.8 561.1z"/>
<path style="stroke:none; fill:#000000" d="M 161.2 564.2C 161.6 565 162.1 568.2 162.5 571.3C 162.9 574.5 163.6 577 164.1 577C 165.2 577 173.9 571.6 174 570.9C 174 570.6 173 569.8 171.8 569.2C 170.5 568.6 167.5 566.9 165.1 565.4C 162.1 563.6 160.9 563.2 161.2 564.2z"/>
<path style="stroke:none; fill:#000000" d="M 137.5 627.9C 137 628.8 135.6 629 133.4 628.7C 130.5 628.2 129.2 628.7 125 632.1C 122.2 634.3 119.6 636.8 119.3 637.7C 118.4 639.9 121 641.1 125 640.5C 126.9 640.2 129.3 639.9 130.2 639.8C 131.1 639.7 131.7 639.3 131.4 638.9C 130.9 638.1 138.1 633.4 139.3 633.8C 140.2 634.1 140.1 631.1 139.1 628.6C 138.5 627.1 138.1 627 137.5 627.9z"/>
<path style="stroke:none; fill:#000000" d="M 138.9 637.3C 128.6 645.5 127.4 648.5 134.3 648.8C 137.5 649 139.6 648.4 142.4 646.5C 146.7 643.6 147.8 643.3 145.9 645.7C 144.6 647.3 144.7 647.4 146.2 646.1C 147.2 645.4 147.7 644.4 147.5 643.9C 146.9 643.1 150.4 640.7 151.1 641.4C 151.3 641.7 151.6 640.4 151.7 638.7L 152 635.5L 146.6 635.4C 142.8 635.4 140.5 635.9 138.9 637.3z"/>
<path style="stroke:none; fill:#000000" d="M 669.3 604.5C 648.3 608.3 631.6 618.1 625.5 630.3C 622 637.3 622.4 639.7 626 633.4C 634 619.4 655.5 609.1 680.5 607.3C 688.6 606.8 690.9 606 691 603.7C 691 602.6 677.3 603 669.3 604.5z"/>
<path style="stroke:none; fill:#000000" d="M 741 618.3C 741 619.3 743.5 622.7 746.6 626.1C 749.7 629.4 752.8 633.6 753.5 635.3C 754.5 637.5 754.9 637.9 755 636.6C 755 632.4 750.4 625.1 743.7 619.1C 741.5 617.1 741 616.9 741 618.3z"/>
<path style="stroke:none; fill:#000000" d="M 657 626.9C 657 629 659.8 630.6 661.2 629.2C 661.7 628.7 661 627.6 659.6 626.6C 657.1 625 657 625 657 626.9z"/>
<path style="stroke:none; fill:#000000" d="M 678 629.4C 674.8 630.6 674.7 630.8 676.5 631.7C 678.9 632.9 687.1 631.1 687.8 629.2C 688.3 627.6 682.7 627.7 678 629.4z"/>
<path style="stroke:none; fill:#000000" d="M 669 634.5C 667.9 635.9 668.3 636.4 670.3 636.1C 670.7 636 672.3 636.6 673.8 637.4C 678.3 639.7 679.8 637.7 675.5 635.1C 671.2 632.6 670.6 632.5 669 634.5z"/>
<path style="stroke:none; fill:#000000" d="M 657 640.9C 657 643.5 659.2 646.1 663.2 648.1C 666.7 649.9 668.6 650.2 674.9 649.8C 683.4 649.2 689.4 647.2 688.2 645.3C 687.6 644.3 686.3 644.4 682.6 645.5C 673.1 648.4 664.9 647.2 659.8 642.2C 658.2 640.8 657 640.2 657 640.9z"/>
<path style="stroke:none; fill:#000000" d="M 682 655.7C 682 656.3 682.8 658.2 683.8 659.9C 685 662.1 686.2 663 688.2 663C 692 663 694 662 693.4 660.5C 693 659.6 691.7 659.4 688.9 659.7C 686.8 660 685 659.8 685 659.3C 685 657.9 682.1 654.3 682 655.7z"/>
<path style="stroke:none; fill:#000000" d="M 729.5 671.6C 726.2 673.6 723.4 675.3 723.3 675.4C 723.2 675.5 725.6 677.1 728.7 678.8C 731.8 680.6 734.4 681.9 734.5 681.8C 734.7 681.6 735 680.1 735.3 678.5C 735.6 676.8 736.1 673.8 736.5 671.7C 736.9 669.7 736.8 668 736.4 668C 735.9 668 732.8 669.6 729.5 671.6z"/>
<path style="stroke:none; fill:#000000" d="M 775.1 676.6C 775.1 677.7 775.4 678 775.7 677.2C 776 676.5 775.9 675.6 775.6 675.3C 775.3 674.9 775 675.5 775.1 676.6z"/>
<path style="stroke:none; fill:#000000" d="M 759.3 691.5C 759.3 694.8 759.5 696 759.7 694.2C 759.9 692.4 759.9 689.7 759.7 688.2C 759.5 686.7 759.3 688.2 759.3 691.5z"/>
<path style="stroke:none; fill:#000000" d="M 731.4 702C 731.4 707.8 731.5 710.1 731.7 707.2C 731.9 704.4 731.9 699.6 731.7 696.7C 731.5 693.9 731.4 696.2 731.4 702z"/>
<path style="stroke:none; fill:#000000" d="M 731 745.7C 731 749.4 731.5 749.9 738.9 754.8C 745.6 759.2 750.7 760.2 753 757.5C 754.9 755.2 753.3 752.8 747 748.3C 742.2 744.9 740.5 744.2 738.1 744.6C 736.5 744.9 734.3 744.7 733.1 744.1C 731.2 743 731 743.2 731 745.7z"/>
<path style="stroke:none; fill:#000000" d="M 747.3 760.7C 748.2 760.9 749.6 760.9 750.3 760.7C 750.9 760.4 750.2 760.2 748.5 760.2C 746.9 760.2 746.3 760.4 747.3 760.7z"/>
<path style="stroke:none; fill:#000000" d="M 424.7 740C 409.7 742.7 394.4 749.6 386.8 757.1C 382 761.9 378 768.6 378 771.7C 378.1 772.8 378.9 772 380.1 769.6C 385.3 759.8 399.9 750.4 417 745.8C 424.5 743.8 427.7 743.5 444 743.6C 459.9 743.6 463.6 743.9 470.5 745.8C 488.3 750.7 502.3 760 507.4 770.2C 508.9 773.3 510 774.6 510 773.4C 510 769.5 504.8 761 499.3 756C 492.9 750.1 482.5 744.8 471.4 741.9C 465.1 740.2 460 739.7 446.5 739.4C 437.2 739.3 427.3 739.5 424.7 740z"/>
<path style="stroke:none; fill:#000000" d="M 411 762.5C 411 764.4 414.6 766.4 415.5 764.9C 415.9 764.3 415.4 763.2 414.4 762.5C 412 760.7 411 760.6 411 762.5z"/>
<path style="stroke:none; fill:#000000" d="M 436.5 764.1C 430.4 765.5 429.5 765.9 430.7 767.1C 431.3 767.7 434 767.8 437.3 767.4C 442 766.8 443 766.4 443 764.9C 443 762.8 442.4 762.8 436.5 764.1z"/>
<path style="stroke:none; fill:#000000" d="M 424.2 769.2C 422.3 771.1 422.8 772.5 425.3 772.7C 426.5 772.8 429.1 773.2 431 773.6C 435 774.3 434.4 773.5 428.9 770.2C 426.2 768.6 425.1 768.3 424.2 769.2z"/>
<path style="stroke:none; fill:#000000" d="M 411.6 777.3C 412.6 780.5 413.9 781.9 418.1 784.1C 422.8 786.4 429.2 786.5 437.8 784.4C 443.7 782.9 444.6 782.9 447.6 784.4C 449.5 785.2 451.7 785.7 452.5 785.3C 453.7 784.9 452.8 784 449.2 782L 444.4 779.2L 437.5 781.1C 426.4 784.1 419.6 783.2 414 778C 411.2 775.4 411 775.3 411.6 777.3z"/>
<path style="stroke:none; fill:#000000" d="M 450 777.9C 450 779 452.2 779.8 457 780.2C 459.6 780.4 460.5 780.1 460.5 779C 460.5 777.9 459.1 777.4 455.3 777.2C 452.3 777 450 777.3 450 777.9z"/>
<path style="stroke:none; fill:#000000" d="M 470.1 784.4C 467.8 786.8 467.2 788 468.1 788.5C 469.3 789.3 472.5 785.9 473.4 782.7C 474 780.4 473.9 780.5 470.1 784.4z"/>
<path style="stroke:none; fill:#000000" d="M 455 792.5C 451.4 793.8 446.7 795.1 444.5 795.4C 440.9 796 440.3 795.8 438.8 793.3C 436.5 789.6 436.5 792.3 438.8 796.2C 440.4 798.9 440.8 799.1 444.6 798.6C 446.9 798.3 451.7 797.1 455.4 795.9C 461.8 793.8 462.3 793.8 465.6 795.3C 469.4 797.2 473 796.2 473 793.5C 473 791.7 471.8 791.6 470.3 793.1C 469.4 794 468.3 793.7 465.7 792.1C 463.8 791 462.1 790.1 461.9 790.1C 461.7 790.2 458.6 791.3 455 792.5z"/>
<path style="stroke:none; fill:#000000" d="M 89.5 860.6C 72.5 863.3 56.5 869.9 48.2 877.7C 43.4 882.2 38 891.5 38.1 895C 38.1 895.8 39 894.5 40.2 892.1C 45.2 881.7 59.9 872 77.8 867.3C 86.3 865 89.5 864.7 104 864.6C 117.8 864.6 121.9 864.9 129.4 866.8C 148.3 871.5 163.3 881.4 168.7 892.5C 170.9 897 171.1 897.2 170.4 894C 167.7 879.9 151.8 867.9 128.9 862.5C 121.7 860.8 96.3 859.6 89.5 860.6z"/>
<path style="stroke:none; fill:#000000" d="M 72 883.9C 72 886 74.8 887.6 76.2 886.2C 76.7 885.7 76 884.6 74.6 883.6C 72.1 882 72 882 72 883.9z"/>
<path style="stroke:none; fill:#000000" d="M 93.5 886.4C 89.9 887.5 89.7 887.7 91.5 888.6C 94.2 890 103.9 888 103.3 886.2C 102.7 884.7 98.8 884.8 93.5 886.4z"/>
<path style="stroke:none; fill:#000000" d="M 84.7 890.7C 83.6 891.7 83.9 894.2 85 893.5C 85.5 893.2 87.3 893.6 88.9 894.5C 90.5 895.3 92.6 895.7 93.5 895.4C 94.7 894.9 94.1 894.2 91 892.4C 86.5 889.8 85.7 889.6 84.7 890.7z"/>
<path style="stroke:none; fill:#000000" d="M 72 898.1C 72.1 900.2 74.1 902.5 78 904.9C 82.3 907.5 92.1 907.8 99.8 905.5C 104.4 904.1 105.3 904.1 107.9 905.5C 111.1 907.1 114 907.5 114 906.2C 114 905.8 112 904.4 109.5 903.1C 105 900.7 104.9 900.7 99 902.3C 88.1 905.4 80.1 904.3 74.8 899.2C 72.9 897.5 72 897.1 72 898.1z"/>
<path style="stroke:none; fill:#000000" d="M 111.1 898.9C 109.9 899.7 110.1 900 112.1 900.4C 120.9 902.2 123 901.9 120.9 899.3C 119.6 897.8 113.2 897.6 111.1 898.9z"/>
<path style="stroke:none; fill:#000000" d="M 130.6 905.9C 128.6 908 128.2 909 129.1 909.5C 130.3 910.3 133.9 906.5 134 904.2C 134 902.5 133.7 902.6 130.6 905.9z"/>
<path style="stroke:none; fill:#000000" d="M 118.5 913.1C 116.3 914 111.6 915.4 108.1 916.1C 101.9 917.4 101.7 917.4 99.9 915.1C 97.5 912.2 97.3 914.6 99.6 917.9C 101.1 920 101.9 920.2 106 919.7C 108.6 919.4 113.4 918.2 116.9 917.1C 122.6 915.1 123.3 915.1 126.1 916.5C 129.4 918.3 133 917.7 133 915.4C 133 914.3 132.4 914.1 131 914.5C 129.8 914.9 127.7 914.4 125.7 913.2C 122.6 911.3 122.4 911.3 118.5 913.1z"/>
<path style="stroke:none; fill:#000000" d="M 446.7 252.7C 445.4 253.9 446 254.9 448.8 256.4C 451.1 257.6 457 258.3 457 257.5C 457 257.2 448 252 447.5 252C 447.4 252 447 252.3 446.7 252.7z"/>
<path style="stroke:none; fill:#000000" d="M 459.3 259.7C 461.7 262.5 464.9 273.1 465.5 280.3C 466.1 288 468.2 292.8 471.4 293.6C 474.4 294.3 482.9 291.7 486.5 288.8C 487.9 287.7 489.8 285.2 490.7 283.2C 491.6 281.1 492.6 279.2 492.7 278.9C 492.9 278.5 486.7 274.5 478.8 270C 470.9 265.4 462.9 260.8 461 259.7L 457.5 257.6L 459.3 259.7z"/>
<path style="stroke:none; fill:#000000" d="M 495.7 280.7C 495.3 281 495 281.8 495 282.4C 495 283 495.5 282.9 496.2 282.2C 496.8 281.6 497.1 280.8 496.9 280.5C 496.6 280.2 496 280.3 495.7 280.7z"/>
<path style="stroke:none; fill:#000000" d="M 441.6 357.2C 441.2 361.2 440.7 366 440.3 367.7C 439.8 370.7 440 371 442.4 371L 444.9 371L 444.3 361.2C 444 355.9 443.4 351.1 443 350.7C 442.6 350.2 442 353.2 441.6 357.2z"/>
<path style="stroke:none; fill:#000000" d="M 437.6 387.6C 436.6 390.3 436.9 390.6 440.5 390.2C 443.1 389.9 444 389.3 444 387.9C 444 385.5 438.5 385.2 437.6 387.6z"/>
<path style="stroke:none; fill:#000000" d="M 459 388.9C 459 390.4 460 390.8 464.9 391.3C 473.2 392.2 488.4 397.3 495.5 401.5C 503 406 509.4 412.2 512 417.5C 514.7 422.9 514.6 419.2 511.9 413.5C 507.2 403.6 491.6 393.3 474.6 389C 464.3 386.4 459 386.3 459 388.9z"/>
<path style="stroke:none; fill:#000000" d="M 415 390.9C 407 393.4 397.5 398.7 392 403.7C 387.1 408.1 382 416.7 382 420.4C 382 421.6 383.1 420.3 384.6 417.2C 389.1 408.1 399.6 400.5 414.7 395.3C 420.9 393.2 423 392 423 390.7C 423 388.6 422 388.6 415 390.9z"/>
<path style="stroke:none; fill:#000000" d="M 444.3 398.5C 444.3 401.8 444.5 403 444.7 401.2C 444.9 399.4 444.9 396.7 444.7 395.2C 444.5 393.7 444.3 395.2 444.3 398.5z"/>
<path style="stroke:none; fill:#000000" d="M 416 410.4C 416 412 418.7 413.3 420.2 412.4C 420.9 411.9 420.6 411.2 419.5 410.3C 417.1 408.6 416 408.6 416 410.4z"/>
<path style="stroke:none; fill:#000000" d="M 438 412.3C 436.1 413 434.4 414.2 434.2 415C 434 415.8 433.3 416.8 432.7 417.2C 430.9 418.4 425.2 418.1 424.4 416.9C 423.3 415.1 422 418 422 422.1C 422 428 425.3 428.4 436.2 424.1L 443.5 421.1L 443.8 416.1C 444.1 410.5 443.9 410.3 438 412.3z"/>
<path style="stroke:none; fill:#000000" d="M 457.3 423.3C 455.6 424 453.8 424.8 453.4 425.2C 453 425.7 450.7 426 448.2 426C 445.2 426 443.3 426.5 442.6 427.6C 441 429.7 429.6 430.7 424.7 429.1C 422.8 428.4 420 426.8 418.6 425.5C 416.6 423.7 416 423.5 416 424.6C 416 427.1 421.8 431.9 425.6 432.6C 427.5 432.9 432 433 435.5 432.8C 440.3 432.5 442 432.7 442 433.7C 442 435.3 446.2 436.4 449.8 435.7C 451.3 435.4 456 433.7 460.3 431.9C 467.9 428.8 471.9 425.3 470.5 423C 469.7 421.7 461.3 421.8 457.3 423.3z"/>
<path style="stroke:none; fill:#000000" d="M 474.3 431.6C 472.4 433.7 471.6 435.2 472.3 435.7C 473.5 436.4 478 431.6 478 429.4C 478 427.7 478.1 427.6 474.3 431.6z"/>
<path style="stroke:none; fill:#000000" d="M 441 438.7C 441 439.3 441.8 441.3 442.8 443C 444.4 446 444.7 446.1 449.5 445.7C 452.3 445.4 457.3 444.2 460.8 443C 466.7 440.9 467.2 440.9 469.6 442.5C 472.6 444.4 477 443.8 477 441.4C 477 440.3 476.4 440.1 475.1 440.5C 474.1 440.8 471.6 440.3 469.7 439.4C 466.4 437.8 466 437.9 459.9 439.9C 452.7 442.5 444 443.8 444 442.3C 444 440.9 441.1 437.3 441 438.7z"/>
<path style="stroke:none; fill:#000000" d="M 782.5 846C 777.6 847 770.9 848.9 767.7 850.1C 756.1 854.5 744.4 863.8 740.9 871.5C 738.5 876.7 738.5 879.5 740.9 875C 745.3 866.7 759 857 772.5 852.7C 808.7 841 857 852.3 868.4 875.2C 869.9 878.3 871 879.6 871 878.4C 871 874.6 865.8 866 860.7 861.4C 854.5 855.8 842.4 849.8 831.5 846.9C 819.6 843.8 794.8 843.3 782.5 846z"/>
<path style="stroke:none; fill:#000000" d="M 772 867.5C 772 869.1 775.4 871.3 776.4 870.3C 777.5 869.1 777 868.3 774.5 867.2C 772.5 866.3 772 866.3 772 867.5z"/>
<path style="stroke:none; fill:#000000" d="M 794.2 870.1C 791.7 870.9 791.1 871.4 791.9 872.4C 793.3 874 804 872.2 804 870.3C 804 868.8 799.1 868.7 794.2 870.1z"/>
<path style="stroke:none; fill:#000000" d="M 784.7 874.7C 783.2 876.1 784 878.1 785.8 877.6C 786.8 877.2 788.4 877.6 789.5 878.4C 790.5 879.1 792.2 879.5 793.3 879.2C 795 878.8 794.7 878.3 791.4 876.4C 787.4 873.9 785.8 873.5 784.7 874.7z"/>
<path style="stroke:none; fill:#000000" d="M 772.5 882C 774.8 890.2 786.1 893.2 800 889.4C 805.5 887.8 806.1 887.8 808.4 889.4C 811 891.1 814 891.5 814 890.2C 814 889.8 812.1 888.3 809.8 887L 805.5 884.4L 799.5 886.1C 788.2 889.4 777.8 887.6 773.5 881.9L 771.8 879.5L 772.5 882z"/>
<path style="stroke:none; fill:#000000" d="M 811.5 883C 810.8 884.2 812 884.7 817.8 885.3C 820.8 885.7 822 885.4 822 884.5C 822 883.8 821.3 882.9 820.4 882.6C 817.9 881.6 812.2 881.9 811.5 883z"/>
<path style="stroke:none; fill:#000000" d="M 831.2 889.5C 829.1 891.6 828.3 893.1 829 893.5C 830.5 894.4 832.7 892.4 833.9 888.9C 834.4 887.3 834.8 886 834.7 886.1C 834.6 886.1 833 887.6 831.2 889.5z"/>
<path style="stroke:none; fill:#000000" d="M 798 896.8C 798 897.5 798.7 899.5 799.6 901.2C 801.1 904.1 801.4 904.2 805.8 903.7C 808.4 903.4 813.5 902.2 817.2 900.9C 823.6 898.8 824.1 898.8 826.6 900.5C 829.9 902.6 834 901.8 834 898.9C 834 897.3 833.7 897.1 832.1 898C 830.6 898.8 829.2 898.6 826.6 897.3C 823.3 895.8 822.8 895.8 816.4 897.9C 812.7 899.1 807.8 900.3 805.5 900.7C 801.5 901.2 801.1 901 799.6 898.4C 798.8 896.8 798.1 896.1 798 896.8z"/>
<path style="stroke:none; fill:#000000" d="M 897.2 909C 897.2 910.9 897.4 911.7 897.7 910.7C 897.9 909.8 897.9 908.2 897.7 907.2C 897.4 906.3 897.2 907.1 897.2 909z"/>
</g>
</g>
</svg>