<?xml version="1.0" encoding="UTF-8" standalone="yes"?>
<!-- Created with sK1/UniConvertor (http://sk1project.org/) -->
<svg xmlns="http://www.w3.org/2000/svg" xmlns:xlink="http://www.w3.org/1999/xlink"
  width="660pt" height="1000pt" viewBox="0 0 660 1000"
  fill-rule="evenodd">
<g>
<g>
<path style="stroke:none; fill:#000000" d="M 0 500L 0 1000L 330 1000L 660 1000L 660 500L 660 0L 494.3 0.0999756C 344.1 0.0999756 329 0.299988 333.5 1.69995C 337.7 2.89996 476.5 82.1 478 83.9999C 478.3 84.4 479.2 84.9999 480 85.2999C 481.4 85.7999 464.1 85.5999 431 84.4999L 415.5 83.9999L 422.5 88.0999C 426.4 90.3999 465.7 113.2 510 138.7C 554.3 164.3 592.8 187 595.7 189.2C 608.1 198.7 620.2 217.3 625.2 234.7C 627.5 242.5 627.5 242.8 627.2 301.1L 626.9 359.8L 643 360.5L 659 361.2L 658.9 429.4C 658.8 466.8 658.5 512.3 658.1 530.5C 657.3 573.9 659.9 568.9 628 587.6C 610.7 597.7 609.1 598.4 603.3 598.8C 599.8 599 597 599.4 597 599.7C 597 600 597.9 601.5 599 603C 601.5 606.5 607.5 620.5 609.6 627.7C 611.2 633.2 611.2 633.3 609 635L 606.9 636.6L 608.5 645.1C 609.4 649.7 610.4 659.8 610.7 667.5C 611.5 689.4 607.9 706.5 598.3 727C 588.7 747.4 588.3 749.3 586.6 780C 583.5 835.8 583.5 832.1 586.4 846.8C 590.4 867.1 591.3 881.1 590.5 910.8L 589.8 937.1L 587.1 938.2C 583.8 939.4 576.9 938.6 575.5 936.7C 575 935.9 573.7 931.1 572.7 925.9C 571.7 920.7 568.4 905 565.4 891C 560.1 866.3 556.5 845.8 553.5 822C 550.6 799.1 550.1 794.2 548.5 775.5C 545.8 744.5 545 744.2 542.7 773.2C 541.7 784.9 540.3 801.7 539.5 810.5C 538.2 825.8 538.2 826.9 540.2 835C 542.2 843.1 542.2 845.4 541.6 881C 541.2 904.6 540.6 918.8 539.9 919.5C 538.3 921.1 527.3 920.8 525.6 919C 524.2 917.5 521.3 902.2 513.4 853.5L 509.8 831.5L 510.1 781.5C 510.3 754 510.4 726.3 510.3 720C 509 653.9 509.5 604 511.6 598.6C 512.3 596.7 511.8 596.6 501.6 594.9C 496.6 594.1 493 593 491.8 591.8C 490.8 590.8 485.6 588.6 480.2 586.9C 465.3 582.1 458.5 578.4 452.6 571.9C 446.5 565.1 437.6 550.9 428.5 533.7C 423.2 523.6 420.9 520.3 416.6 516.6C 409.5 510.6 408.3 507.5 409.9 499.7C 410.6 496.4 410.8 493.4 410.3 493C 409.9 492.6 385.9 478.7 357 462.1C 328.1 445.4 302.2 430.1 299.4 428C 288.5 419.8 277.3 403.4 272.4 388.3C 269.8 380.4 269.5 378.2 269.5 366L 269.5 352.5L 295.7 352.7L 321.8 352.9L 319.9 347.3C 314.5 331.5 314.5 331 314.7 242.6C 314.9 186.4 315.3 158.9 316.1 155.1C 316.7 152 318.6 146.6 320.2 143.1C 329.9 122.7 351.7 116.5 375.5 127.4C 380.9 129.9 468 179.7 506 202C 540.8 222.4 568.8 266.1 574 308C 574.5 312.6 575 326 575 337.7L 575 359L 583.3 359C 587.8 359 597.9 359.3 605.8 359.7L 620 360.3L 620 301.9C 620 246.2 619.9 243.1 618 236.1C 613.7 220.8 602.8 203.7 592 195.4C 587.5 191.9 504.6 143.7 418.8 94.5999L 400.1 83.8999L 335.8 82.2999C 290.7 81.2 271.3 80.3999 270.7 79.5999C 270.3 78.9999 270.1 68.9999 270.2 57.4999C 270.5 38.2 270.7 36.2 272.7 32.4999C 275.1 27.9999 278 25.0999 282.7 22.2999C 284.5 21.2999 292.8 16.4999 301.1 11.5999C 309.5 6.69989 318 2.09991 319.9 1.3999C 322.9 0.299927 294.3 0.0999146 161.8 -0.00012207L -4.57764e-05 -0.00012207L 0 500zM 161.6 114.6C 163.5 115.5 166 117.4 167.1 118.8C 168.9 121.2 169.3 121.3 172.4 120.2C 180.9 117.1 191.6 128 192.7 140.9C 193.4 148.3 191.8 153.7 187.5 158.8C 183.3 163.6 167.9 173.3 165.7 172.4C 161.6 170.9 146.6 150.8 142.4 141.3C 139.3 134.4 138.2 125.3 140.2 122.7C 142 120.3 154.1 113.1 156.3 113C 157.4 113 159.7 113.7 161.6 114.6zM 248.7 205C 252.3 207.2 257.7 214.1 258.6 217.7C 259 219.1 260 220 261.1 220C 269.9 220 280.3 234.8 278.6 244.9C 277.9 249.4 275.1 252.2 266.4 257C 257.6 261.8 253.1 262.6 244.5 261L 237.9 259.8L 234.4 252.8C 226.5 237 222.9 219.8 226 212.8C 227.3 210.1 239.4 203.1 243 203C 244.4 203 246.9 203.9 248.7 205zM 157 271.5C 158.5 272.3 160.7 274.1 161.8 275.5C 163.6 277.7 164.1 277.9 166.3 276.9C 170.6 274.9 175.4 276.6 180 281.6C 185.5 287.6 187.3 292.1 187.3 300C 187.4 307.5 185.2 312.6 179.8 317.6C 176 321.2 163.1 329 160.9 329C 159.4 329 152.1 321.1 145.3 312C 136.6 300.5 131.8 285.1 134.9 279.2C 136.3 276.5 147.8 270.1 151.3 270C 152.8 270 155.4 270.7 157 271.5zM 204.8 391.9C 209.6 394.4 211.3 396.3 214.4 403.2C 216.4 407.5 217 410.5 217 415.7C 217 420.7 217.6 423.6 219.1 426.4C 221 429.9 221.1 431.3 220.5 440.7C 219.7 451.6 220.4 454 224.1 454C 228 454 239 459.3 241.7 462.4C 245.4 466.8 249.8 476.5 250.6 481.9C 250.9 484.4 252.2 489.4 253.5 493C 257.4 504.2 259.4 515.7 259.3 527.5C 259.2 542 256.9 554 251.4 567.7C 247 578.9 247 578.9 248 585.7C 250.8 602.8 248.7 635.4 243.4 658.5C 238.3 680.7 238.5 678.3 240.9 692.5C 242.9 704.3 243 705.5 241.5 706.6C 240.1 707.7 240 708.9 241.1 718.3C 242.5 730.6 241.6 743.7 237.5 767.4C 236.1 775.4 234.1 789 233 797.7C 230 821.7 230.2 820.7 227.1 822C 225.5 822.6 222.5 823 220.4 822.8L 216.5 822.5L 216.8 802.5C 217.1 780.8 214.6 734.4 212.4 721.2C 211.9 717.8 210.5 717.3 204.3 718.6L 201.3 719.2L 201.8 737.3C 202.2 753.1 201.9 758 199.7 774C 198.3 784.2 196.6 797.1 195.9 802.8C 195.2 808.7 194.1 813.5 193.3 814.1C 191.4 815.8 183.4 816.5 182.5 815.1C 181.8 813.9 181.1 806.1 179 778C 177.3 755.6 170.6 709.3 168.6 707.1C 166.9 705.3 164 680.7 161.9 650.8C 160.3 626.7 161.2 592.5 163.8 578C 166.5 563.3 170.4 546.1 173.7 534.3C 176.1 525.6 176.2 524.3 175.4 513.4C 174.9 506.7 174 501.5 173.4 501.3C 172.8 501.1 170.6 503.5 168.5 506.5C 166.4 509.6 161.1 515.4 156.8 519.5C 150 525.9 146.9 527.9 134.7 533.9C 118.7 541.6 107.3 546 103 546C 100.6 546 99.6 545.2 97.4 541.5C 96 539 94.4 537.2 93.9 537.5C 92.6 538.4 93.2 543.2 94.7 543.7C 95.4 544 96 545.3 96 546.5C 96 547.8 96.5 549.2 97 549.5C 98.9 550.7 96.9 552 93 552C 90.8 552 88.5 551.3 87.5 550.4C 84.8 547.6 81.9 541 82.2 538.2C 82.5 535.8 83 535.5 86.7 535.2C 89.8 535 91.1 534.4 91.5 532.9C 91.9 531.9 93 531 94.2 531C 95.8 531 96.1 531.5 95.8 533.5C 95.5 535 95.7 536 96.4 536C 101.3 535.9 126.5 521.2 143 508.9C 150.5 503.3 153.6 498.4 161.5 479.9C 164.6 472.8 164.9 471.2 163.9 469.3C 162.8 467.3 163.4 466.2 170.4 457.5C 174.6 452.3 179.2 447.3 180.5 446.4C 183 444.8 188.7 444.8 193.8 446.5C 197.1 447.6 196.5 445.6 193.1 444.3C 188.9 442.8 183.4 434.6 180.9 426.5C 179.1 420.6 178.8 418 179.3 410C 180.1 397.5 181.5 393.1 185.5 391.4C 190.1 389.4 200.4 389.6 204.8 391.9zM 17.8 409.9C 26.6 415 27 415.7 26.8 422.5L 26.7 428.5L 26.1 422.5L 25.5 416.5L 18.8 412.5C 11.5 408.1 10.1 407 11.8 407C 12.4 407 15.1 408.3 17.8 409.9zM 19.9 425.6C 21.4 426.5 26.5 433.6 32 442.3C 37.2 450.6 42.5 458.6 43.8 460C 46.5 463 87 526.8 87 528.1C 87 528.5 86.1 529.4 85.1 530C 83.5 530.8 82.8 530.5 81.2 528.2C 76.4 521.3 40.8 464.6 40 462.6C 39.6 461.4 34 452.2 27.7 442.2C 21.3 432.2 16.3 424 16.6 424C 16.9 424 18.4 424.7 19.9 425.6zM 196.7 826.3C 196.1 828 179.5 839.9 175.3 841.6C 168.8 844.4 158 842.6 158 838.8C 158 838.2 158.8 838.4 159.8 839.3C 162.8 842 170.7 841.5 176.7 838.2C 184 834.3 196 825.9 196 824.7C 196 824.1 196.3 823.9 196.6 824.3C 197 824.6 197 825.5 196.7 826.3zM 232.5 833.8C 232.2 834.9 227.1 839.2 221.3 843.4C 213.5 849 209.3 851.2 205.3 852.1C 198.6 853.6 193.3 852.5 191.1 849C 189.6 846.6 189.6 846.5 191.5 848.2C 194.4 850.6 199.9 851.2 205.5 849.7C 210.6 848.4 230.7 835 231.7 832.3C 232.5 830.2 233.3 831.6 232.5 833.8zM 544 932.9C 543.4 934.1 539.9 937 536.2 939.5C 532.5 942 527.3 945.6 524.7 947.5C 519.3 951.4 514.5 953 508.3 953C 503.1 953 499.4 951.6 498.1 949.2C 497.1 947.4 497.3 947.4 501.2 949.3C 504.9 951.2 505.9 951.2 511.8 950.2C 516.2 949.5 519.7 948.1 523 945.8C 525.6 944 531.2 940.1 535.4 937.2C 539.7 934.3 543.4 931.1 543.7 930.2C 544.1 929.3 544.5 929.1 544.7 929.7C 545 930.4 544.6 931.8 544 932.9zM 592.6 951.8C 592.2 952.9 589.1 955.7 585.7 957.9C 582.3 960.1 577 963.7 574 965.9C 565.3 972.2 553.8 974 548.6 969.9C 547.2 968.8 546 967.4 546 966.8C 546 966.2 546.9 966.5 547.9 967.4C 550.7 970 556.9 970.5 563.1 968.7C 568 967.2 585 956.4 590.5 951.3C 592.9 949 593.4 949.2 592.6 951.8z"/>
<path style="stroke:none; fill:#000000" d="M 233.9 504.7C 233.4 506.3 231 512 228.6 517.5L 224.3 527.5L 231.4 541.5L 238.4 555.5L 240.7 546C 244.2 531.7 244 526.5 239.6 513.2C 237.6 507.1 235.7 502 235.4 502C 235.1 502 234.5 503.2 233.9 504.7z"/>
<path style="stroke:none; fill:#000000" d="M 288.8 20.7C 289.4 20.9 290.6 20.9 291.3 20.7C 291.9 20.4 291.4 20.2 290 20.2C 288.6 20.2 288.1 20.4 288.8 20.7z"/>
<path style="stroke:none; fill:#000000" d="M 366.9 164.7C 362.5 165.4 353.8 171.2 350.4 175.7C 348.6 178 346.1 182.5 344.8 185.7L 342.5 191.5L 342.5 259C 342.5 333.1 342.3 329.6 348.7 347.2L 351.2 354L 357.2 354C 362.5 354 363.1 353.8 362.5 352.2C 362.1 351.3 360.6 347.1 359.1 343L 356.5 335.5L 356.5 269L 356.5 202.5L 358.8 197.5C 363.4 187.4 370.6 182.7 381 182.6C 389.3 182.6 392.7 184.1 426.6 203.7C 440.8 211.9 463.1 224.7 476 232.1C 496.8 244 500.4 246.4 507.6 253.5C 522.5 268.3 532.5 286.8 535.9 306.4C 536.5 309.7 537 322.6 537 335.2L 537 358L 544 358L 551 358L 551 338.6C 551 326 550.5 316.3 549.5 310.8C 544.6 282.8 525.2 249.9 503.9 233.5C 500.9 231.1 488.5 223.5 476.4 216.5C 417.6 182.3 398.1 171.1 394.2 169.1C 386.5 165.2 375.5 163.4 366.9 164.7z"/>
<path style="stroke:none; fill:#000000" d="M 415.1 257.5C 406.4 259.9 400.7 265 396.6 274.1C 388.5 291.7 392.9 320.1 407.7 346.7L 412.4 355L 419.3 355L 426.2 355L 422.6 350.1C 417.7 343.4 410.6 328 408.5 319.5C 407.5 315.6 406.8 308.8 406.8 304C 406.9 289.7 410.8 281.2 419.3 277.1C 445.5 264.4 487 308.8 487 349.4L 487 357L 494 357L 501 357L 501 353.6C 501 342.7 495.7 325.3 487.7 309.6C 470.1 275.1 437.2 251.5 415.1 257.5z"/>
<path style="stroke:none; fill:#000000" d="M 497 276C 490.9 282.1 501.7 300.5 510.1 298.3C 511.1 298 512.3 296.5 512.9 295C 514.8 289.3 510.7 279.8 504.6 276.1C 500.5 273.5 499.5 273.5 497 276z"/>
<path style="stroke:none; fill:#000000" d="M 415.3 490.1C 414.5 490.9 416.6 492.9 423.3 497.5C 428.4 500.9 432.5 504.3 432.5 505.1C 432.5 507.7 429 507.1 422.8 503.5C 419.4 501.5 417.2 500.6 418 501.5C 418.8 502.4 421.5 504.3 424.2 505.6C 429.3 508.2 430.6 511 426.7 511C 425.5 511 422.7 510.1 420.7 509.1C 417.7 507.6 417.2 507.5 418.2 508.7C 418.9 509.6 421 510.9 422.8 511.7C 424.5 512.4 426 513.8 426 514.6C 426 515.9 425.3 516.1 422.8 515.6L 419.5 515L 422.5 517.5C 424.2 518.9 431.3 523.5 438.4 527.7C 451.9 535.8 454.8 538.5 466.3 554.2C 470.4 559.9 471.8 561 474.9 561.6C 476.9 561.9 482.3 563.1 486.9 564.1C 494.4 565.8 495.5 565.9 496.2 564.5C 497.5 562.2 501.6 562.7 513.5 566.4C 523.6 569.6 524.5 569.8 526.7 568.3C 529 566.8 529.1 565 527.1 561.2C 526.7 560.5 510.7 550.8 491.4 539.7C 457.1 519.8 456.5 519.4 456.3 516.2C 456.2 514.4 455.6 512.2 454.9 511.4C 453.3 509.5 419.3 489 417.6 489C 417 489 415.9 489.5 415.3 490.1z"/>
<path style="stroke:none; fill:#000000" d="M 543.7 503.1C 538.7 504.3 534.1 506.6 530.8 509.8C 527 513.3 527 519 530.6 523.7C 534.6 528.9 536.7 529.3 548.9 527.1C 560.9 524.9 563.9 525.2 567.2 528.7C 569.1 530.7 569.5 532.1 569.3 536.3C 568.7 550 568.7 559 569.4 559.7C 570.5 560.9 577 556.9 580.1 553C 587.3 544.4 589.1 526 583.7 516.7C 580.2 510.9 574 505.5 568.2 503.6C 563.2 501.9 550 501.6 543.7 503.1z"/>
<path style="stroke:none; fill:#000000" d="M 586.5 658.5C 585.8 664.6 587.4 695.8 588.5 696.9C 590.8 699.2 591 665.5 588.8 657L 587.3 651.5L 586.5 658.5z"/>
</g>
</g>
</svg>